<svg width="1978" height="1170" viewBox="0 0 1978 1170" fill="none" xmlns="http://www.w3.org/2000/svg">
<path d="M1441.8 725.643C1423.79 625.005 1337.37 537.214 1235.47 528.82C1179.94 524.309 1124.13 541.81 1068.83 535.13C1021.96 529.279 978.827 506.542 947.517 471.178C901.837 419.217 886.392 345.301 838.028 295.853C771.393 227.647 655.109 226.591 574.027 276.753C492.946 326.915 443.925 417.447 421.485 510.091L420.6 538.27C415.718 634.369 441.013 746.199 496.771 831.849C553.271 918.641 590.415 954.614 693.366 1016.88C780.786 1069.87 951.971 1093.17 1054.18 1095.62C1156.39 1098.08 1261.37 1067.64 1338.25 1000.21C1415.14 932.773 1459.85 826.282 1441.8 725.643Z" fill="#087F63"/>
<g opacity="0.8">
<path d="M1441.8 725.643C1423.79 625.005 1337.37 537.214 1235.47 528.82C1179.94 524.309 1124.13 541.81 1068.83 535.13C1021.96 529.279 978.827 506.542 947.517 471.178C901.837 419.217 886.392 345.301 838.028 295.853C771.393 227.647 655.109 226.591 574.027 276.753C492.946 326.915 443.925 417.447 421.485 510.091L420.6 538.27C415.718 634.369 441.013 746.199 496.771 831.849C553.271 918.641 590.415 954.614 693.366 1016.88C780.786 1069.87 951.971 1093.17 1054.18 1095.62C1156.39 1098.08 1261.37 1067.64 1338.25 1000.21C1415.14 932.773 1459.85 826.282 1441.8 725.643Z" fill="white"/>
</g>
<path d="M1542 1084.96C1545.9 1058.04 1527.25 1033.05 1500.33 1029.15C1473.42 1025.24 1448.43 1043.89 1444.52 1070.81C1440.61 1097.73 1459.27 1122.71 1486.18 1126.62C1513.1 1130.53 1538.09 1111.88 1542 1084.96Z" fill="#087F63"/>
<path opacity="0.8" d="M1542 1084.96C1545.9 1058.04 1527.25 1033.05 1500.33 1029.15C1473.42 1025.24 1448.43 1043.89 1444.52 1070.81C1440.61 1097.73 1459.27 1122.71 1486.18 1126.62C1513.1 1130.53 1538.09 1111.88 1542 1084.96Z" fill="white"/>
<path d="M1147.57 698.949C1148.5 797.275 1127.07 872.457 1083.27 924.494C1039.48 976.531 979.521 1002.89 903.407 1003.58C826.893 1004.32 766.072 979.119 720.945 927.977C675.817 876.834 652.767 802.11 651.797 703.803L650.141 530.904C649.189 432.959 670.621 357.778 714.435 305.36C758.25 252.942 818.404 226.41 894.899 225.763C971.032 225.021 1031.68 250.401 1076.85 301.906C1122.01 353.41 1145.05 428.125 1145.97 526.051L1147.57 698.949ZM1019.58 507.893C1018.95 445.978 1008.17 400.26 987.23 370.739C966.293 341.219 935.84 326.639 895.87 327.001C856.033 327.382 825.97 342.542 805.681 372.481C785.391 402.42 775.484 448.338 775.96 510.234L777.959 720.333C778.549 782.572 789.464 828.547 810.705 858.258C831.947 887.969 862.466 902.634 902.265 902.253C942.064 901.873 972.032 886.713 992.169 856.773C1012.31 826.834 1022.08 780.573 1021.49 717.992L1019.58 507.893Z" fill="#087F63"/>
<g opacity="0.4">
<path d="M1147.57 698.949C1148.5 797.275 1127.07 872.457 1083.27 924.494C1039.48 976.531 979.521 1002.89 903.407 1003.58C826.893 1004.32 766.072 979.119 720.945 927.977C675.817 876.834 652.767 802.11 651.797 703.803L650.141 530.904C649.189 432.959 670.621 357.778 714.435 305.36C758.25 252.942 818.404 226.41 894.899 225.763C971.032 225.021 1031.68 250.401 1076.85 301.906C1122.01 353.41 1145.05 428.125 1145.97 526.051L1147.57 698.949ZM1019.58 507.893C1018.95 445.978 1008.17 400.26 987.23 370.739C966.293 341.219 935.84 326.639 895.87 327.001C856.033 327.382 825.97 342.542 805.681 372.481C785.391 402.42 775.484 448.338 775.96 510.234L777.959 720.333C778.549 782.572 789.464 828.547 810.705 858.258C831.947 887.969 862.466 902.634 902.265 902.253C942.064 901.873 972.032 886.713 992.169 856.773C1012.31 826.834 1022.08 780.573 1021.49 717.992L1019.58 507.893Z" fill="black"/>
</g>
<path d="M1220.25 698.264C1221.21 796.571 1199.77 871.752 1155.96 923.808C1112.15 975.864 1052.19 1002.23 976.096 1002.89C899.582 1003.63 838.761 978.424 793.633 927.263C748.505 876.101 725.485 801.358 724.571 703.032L722.915 530.134C721.963 432.188 743.395 357.007 787.209 304.589C831.024 252.172 891.179 225.63 967.673 224.963C1043.81 224.259 1104.46 249.64 1149.62 301.106C1194.79 352.572 1217.74 427.325 1218.48 525.366L1220.25 698.264ZM1092.27 507.208C1091.66 445.312 1080.83 399.632 1059.78 370.168C1038.72 340.705 1008.27 326.125 968.416 326.43C928.579 326.83 898.516 341.99 878.227 371.91C857.937 401.83 848.078 447.758 848.649 509.692L850.676 719.762C851.285 782.02 862.201 828.004 883.423 857.715C904.645 887.426 935.165 902.091 974.982 901.711C1014.78 901.311 1044.75 886.151 1064.89 856.231C1085.02 826.31 1094.79 780.041 1094.18 717.421L1092.27 507.208Z" fill="#087F63"/>
<path d="M723.286 540.411C723.429 540.782 706.556 547.492 685.6 555.371C664.645 563.251 647.486 569.19 647.486 568.933C647.486 568.676 664.217 561.852 685.172 553.972C706.128 546.093 723.144 540.012 723.286 540.411Z" fill="#087F63"/>
<path d="M727.426 608.732C727.569 609.103 710.696 615.812 689.711 623.692C668.727 631.571 651.654 637.624 651.512 637.253C651.369 636.882 668.242 630.173 689.197 622.293C710.153 614.413 727.426 608.332 727.426 608.732Z" fill="#087F63"/>
<path d="M731.679 677.051C731.822 677.422 714.949 684.131 693.965 692.011C672.981 699.891 656.051 705.943 655.765 705.572C655.48 705.201 672.496 698.492 693.451 690.612C714.407 682.732 731.537 676.651 731.679 677.051Z" fill="#087F63"/>
<path d="M735.991 745.371C736.133 745.742 719.26 752.452 698.276 760.331C677.292 768.211 660.191 774.264 660.048 773.893C659.905 773.521 676.807 766.812 697.762 758.932C718.718 751.053 735.734 744.971 735.991 745.371Z" fill="#087F63"/>
<path d="M740.074 813.691C739.251 814.22 738.369 814.651 737.447 814.976C735.734 815.718 733.222 816.746 730.138 817.974C723.914 820.458 715.321 823.684 705.785 827.367C696.25 831.05 687.57 834.105 681.261 836.331C678.12 837.445 675.551 838.33 673.781 838.901C672.87 839.284 671.908 839.534 670.926 839.643C671.744 839.107 672.627 838.675 673.552 838.358C675.265 837.616 677.749 836.588 680.861 835.503C687.057 833.02 695.679 829.793 705.214 826.111C714.75 822.428 723.429 819.344 729.739 817.146C732.879 816.032 735.449 815.147 737.219 814.576C738.12 814.137 739.082 813.839 740.074 813.691Z" fill="#087F63"/>
<path d="M759.573 876.187C756.819 877.669 753.956 878.939 751.008 879.984C745.584 882.153 738.075 885.066 729.767 888.206C721.459 891.347 713.865 894.087 708.383 896C705.456 897.189 702.439 898.144 699.361 898.855C702.111 897.363 704.975 896.094 707.926 895.058C713.322 892.86 720.831 889.948 729.167 886.836C737.504 883.724 745.041 880.954 750.551 879.042C753.473 877.837 756.491 876.882 759.573 876.187Z" fill="#087F63"/>
<path d="M801.341 933.515C798.884 934.882 796.314 936.037 793.661 936.969C788.836 938.911 782.241 941.509 774.761 944.307C767.281 947.104 760.486 949.531 755.69 951.216C753.082 952.271 750.388 953.102 747.639 953.699C750.089 952.318 752.659 951.162 755.319 950.245C760.115 948.304 766.739 945.705 774.219 942.908C781.699 940.11 788.494 937.683 793.29 935.97C795.895 934.914 798.59 934.092 801.341 933.515Z" fill="#087F63"/>
<path d="M870.746 971.115C868.284 972.464 865.715 973.61 863.066 974.541C858.241 976.511 851.646 979.109 844.166 981.879C836.686 984.648 829.891 987.103 825.095 988.816C822.49 989.873 819.795 990.694 817.044 991.271C819.501 989.905 822.071 988.749 824.724 987.817C829.549 985.876 836.144 983.277 843.624 980.48C851.104 977.682 857.899 975.255 862.695 973.571C865.295 972.498 867.991 971.675 870.746 971.115Z" fill="#087F63"/>
<path d="M1080.07 825.311C1080.25 825.682 1058.58 835.789 1031.68 847.894C1004.79 859.999 982.833 869.478 982.662 869.107C982.491 868.736 1004.16 858.629 1031.2 846.524C1058.23 834.419 1079.9 824.94 1080.07 825.311Z" fill="#087F63"/>
<path d="M1094.29 766.783C1094.46 767.154 1076.56 775.548 1054.32 785.541C1032.08 795.533 1013.92 803.356 1013.75 802.985C1013.58 802.613 1031.45 794.191 1053.72 784.199C1075.99 774.206 1094.12 766.412 1094.29 766.783Z" fill="#087F63"/>
<path d="M1100.83 701.033C1101 701.405 1083.1 709.798 1060.86 719.791C1038.62 729.783 1020.46 737.606 1020.29 737.235C1020.12 736.864 1037.99 728.441 1060.26 718.449C1082.53 708.456 1100.66 700.519 1100.83 701.033Z" fill="#087F63"/>
<path d="M1107.37 635.254C1107.54 635.625 1089.67 644.047 1067.4 654.04C1045.13 664.032 1027 671.826 1026.83 671.455C1026.66 671.084 1044.56 662.69 1066.8 652.698C1089.04 642.705 1107.14 634.854 1107.37 635.254Z" fill="#087F63"/>
<path d="M1113.93 569.503C1114.08 569.875 1096.2 578.297 1073.96 588.289C1051.72 598.282 1033.57 606.076 1033.39 605.705C1033.22 605.334 1051.12 596.94 1073.36 586.919C1095.61 576.898 1113.76 569.189 1113.93 569.503Z" fill="#087F63"/>
<path d="M1100.83 510.948C1101 511.319 1083.1 519.742 1060.86 529.734C1038.62 539.727 1020.46 547.521 1020.29 547.15C1020.12 546.778 1037.99 538.356 1060.26 528.364C1082.53 518.371 1100.66 510.577 1100.83 510.948Z" fill="#087F63"/>
<path d="M1100.83 447.909C1101 448.28 1083.1 456.703 1060.86 466.695C1038.62 476.688 1020.46 484.482 1020.29 484.11C1020.12 483.739 1037.99 475.317 1060.26 465.325C1082.53 455.332 1100.66 447.538 1100.83 447.909Z" fill="#087F63"/>
<path d="M1094.29 388.555C1094.46 388.926 1076.56 397.32 1054.32 407.312C1032.08 417.305 1013.92 425.127 1013.75 424.756C1013.58 424.385 1031.45 415.963 1053.72 405.97C1075.99 395.978 1094.12 388.184 1094.29 388.555Z" fill="#087F63"/>
<path d="M1037.91 347.186C1030.07 351.529 1021.99 355.436 1013.72 358.891C1005.65 362.789 997.367 366.239 988.914 369.226C996.743 364.862 1004.82 360.954 1013.1 357.521C1021.17 353.623 1029.45 350.173 1037.91 347.186Z" fill="#087F63"/>
<path d="M1007.76 321.861C999.91 326.181 991.838 330.079 983.576 333.538C975.502 337.436 967.219 340.886 958.766 343.873C966.606 339.55 974.679 335.661 982.947 332.225C991.021 328.317 999.303 324.858 1007.76 321.861Z" fill="#087F63"/>
<path d="M726.512 457.588C726.655 457.96 709.782 464.669 688.826 472.549C667.87 480.428 650.74 486.509 650.598 486.11C650.455 485.71 667.328 479.029 688.312 471.15C709.296 463.27 726.369 457.217 726.512 457.588Z" fill="#087F63"/>
<path d="M747.411 372.395C747.582 372.766 729.253 379.989 706.556 388.554C683.859 397.119 665.272 403.686 665.13 403.315C664.987 402.943 683.288 395.692 706.013 387.155C728.739 378.619 747.411 371.995 747.411 372.395Z" fill="#087F63"/>
<path d="M802.427 288.059C802.569 288.458 779.358 297.509 750.58 308.329C721.802 319.15 698.362 327.6 698.219 327.229C698.077 326.858 721.288 317.751 750.066 306.93C778.844 296.11 802.284 287.688 802.427 288.059Z" fill="#087F63"/>
<path d="M1207.95 826.138L1206.75 825.739L1203.32 824.397C1201.81 823.854 1199.84 823.426 1197.61 822.798C1194.95 822.279 1192.25 821.945 1189.53 821.799C1177.34 821.028 1159.07 825.453 1141.4 838.7C1131.83 845.949 1123.26 854.425 1115.9 863.91C1107.71 873.931 1099.69 885.265 1090.58 896.685C1081.31 908.935 1070.22 919.69 1057.69 928.576C1043.97 937.828 1028.47 944.11 1012.18 947.019C995.892 949.952 979.165 949.398 963.105 945.391C948.282 941.504 933.879 936.158 920.109 929.432C906.833 923.294 894.414 917.041 882.595 911.874C871.602 907.018 860.193 903.168 848.506 900.368C838.871 898.092 829 896.961 819.1 896.999C811.627 897.057 804.192 898.064 796.973 899.997C792.434 901.329 788.02 903.058 783.783 905.165L780.529 906.878C780.169 907.1 779.786 907.282 779.387 907.42L780.443 906.763L783.641 904.908C787.84 902.666 792.248 900.84 796.802 899.455C804.053 897.409 811.538 896.305 819.071 896.171C829.05 896.043 839.008 897.107 848.734 899.34C860.476 902.105 871.942 905.928 882.994 910.76C894.928 915.899 907.347 922.18 920.595 928.233C934.313 934.89 948.658 940.169 963.419 943.992C979.302 947.959 995.846 948.504 1011.95 945.591C1028.04 942.713 1043.36 936.52 1056.92 927.405C1069.36 918.622 1080.37 907.982 1089.58 895.857C1098.69 884.437 1106.71 873.189 1115.02 863.139C1122.44 853.627 1131.08 845.131 1140.71 837.872C1158.64 824.625 1177.17 820.286 1189.51 821.256C1192.25 821.436 1194.98 821.808 1197.67 822.37C1199.96 823.084 1201.93 823.54 1203.38 824.14L1206.78 825.625L1207.95 826.138Z" fill="white"/>
<path d="M1225.96 635.711C1225.96 635.854 1223.94 636.111 1220.4 637.281C1215.47 639.082 1210.83 641.572 1206.61 644.676C1201.18 648.473 1195.19 653.783 1188.31 659.265C1180.71 665.188 1172.49 670.253 1163.78 674.367C1147.98 681.942 1130.86 686.364 1113.36 687.386C1110.02 687.672 1106.97 687.586 1104.31 687.643C1101.66 687.7 1099.37 687.472 1097.52 687.329L1093.21 686.901C1092.71 686.893 1092.22 686.807 1091.75 686.644C1092.24 686.576 1092.74 686.576 1093.24 686.644L1097.55 686.787H1104.31C1106.97 686.644 1110.02 686.787 1113.28 686.33C1130.58 684.994 1147.49 680.474 1163.15 672.997C1171.76 668.909 1179.91 663.934 1187.48 658.151C1194.42 652.784 1200.44 647.502 1206.04 643.876C1210.4 640.788 1215.21 638.399 1220.31 636.796C1221.7 636.4 1223.11 636.095 1224.54 635.882C1225 635.752 1225.48 635.694 1225.96 635.711Z" fill="white"/>
<path d="M853.045 701.861C852.525 701.837 852.009 701.76 851.504 701.632C850.476 701.404 848.963 701.176 847.05 700.633C841.688 699.046 836.547 696.792 831.747 693.924C824.707 689.602 818.024 684.723 811.762 679.335C804.596 673.396 796.945 666.63 788.18 660.578C779.997 654.794 770.809 650.583 761.086 648.158C747.727 644.87 733.762 644.929 720.431 648.33C716.634 649.3 714.578 650.043 714.55 649.9C714.99 649.611 715.471 649.39 715.977 649.243C716.948 648.872 718.376 648.301 720.288 647.759C725.636 646.194 731.143 645.236 736.705 644.904C744.992 644.292 753.324 644.976 761.4 646.931C771.309 649.335 780.676 653.587 789.008 659.464C797.887 665.602 805.538 672.426 812.647 678.393C818.816 683.798 825.382 688.732 832.29 693.153C836.989 696.052 841.997 698.417 847.221 700.205C849.191 700.653 851.135 701.206 853.045 701.861Z" fill="white"/>
<path d="M853.531 431.979C851.993 432.693 850.398 433.275 848.763 433.72C846.89 434.381 844.984 434.943 843.053 435.405C840.797 435.976 838.256 436.747 835.373 437.261C832.489 437.775 829.377 438.488 825.951 438.917C822.525 439.345 818.9 439.744 815.045 440.087C806.675 440.618 798.276 440.513 789.921 439.773C781.573 438.938 773.299 437.478 765.169 435.405C761.457 434.349 757.888 433.378 754.662 432.207C751.436 431.037 748.41 429.952 745.726 428.838C743.042 427.725 740.644 426.554 738.532 425.584C736.419 424.613 734.677 423.671 733.25 422.871C731.739 422.118 730.288 421.249 728.91 420.273C730.491 420.856 732.027 421.553 733.507 422.358C734.963 423.071 736.761 423.956 738.874 424.841C740.987 425.726 743.385 426.868 746.126 427.839C748.867 428.81 751.836 430.038 755.062 431.037C758.288 432.036 761.8 433.064 765.511 434.063C781.659 438.135 798.336 439.705 814.96 438.717C818.785 438.403 822.411 438.203 825.809 437.689C829.206 437.175 832.318 436.747 835.173 436.233C838.028 435.719 840.569 435.091 842.824 434.606C845.08 434.12 847.021 433.606 848.534 433.178C850.169 432.659 851.839 432.259 853.531 431.979Z" fill="white"/>
<path d="M1209.75 431.265C1209.33 431.111 1208.92 430.91 1208.55 430.666L1205.24 428.753C1203.52 427.707 1201.75 426.754 1199.93 425.898C1197.58 424.639 1195.17 423.505 1192.7 422.5L1188.42 420.702C1186.91 420.102 1185.31 419.645 1183.65 419.074C1180.4 417.875 1176.77 417.047 1172.98 416.048C1156.38 412.271 1139.16 412.125 1122.5 415.62C1118.87 416.387 1115.29 417.34 1111.76 418.475C1110.11 419.017 1108.48 419.445 1106.97 420.016L1102.66 421.73C1100.18 422.7 1097.75 423.796 1095.38 425.013C1093.54 425.849 1091.75 426.803 1090.04 427.868L1086.67 429.723C1085.9 430.123 1085.47 430.323 1085.44 430.266C1085.77 429.953 1086.13 429.684 1086.53 429.467L1089.72 427.354C1091.41 426.228 1093.18 425.217 1095.01 424.328C1097.35 423.012 1099.77 421.839 1102.26 420.816L1106.57 418.989C1108.08 418.389 1109.74 417.932 1111.39 417.361C1114.94 416.164 1118.55 415.163 1122.21 414.364C1139.06 410.67 1156.52 410.826 1173.29 414.82C1177.12 415.848 1180.77 416.733 1184.05 417.989C1185.71 418.589 1187.34 419.074 1188.82 419.731L1193.13 421.615C1195.59 422.702 1197.99 423.912 1200.33 425.241C1202.12 426.174 1203.86 427.223 1205.52 428.382L1208.72 430.551C1209.43 430.923 1209.92 431.208 1209.75 431.265Z" fill="white"/>
<path d="M1035.19 237.325C1034.55 237.81 1033.86 238.231 1033.14 238.581L1027.2 241.865C1021.92 244.72 1014.27 248.688 1004.67 253.484C985.546 262.934 958.68 275.868 926.876 283.919C911.923 287.677 896.607 289.802 881.196 290.257C868.618 290.624 856.04 289.542 843.71 287.031C835.399 285.362 827.272 282.885 819.443 279.636C816.588 278.551 814.618 277.409 813.19 276.781C812.45 276.463 811.734 276.091 811.049 275.668C811.83 275.87 812.586 276.157 813.304 276.524C814.789 277.067 816.844 278.123 819.671 279.122C827.527 282.148 835.639 284.46 843.91 286.031C856.183 288.376 868.68 289.334 881.167 288.886C896.455 288.355 911.643 286.202 926.476 282.463C958.081 274.469 984.975 261.764 1004.19 252.542L1027.03 241.322L1032.91 238.296C1033.65 237.923 1034.41 237.599 1035.19 237.325Z" fill="white"/>
<path d="M462.083 734.779L557.525 738.947L553.1 840.1L457.657 835.931L450.32 1004L324.701 998.523L332.038 830.45L7.96777 816.289L8.22472 739.204L353.679 243.007L483.352 248.717L462.083 734.779ZM133.759 720.504L336.463 729.355L349.824 422.786L346.77 421.615L335.35 443.456L133.759 720.504Z" fill="#087F63"/>
<g opacity="0.4">
<path d="M462.083 734.779L557.525 738.947L553.1 840.1L457.657 835.931L450.32 1004L324.701 998.523L332.038 830.45L7.96777 816.289L8.22472 739.204L353.679 243.007L483.352 248.717L462.083 734.779ZM133.759 720.504L336.463 729.355L349.824 422.786L346.77 421.615L335.35 443.456L133.759 720.504Z" fill="black"/>
</g>
<path d="M541.851 738.262L637.294 742.43L632.869 843.582L537.426 839.414L530.089 1007.49L404.469 1002.01L411.807 833.933L87.5938 819.658L87.8507 742.573L433.362 246.575L563.064 252.285L541.851 738.262ZM213.527 723.987L416.375 732.837L429.736 426.268L426.681 425.098L415.261 446.938L213.527 723.987Z" fill="#087F63"/>
<path d="M89.592 757.391C88.633 758.085 87.5986 758.67 86.5086 759.132C84.4815 760.16 81.5123 761.587 77.9436 763.3C70.6063 766.755 60.3569 771.352 48.9083 776.205C37.4598 781.058 27.0391 785.17 19.4448 788.053C15.6477 789.481 12.5357 790.594 10.3945 791.336C9.29868 791.79 8.16067 792.135 6.99707 792.364C7.99868 791.719 9.0717 791.192 10.1947 790.794L19.0451 787.054L48.2231 774.749L77.4012 762.273L86.2802 758.504C87.3433 758.021 88.453 757.648 89.592 757.391Z" fill="#087F63"/>
<path d="M136.071 671.97C134.687 672.819 133.247 673.573 131.76 674.225C128.905 675.596 124.851 677.537 119.769 679.935C109.576 684.56 95.4442 690.756 79.7989 697.408C64.1535 704.06 49.6787 709.741 39.3722 713.795C34.1761 715.851 29.9507 717.45 26.9815 718.506C25.4895 719.144 23.941 719.641 22.3564 719.991C23.7825 719.213 25.2611 718.535 26.7817 717.964L38.9725 712.825L79.2564 695.895L119.455 678.765L131.646 673.597C133.067 672.918 134.548 672.373 136.071 671.97Z" fill="#087F63"/>
<path d="M192.8 595.655C191.364 596.543 189.855 597.307 188.289 597.939C185.434 599.31 181.066 601.251 175.756 603.649C165.107 608.303 150.346 614.498 133.959 621.15C117.571 627.802 102.554 633.598 91.7334 637.681C86.3089 639.708 81.8837 641.307 78.8288 642.363C77.269 643.003 75.654 643.5 74.0039 643.848C75.4999 643.072 77.0449 642.395 78.629 641.82L91.3622 636.682L133.388 619.751L175.328 602.621L188.061 597.454C189.592 596.733 191.176 596.132 192.8 595.655Z" fill="#087F63"/>
<path d="M420.029 683.703C419.056 684.376 418.012 684.941 416.917 685.388C414.89 686.387 411.921 687.757 408.209 689.413C400.843 692.753 390.565 697.179 379.117 701.832C367.668 706.486 357.19 710.397 349.596 713.252C345.771 714.623 342.687 715.708 340.546 716.421C339.446 716.842 338.308 717.157 337.148 717.363C338.143 716.746 339.206 716.248 340.317 715.879L349.225 712.282L378.574 700.519L407.809 688.528L416.688 684.902C417.755 684.381 418.875 683.979 420.029 683.703Z" fill="#087F63"/>
<path d="M410.778 840.557C409.845 841.228 408.839 841.793 407.78 842.241C405.811 843.212 402.927 844.611 399.358 846.267C392.221 849.607 382.228 854.032 371.18 858.657C360.131 863.282 349.91 867.222 342.63 870.077C338.918 871.448 335.92 872.533 333.836 873.218C332.771 873.662 331.661 873.987 330.524 874.188C331.492 873.57 332.526 873.062 333.608 872.675L342.173 869.078L370.723 857.344L399.044 845.353L407.609 841.756C408.621 841.246 409.683 840.844 410.778 840.557Z" fill="#087F63"/>
<path d="M409.465 895.544C408.578 896.202 407.621 896.757 406.61 897.2C404.64 898.199 401.756 899.569 398.045 901.254C390.907 904.566 380.915 908.991 369.837 913.645C358.76 918.298 348.596 922.21 341.288 925.065C337.605 926.435 334.607 927.52 332.494 928.234C331.446 928.69 330.342 929.007 329.211 929.176C330.188 928.581 331.221 928.084 332.294 927.691L340.859 924.094L369.409 912.36L397.759 900.369L406.324 896.772C407.316 896.234 408.371 895.821 409.465 895.544Z" fill="#087F63"/>
<path d="M408.152 950.502C407.259 951.157 406.302 951.721 405.297 952.186C403.327 953.186 400.444 954.556 396.732 956.212C389.566 959.552 379.602 963.978 368.525 968.603C357.448 973.228 347.284 977.168 339.975 980.023C336.292 981.393 333.266 982.478 331.182 983.163C330.124 983.6 329.024 983.926 327.898 984.134C328.865 983.513 329.9 983.006 330.982 982.621L339.547 979.052L368.097 967.289L396.447 955.298L405.012 951.701C406.012 951.188 407.065 950.786 408.152 950.502Z" fill="#087F63"/>
<path d="M421.513 625.633C420.532 626.292 419.49 626.856 418.401 627.317C416.374 628.316 413.405 629.687 409.836 631.343C402.47 634.683 392.192 639.108 380.744 643.762C369.295 648.416 358.817 652.327 351.223 655.182C347.397 656.552 344.314 657.637 342.173 658.322C341.076 658.758 339.937 659.084 338.775 659.293C339.764 658.657 340.828 658.149 341.944 657.78L350.852 654.183L380.201 642.449L409.436 630.458L418.315 626.86C419.335 626.339 420.407 625.928 421.513 625.633Z" fill="#087F63"/>
<path d="M422.998 567.562C422.016 568.222 420.974 568.786 419.886 569.247C417.859 570.218 414.889 571.617 411.178 573.272C403.812 576.613 393.534 581.038 382.086 585.663C370.637 590.288 360.188 594.228 352.565 597.083C348.739 598.454 345.656 599.51 343.515 600.224C342.417 600.659 341.279 600.985 340.117 601.194C341.114 600.555 342.189 600.047 343.315 599.681L352.194 596.084L381.543 584.35L410.778 572.359L419.657 568.762C420.723 568.241 421.843 567.838 422.998 567.562Z" fill="#087F63"/>
<path d="M424.482 509.492C423.587 510.119 422.63 510.655 421.627 511.091C419.715 512.033 416.888 513.346 413.376 514.945C406.325 518.143 396.561 522.397 385.654 526.793C374.748 531.19 364.756 534.987 357.504 537.585C353.878 538.87 350.938 539.898 348.939 540.44C347.892 540.865 346.8 541.172 345.685 541.354C346.643 540.752 347.668 540.264 348.739 539.898L357.304 536.472L385.255 525.309L413.119 513.889L421.684 510.463C422.578 510.035 423.516 509.709 424.482 509.492Z" fill="#087F63"/>
<path d="M431.049 455.219C426.491 457.686 421.712 459.722 416.774 461.3C411.995 463.334 407.034 464.912 401.957 466.011C406.515 463.535 411.294 461.49 416.232 459.901C421.009 457.867 425.971 456.299 431.049 455.219Z" fill="#087F63"/>
<path d="M249.414 516.629C247.974 517.493 246.477 518.256 244.932 518.913C242.077 520.283 237.709 522.196 232.37 524.623C221.749 529.277 206.989 535.472 190.573 542.124C174.157 548.776 159.168 554.6 148.376 558.654C142.951 560.681 138.526 562.28 135.471 563.337C133.899 563.95 132.287 564.455 130.646 564.85C132.126 564.033 133.674 563.346 135.272 562.794L148.005 557.684L190.03 540.639L231.97 523.509L244.675 518.342C246.215 517.666 247.798 517.094 249.414 516.629Z" fill="#087F63"/>
<path d="M306.058 437.574C304.621 438.461 303.112 439.226 301.547 439.858C298.692 441.229 294.324 443.17 289.013 445.568C278.393 450.193 263.604 456.417 247.216 463.041C230.829 469.664 215.811 475.517 205.02 479.571C199.566 481.627 195.17 483.226 192.086 484.282C190.534 484.915 188.929 485.412 187.29 485.766C188.771 484.979 190.307 484.302 191.887 483.739L204.62 478.6L246.645 461.67L288.614 444.54L301.318 439.344C302.852 438.638 304.436 438.047 306.058 437.574Z" fill="#087F63"/>
<path d="M358.39 358.549C356.942 359.416 355.434 360.179 353.879 360.833C351.024 362.203 346.656 364.116 341.345 366.543C330.725 371.196 315.936 377.392 299.548 384.044C283.161 390.696 268.143 396.52 257.352 400.574C251.927 402.601 247.502 404.2 244.447 405.256C242.875 405.869 241.263 406.375 239.622 406.77C241.102 405.953 242.649 405.265 244.247 404.714L256.98 399.604L299.006 382.673L340.946 365.544L353.65 360.376C355.173 359.629 356.759 359.017 358.39 358.549Z" fill="#087F63"/>
<path d="M412.863 282.549C411.41 283.408 409.904 284.171 408.352 284.833C405.497 286.203 401.129 288.116 395.818 290.543C385.169 295.196 370.409 301.392 354.021 308.044C337.634 314.696 322.616 320.52 311.796 324.574C306.371 326.601 301.975 328.2 298.891 329.256C297.322 329.879 295.71 330.385 294.066 330.77C295.55 329.96 297.097 329.273 298.691 328.714L311.425 323.604L353.422 306.531L395.361 289.401L408.095 284.233C409.64 283.555 411.234 282.992 412.863 282.549Z" fill="#087F63"/>
<path d="M557.382 398.661C556.905 399.351 556.349 399.983 555.726 400.545C554.112 402.319 552.386 403.987 550.559 405.541C543.899 411.355 536.426 416.164 528.375 419.816C516.368 425.212 503.394 428.125 490.233 428.381C482.453 428.525 474.689 427.651 467.136 425.783C459.073 423.718 451.254 420.799 443.811 417.076C428.451 409.596 414.804 400.774 401.471 394.635C389.785 388.906 377.066 385.586 364.071 384.871C355.315 384.422 346.577 386.056 338.576 389.639C336.419 390.65 334.347 391.834 332.38 393.179C331.709 393.676 331.003 394.125 330.268 394.521C330.877 393.952 331.525 393.428 332.209 392.951C334.126 391.494 336.171 390.214 338.319 389.125C346.327 385.3 355.145 383.478 364.014 383.815C377.193 384.44 390.105 387.753 401.956 393.55C415.432 399.689 429.136 408.482 444.353 415.905C451.724 419.554 459.455 422.425 467.421 424.47C474.842 426.32 482.471 427.203 490.119 427.097C512.036 426.795 533.191 419.008 550.073 405.028C552.5 403.086 554.213 401.373 555.412 400.26C556.026 399.676 556.684 399.141 557.382 398.661Z" fill="white"/>
<path d="M517.641 257.51C516.49 258.309 515.277 259.015 514.015 259.622C511.645 260.907 508.105 262.477 503.651 264.476C498.431 266.671 493.093 268.578 487.663 270.186C474.359 274.158 460.599 276.403 446.723 276.867C441.011 277.075 435.292 276.96 429.593 276.524C424.768 276.153 421.028 275.696 418.173 275.211C416.781 275.055 415.405 274.778 414.062 274.383C415.465 274.334 416.871 274.42 418.258 274.64C420.914 274.954 424.796 275.239 429.678 275.468C434.56 275.696 440.213 275.753 446.551 275.468C453.417 275.127 460.26 274.422 467.05 273.355C473.785 272.198 480.456 270.692 487.035 268.844C493.116 267.074 498.455 265.247 502.994 263.477C507.534 261.707 511.046 260.193 513.501 259.08C514.828 258.426 516.214 257.9 517.641 257.51Z" fill="white"/>
<path d="M314.937 574.586C313.995 573.714 313.135 572.758 312.367 571.731L305.629 563.68C298.109 554.929 290.122 546.59 281.704 538.699C277.134 534.364 272.108 530.535 266.716 527.279C262.304 524.639 257.478 522.767 252.441 521.74C247.767 520.905 242.982 520.905 238.309 521.74C238.309 521.74 238.623 521.569 239.251 521.369C240.18 521.061 241.136 520.842 242.106 520.712C245.612 520.123 249.192 520.123 252.698 520.712C257.9 521.617 262.899 523.444 267.458 526.108C273.001 529.375 278.145 533.275 282.789 537.728C291.268 545.637 299.186 554.128 306.486 563.137C309.341 566.592 311.453 569.475 312.881 571.474C313.675 572.435 314.364 573.478 314.937 574.586Z" fill="white"/>
<path d="M542.679 660.835C542.679 660.835 542.308 661.177 541.565 661.691C540.823 662.205 539.71 663.033 538.168 663.889C533.882 666.403 529.382 668.533 524.721 670.256C509.281 676.087 492.506 677.425 476.337 674.115C460.169 670.806 445.268 662.984 433.361 651.556C429.751 648.165 426.463 644.447 423.54 640.45C422.484 639.051 421.798 637.88 421.285 637.11C420.771 636.339 420.542 635.91 420.599 635.882C421.808 637.228 422.942 638.638 423.997 640.107C427.083 643.915 430.452 647.485 434.075 650.785C445.992 661.799 460.696 669.343 476.593 672.599C492.491 675.855 508.976 674.699 524.264 669.257C528.894 667.652 533.39 665.685 537.711 663.375C539.32 662.439 540.978 661.59 542.679 660.835Z" fill="white"/>
<path d="M625.845 841.613C625.845 841.613 625.559 841.185 625.045 840.271C624.531 839.357 623.732 838.044 622.761 836.331C619.897 831.254 616.632 826.414 612.997 821.856L609.114 817.288L607.03 814.804L604.604 812.435L599.465 807.353L593.469 802.385C583.894 794.777 573.329 788.505 562.064 783.742C548.466 777.991 533.98 774.621 519.239 773.778C502.272 772.868 485.306 775.594 469.477 781.772C452.775 788.339 436.644 798.246 419.572 807.838C410.925 812.834 401.971 817.278 392.763 821.143C383.221 825.161 373.157 827.804 362.871 828.994C352.579 830.03 342.188 829.403 332.095 827.138C322.325 824.989 312.819 821.782 303.745 817.574C286.746 809.349 270.57 799.522 255.438 788.225C240.792 777.804 226.888 767.726 213.156 759.675C200.53 751.943 186.844 746.095 172.529 742.316C160.668 739.396 148.385 738.584 136.242 739.918C127.075 740.87 118.151 743.451 109.891 747.541C104.723 750.188 99.9242 753.499 95.6157 757.391L92.3039 760.474C91.5901 761.188 91.1904 761.53 91.1904 761.53C91.1904 761.53 91.5045 761.131 92.2182 760.36L95.3302 757.019C99.6121 753.016 104.414 749.607 109.605 746.884C117.905 742.66 126.9 739.972 136.157 738.947C148.4 737.511 160.802 738.255 172.786 741.146C187.215 744.904 201.024 750.732 213.784 758.447C227.688 766.498 241.563 776.548 256.237 786.997C271.313 798.208 287.421 807.958 304.344 816.118C313.311 820.323 322.713 823.53 332.38 825.682C342.334 827.907 352.58 828.524 362.729 827.509C372.854 826.335 382.763 823.74 392.164 819.801C401.313 815.951 410.218 811.546 418.829 806.611C435.959 797.046 452.061 787.111 468.906 780.516C473.061 778.884 477.314 777.511 481.639 776.405C483.78 775.862 485.893 775.206 488.006 774.778L494.401 773.721C502.62 772.497 510.943 772.114 519.239 772.579C534.157 773.468 548.809 776.926 562.55 782.8C573.822 787.679 584.386 794.055 593.954 801.757C596.01 803.499 598.009 805.212 599.95 806.811L605.06 811.978L607.458 814.376C608.172 815.233 608.886 816.061 609.543 816.889C610.913 818.516 612.198 820.058 613.397 821.542C617.003 826.148 620.203 831.058 622.961 836.217C623.894 837.968 624.608 839.31 625.102 840.242C625.645 841.128 625.845 841.613 625.845 841.613Z" fill="white"/>
<path d="M539.567 960.866C539.1 961.053 538.611 961.178 538.111 961.237L533.886 962.036C531.668 962.484 529.428 962.818 527.176 963.035C524.55 963.292 521.466 963.721 518.212 963.806L512.959 964.035C511.16 964.035 509.247 964.035 507.249 964.035C503.337 964.035 499.14 963.663 494.744 963.321C485.215 962.279 475.789 960.446 466.565 957.839C457.385 955.075 448.447 951.562 439.842 947.333C435.959 945.249 432.219 943.336 428.908 941.195C427.252 940.167 425.596 939.225 424.083 938.34L419.8 935.342C416.945 933.486 414.747 931.516 412.663 929.86C410.862 928.48 409.136 927.003 407.495 925.435C406.268 924.236 405.211 923.265 404.383 922.58C403.996 922.253 403.651 921.879 403.355 921.467C403.798 921.713 404.21 922.01 404.583 922.352L407.895 925.207C409.294 926.406 411.035 927.862 413.177 929.404C415.318 930.945 417.602 932.887 420.4 934.685L424.711 937.54C426.224 938.54 427.88 939.453 429.536 940.395C432.848 942.479 436.588 944.335 440.47 946.362C457.545 954.779 475.962 960.142 494.886 962.207C499.255 962.579 503.451 963.035 507.306 963.064C509.247 963.064 511.131 963.235 513.016 963.064H518.212C521.524 963.064 524.521 962.693 527.148 962.522C529.774 962.35 532.03 962.065 533.857 961.779L538.111 961.265C538.574 961.061 539.065 960.926 539.567 960.866Z" fill="white"/>
<path d="M1701.89 735.95L1796.96 726.671L1806.81 827.424L1711.74 836.731L1728.1 1004.15L1603.05 1016.4L1586.78 848.979L1263.71 880.555L1253.12 804.241L1525.34 264.391L1654.53 251.743L1701.89 735.95ZM1374.77 767.954L1576.81 748.198L1546.95 442.714L1543.75 442L1535.59 465.239L1374.77 767.954Z" fill="#087F63"/>
<g opacity="0.4">
<path d="M1701.89 735.95L1796.96 726.671L1806.81 827.424L1711.74 836.731L1728.1 1004.15L1603.05 1016.4L1586.78 848.979L1263.71 880.555L1253.12 804.241L1525.34 264.391L1654.53 251.743L1701.89 735.95ZM1374.77 767.954L1576.81 748.198L1546.95 442.714L1543.75 442L1535.59 465.239L1374.77 767.954Z" fill="black"/>
</g>
<path d="M1781.4 728.184L1876.47 718.877L1886.35 819.658L1791.25 828.994L1807.64 996.439L1682.56 1008.66L1666.2 841.242L1343.22 872.761L1332.68 796.475L1604.91 256.625L1734.1 243.978L1781.4 728.184ZM1454.31 760.16L1656.35 740.489L1626.49 435.005L1623.26 434.263L1615.13 457.502L1454.31 760.16Z" fill="#087F63"/>
<path d="M1336.28 810.75C1335.41 811.561 1334.45 812.279 1333.43 812.891C1331.57 814.205 1328.83 816.032 1325.43 818.259C1318.61 822.712 1309.13 828.708 1298.48 835.103C1287.83 841.498 1278.1 847.066 1270.96 850.977C1267.42 852.918 1264.51 854.489 1262.39 855.516C1261.37 856.12 1260.29 856.618 1259.17 857.001C1260.04 856.222 1260.99 855.551 1262.02 855.002L1270.27 850.063L1297.57 833.818L1324.69 817.374L1332.94 812.406C1333.99 811.726 1335.11 811.17 1336.28 810.75Z" fill="#087F63"/>
<path d="M1370.26 719.562C1369.02 720.615 1367.7 721.57 1366.32 722.417C1363.75 724.159 1359.95 726.643 1355.24 729.669C1345.82 735.693 1332.68 743.944 1318.12 752.509C1303.56 761.074 1290.14 769.097 1280.41 774.578C1275.56 777.433 1271.59 779.517 1268.82 780.973C1267.41 781.79 1265.95 782.506 1264.45 783.115C1265.74 782.121 1267.1 781.233 1268.53 780.459L1279.95 773.665L1317.44 751.253L1354.81 728.67L1366.23 721.846C1367.51 720.984 1368.86 720.221 1370.26 719.562Z" fill="#087F63"/>
<path d="M1415.71 636.11C1414.4 637.167 1413.02 638.122 1411.57 638.965C1408.71 640.735 1404.89 643.248 1399.95 646.303C1390.07 652.384 1376.31 660.578 1361.01 669.485C1345.7 678.393 1331.74 686.244 1321.55 691.954C1316.47 694.809 1312.33 696.95 1309.44 698.435C1307.98 699.263 1306.45 699.978 1304.88 700.576C1306.23 699.585 1307.67 698.697 1309.16 697.921L1321.04 691.04L1360.26 668.372L1399.4 645.532L1411.25 638.623C1412.67 637.673 1414.16 636.833 1415.71 636.11Z" fill="#087F63"/>
<path d="M1653.07 691.326C1652.2 692.123 1651.24 692.822 1650.22 693.41C1648.36 694.695 1645.59 696.465 1642.19 698.635C1635.34 702.975 1625.81 708.799 1615.13 715.023C1604.45 721.246 1594.63 726.614 1587.46 730.382C1583.89 732.295 1580.98 733.78 1578.9 734.779C1577.88 735.369 1576.8 735.847 1575.67 736.207C1576.55 735.46 1577.51 734.81 1578.53 734.265L1586.83 729.469L1614.21 713.709L1641.48 697.75L1649.79 692.925C1650.82 692.268 1651.92 691.732 1653.07 691.326Z" fill="#087F63"/>
<path d="M1665.98 847.894C1665.11 848.701 1664.15 849.401 1663.12 849.978C1661.32 851.234 1658.67 853.004 1655.36 855.174C1648.76 859.456 1639.54 865.252 1629.2 871.419C1618.87 877.585 1609.36 882.839 1602.42 886.664C1598.97 888.549 1596.14 890.033 1594.17 891.033C1593.19 891.624 1592.13 892.093 1591.03 892.431C1591.91 891.695 1592.87 891.054 1593.89 890.519L1601.91 885.751L1628.43 870.134L1654.81 854.26L1662.84 849.492C1663.81 848.835 1664.87 848.298 1665.98 847.894Z" fill="#087F63"/>
<path d="M1672.43 902.51C1671.56 903.317 1670.61 904.017 1669.57 904.594C1667.77 905.85 1665.12 907.62 1661.81 909.79C1655.21 914.072 1645.99 919.868 1635.66 926.006C1625.32 932.145 1615.81 937.426 1608.88 941.281C1605.42 943.165 1602.59 944.649 1600.62 945.649C1599.64 946.24 1598.58 946.71 1597.48 947.048C1598.37 946.311 1599.32 945.67 1600.34 945.135L1608.36 940.367L1634.88 924.75L1661.26 908.876L1669.29 904.109C1670.27 903.451 1671.32 902.914 1672.43 902.51Z" fill="#087F63"/>
<path d="M1678.82 957.126C1677.96 957.934 1677 958.633 1675.97 959.21C1674.17 960.466 1671.51 962.236 1668.2 964.378C1661.61 968.689 1652.39 974.484 1642.05 980.623C1631.72 986.761 1622.21 992.042 1615.27 995.897C1611.82 997.781 1608.99 999.266 1607.02 1000.26C1606.02 1000.84 1604.97 1001.31 1603.88 1001.66C1604.76 1000.93 1605.72 1000.29 1606.73 999.751L1614.76 994.983L1641.28 979.366L1667.66 963.493L1675.68 958.725C1676.66 958.067 1677.72 957.531 1678.82 957.126Z" fill="#087F63"/>
<path d="M1646.36 633.599C1645.48 634.398 1644.53 635.106 1643.51 635.711C1641.62 636.967 1638.88 638.766 1635.46 640.936C1628.6 645.247 1619.07 651.1 1608.39 657.295C1597.71 663.49 1587.89 668.886 1580.75 672.683C1577.16 674.568 1574.24 676.081 1572.19 677.08C1571.17 677.67 1570.09 678.148 1568.96 678.508C1569.85 677.768 1570.8 677.118 1571.82 676.566L1580.1 671.77L1607.51 656.01L1634.77 640.022L1643.05 635.226C1644.09 634.568 1645.2 634.023 1646.36 633.599Z" fill="#087F63"/>
<path d="M1639.65 575.898C1638.78 576.708 1637.83 577.416 1636.8 578.011C1634.91 579.267 1632.17 581.037 1628.75 583.207C1621.92 587.547 1612.39 593.399 1601.68 599.595C1590.98 605.79 1581.21 611.186 1574.05 614.983C1570.48 616.868 1567.56 618.381 1565.48 619.38C1564.47 619.98 1563.38 620.45 1562.25 620.779C1563.13 620.037 1564.09 619.396 1565.11 618.866L1573.39 614.041L1600.8 598.31L1628.06 582.322L1636.34 577.497C1637.39 576.853 1638.5 576.317 1639.65 575.898Z" fill="#087F63"/>
<path d="M1632.97 518.199C1632.16 518.966 1631.26 519.637 1630.29 520.198C1628.49 521.425 1625.86 523.053 1622.61 525.194C1616.13 529.334 1607.05 534.901 1596.91 540.811C1586.78 546.721 1577.39 551.86 1570.56 555.457L1562.43 559.625C1561.45 560.184 1560.42 560.634 1559.34 560.967C1560.23 560.254 1561.19 559.632 1562.2 559.111L1570.08 554.515L1596.2 539.526L1622.15 524.28L1630.06 519.712C1630.97 519.102 1631.95 518.594 1632.97 518.199Z" fill="#087F63"/>
<path d="M1631.83 463.555C1627.66 466.66 1623.21 469.356 1618.53 471.606C1614.07 474.282 1609.38 476.547 1604.51 478.372C1608.67 475.267 1613.13 472.571 1617.81 470.321C1622.27 467.639 1626.96 465.374 1631.83 463.555Z" fill="#087F63"/>
<path d="M1460.64 549.89C1459.35 550.952 1457.98 551.907 1456.53 552.745C1453.68 554.515 1449.82 557.027 1444.88 560.082C1435.03 566.163 1421.27 574.357 1405.97 583.264C1390.67 592.172 1376.71 600.023 1366.51 605.562C1361.43 608.417 1357.26 610.558 1354.38 612.043C1352.92 612.86 1351.4 613.575 1349.84 614.184C1351.19 613.184 1352.63 612.296 1354.12 611.529L1366 604.648L1405.23 581.98L1444.34 559.14L1456.22 552.231C1457.64 551.345 1459.11 550.562 1460.64 549.89Z" fill="#087F63"/>
<path d="M1505.61 463.555C1504.31 464.612 1502.92 465.566 1501.47 466.41C1498.62 468.18 1494.79 470.692 1489.85 473.747C1479.97 479.828 1466.21 488.022 1450.94 496.93C1435.66 505.837 1421.65 513.688 1411.45 519.227C1406.37 522.082 1402.23 524.223 1399.35 525.708C1397.88 526.536 1396.35 527.252 1394.78 527.849C1396.14 526.858 1397.57 525.97 1399.06 525.194L1410.94 518.313L1450.17 495.645L1489.31 472.805L1501.19 465.896C1502.6 465.003 1504.08 464.22 1505.61 463.555Z" fill="#087F63"/>
<path d="M1546.32 378.048C1545.02 379.105 1543.63 380.059 1542.18 380.903C1539.33 382.673 1535.5 385.185 1530.56 388.24C1520.69 394.321 1506.92 402.515 1491.62 411.423C1476.32 420.33 1462.36 428.182 1452.17 433.72C1447.08 436.575 1442.94 438.716 1440.06 440.201C1438.59 441.022 1437.06 441.738 1435.49 442.342C1436.85 441.351 1438.28 440.463 1439.77 439.687L1451.65 432.807L1490.88 410.138L1530.02 387.298L1541.87 380.389C1543.29 379.491 1544.78 378.709 1546.32 378.048Z" fill="#087F63"/>
<path d="M1589.63 295.11C1588.33 296.167 1586.95 297.122 1585.49 297.965C1582.78 299.735 1578.81 302.248 1573.87 305.303C1564 311.384 1550.23 319.578 1534.93 328.514C1519.63 337.45 1505.67 345.244 1495.48 350.811C1490.39 353.666 1486.25 355.779 1483.37 357.264C1481.9 358.1 1480.38 358.825 1478.8 359.433C1480.15 358.412 1481.58 357.514 1483.09 356.75L1494.96 349.898L1534.19 327.058L1573.33 304.218L1585.18 297.309C1586.61 296.467 1588.1 295.732 1589.63 295.11Z" fill="#087F63"/>
<path d="M1748.97 389.782C1748.58 390.517 1748.12 391.214 1747.6 391.866C1746.25 393.864 1744.77 395.771 1743.17 397.576C1737.4 404.294 1730.66 410.124 1723.19 414.878C1712.08 421.967 1699.65 426.727 1686.65 428.867C1678.97 430.095 1671.17 430.315 1663.43 429.524C1655.16 428.612 1647.01 426.822 1639.11 424.185C1622.84 418.96 1608.1 412.137 1594.03 407.911C1581.65 403.931 1568.61 402.465 1555.66 403.6C1546.92 404.397 1538.5 407.244 1531.08 411.908C1529.07 413.22 1527.16 414.68 1525.37 416.277C1524.79 416.878 1524.16 417.423 1523.48 417.904C1523.99 417.247 1524.55 416.636 1525.17 416.077C1526.86 414.363 1528.7 412.806 1530.68 411.423C1538.09 406.501 1546.6 403.463 1555.46 402.573C1568.59 401.194 1581.86 402.515 1594.46 406.455C1608.73 410.652 1623.46 417.419 1639.57 422.643C1647.38 425.235 1655.43 427.014 1663.61 427.953C1671.21 428.731 1678.89 428.53 1686.45 427.354C1699.28 425.312 1711.58 420.72 1722.62 413.85C1730.02 409.203 1736.75 403.554 1742.6 397.062C1744.23 395.319 1745.77 393.489 1747.2 391.581C1747.75 390.94 1748.34 390.339 1748.97 389.782Z" fill="white"/>
<path d="M1689.76 255.626C1688.74 256.59 1687.65 257.459 1686.47 258.224C1684.3 259.851 1681.05 261.993 1676.91 264.476C1672.05 267.386 1667.04 270.026 1661.89 272.385C1655.57 275.242 1649.09 277.73 1642.48 279.836C1635.84 281.878 1629.09 283.527 1622.27 284.775C1616.69 285.752 1611.07 286.438 1605.42 286.831C1600.6 287.145 1596.69 287.202 1594 287.117C1592.6 287.176 1591.19 287.09 1589.8 286.86C1591.18 286.625 1592.58 286.519 1593.97 286.546C1596.66 286.546 1600.54 286.203 1605.39 285.775C1610.25 285.346 1615.84 284.576 1622.07 283.434C1628.81 282.108 1635.48 280.44 1642.05 278.437C1648.61 276.347 1655.05 273.907 1661.35 271.129C1667.06 268.531 1672.23 265.961 1676.4 263.563C1680.56 261.165 1683.91 259.195 1686.16 257.853C1687.29 257.007 1688.5 256.262 1689.76 255.626Z" fill="white"/>
<path d="M1533.68 598.054C1532.65 597.302 1531.7 596.461 1530.82 595.541L1523 588.546C1514.33 580.934 1505.26 573.796 1495.82 567.163C1490.68 563.471 1485.16 560.351 1479.34 557.855C1474.61 555.867 1469.57 554.699 1464.44 554.401C1459.69 554.203 1454.95 554.84 1450.42 556.285C1450.42 556.285 1450.71 556.057 1451.31 555.771C1452.18 555.36 1453.07 555.016 1453.99 554.743C1457.39 553.694 1460.94 553.221 1464.5 553.344C1469.77 553.51 1474.97 554.612 1479.86 556.599C1485.8 559.052 1491.43 562.185 1496.65 565.935C1506.16 572.581 1515.2 579.879 1523.71 587.776C1526.97 590.802 1529.42 593.486 1531.22 595.141C1532.15 596.016 1532.97 596.993 1533.68 598.054Z" fill="white"/>
<path d="M1771.27 651.442C1771.27 651.442 1770.98 651.813 1770.3 652.441C1769.61 653.07 1768.64 654.012 1767.24 655.068C1763.38 658.174 1759.24 660.917 1754.88 663.262C1740.42 671.164 1724.01 674.82 1707.56 673.81C1691.11 672.8 1675.28 667.164 1661.89 657.552C1657.85 654.7 1654.09 651.479 1650.64 647.931C1649.39 646.703 1648.53 645.647 1647.79 645.076C1647.45 644.739 1647.16 644.354 1646.93 643.934C1646.93 643.934 1648.36 645.247 1650.9 647.645C1654.47 650.991 1658.28 654.055 1662.32 656.81C1675.65 666.058 1691.27 671.479 1707.46 672.486C1723.66 673.492 1739.82 670.046 1754.19 662.52C1758.56 660.276 1762.74 657.699 1766.7 654.811C1768.16 653.604 1769.68 652.479 1771.27 651.442Z" fill="white"/>
<path d="M1879.07 818.688C1878.69 818.339 1878.33 817.967 1877.99 817.574C1877.3 816.746 1876.39 815.547 1875.13 814.005C1871.57 809.387 1867.66 805.053 1863.43 801.044L1858.92 797.047L1856.52 794.905L1853.66 792.878L1847.95 788.596L1841.3 784.513C1830.78 778.329 1819.46 773.604 1807.67 770.467C1793.38 766.651 1778.53 765.318 1763.79 766.527C1746.86 768.022 1730.45 773.113 1715.65 781.458C1700.04 790.309 1685.48 802.386 1669.97 814.291C1662.11 820.437 1653.87 826.091 1645.31 831.221C1636.4 836.54 1626.79 840.568 1616.76 843.183C1606.7 845.636 1596.32 846.474 1586.01 845.667C1576.02 844.844 1566.15 842.929 1556.57 839.957C1538.59 834.228 1521.2 826.78 1504.64 817.717C1488.65 809.437 1473.55 801.443 1458.76 795.419C1445.11 789.564 1430.69 785.718 1415.94 783.999C1403.78 782.819 1391.5 783.785 1379.68 786.854C1370.74 789.084 1362.27 792.893 1354.67 798.103C1349.9 801.465 1345.59 805.417 1341.82 809.866L1339.11 813.52C1338.48 814.348 1338.14 814.748 1338.14 814.748C1338.14 814.748 1338.39 814.291 1338.96 813.434L1341.59 809.694C1345.27 805.118 1349.55 801.065 1354.32 797.646C1361.93 792.278 1370.46 788.349 1379.48 786.055C1391.39 782.901 1403.78 781.886 1416.05 783.057C1430.87 784.762 1445.36 788.609 1459.07 794.477C1473.98 800.473 1489.14 808.467 1505.13 816.689C1521.62 825.674 1538.93 833.073 1556.83 838.787C1566.31 841.671 1576.07 843.518 1585.95 844.297C1596.11 845.102 1606.34 844.274 1616.24 841.842C1626.1 839.252 1635.55 835.283 1644.31 830.05C1652.83 824.965 1661.02 819.348 1668.83 813.235C1684.36 801.386 1699.01 789.281 1714.77 780.374C1718.66 778.177 1722.68 776.222 1726.82 774.521C1728.84 773.664 1730.81 772.751 1732.87 772.008L1739.03 770.067C1747 767.698 1755.19 766.139 1763.47 765.413C1778.37 764.214 1793.35 765.586 1807.78 769.467C1819.65 772.662 1831.02 777.464 1841.59 783.742L1848.24 787.882L1853.95 792.279L1856.8 794.306L1859.2 796.504L1863.68 800.558C1867.84 804.639 1871.66 809.05 1875.1 813.748C1876.25 815.347 1877.16 816.603 1877.79 817.431L1879.07 818.688Z" fill="white"/>
<path d="M1810.38 948.903C1809.94 949.138 1809.48 949.329 1809.01 949.474L1804.96 950.873C1802.82 951.619 1800.65 952.257 1798.45 952.786C1795.85 953.414 1792.97 954.27 1789.65 954.813L1784.51 955.784C1782.72 956.098 1780.83 956.269 1778.8 956.526C1774.92 957.097 1770.72 957.297 1766.3 957.582C1756.76 957.872 1747.21 957.385 1737.75 956.126C1728.27 954.689 1718.93 952.454 1709.83 949.446C1705.66 947.961 1701.69 946.59 1698.12 944.935C1696.32 944.135 1694.55 943.45 1692.93 942.651L1688.27 940.281C1685.25 938.825 1682.71 937.198 1680.42 935.856C1678.45 934.74 1676.55 933.52 1674.71 932.201L1671.2 929.717C1670.77 929.454 1670.38 929.138 1670.03 928.775C1670.51 928.94 1670.96 929.171 1671.37 929.461L1675.03 931.716C1676.57 932.715 1678.51 933.914 1680.74 935.142C1682.96 936.37 1685.59 937.997 1688.62 939.339L1693.3 941.594C1694.92 942.394 1696.7 943.05 1698.49 943.821C1702.06 945.391 1706 946.676 1710.14 948.161C1719.27 951.062 1728.62 953.22 1738.09 954.613C1747.51 955.886 1757 956.411 1766.5 956.183C1770.87 955.926 1775.06 955.812 1778.89 955.27C1780.8 955.041 1782.69 954.899 1784.6 954.613L1789.74 953.757C1793.02 953.3 1795.91 952.5 1798.5 951.958C1801.1 951.415 1803.27 950.816 1805.04 950.273L1809.18 949.16C1809.57 949.032 1809.97 948.945 1810.38 948.903Z" fill="white"/>
<path d="M1215.86 530.762L1195.87 527.621L1072.05 487.651L999.649 466.724C989.477 463.055 978.653 461.541 967.865 462.278C957.077 463.015 946.56 465.988 936.982 471.007C902.722 488.422 808.336 576.299 808.336 576.299L876.313 646.389L844.309 788.225C880.139 890.091 950.286 901.768 950.286 901.768C984.573 903.231 1018.79 897.573 1050.78 885.152C1115.9 860.399 1184.22 802.128 1192.79 777.09C1197.93 762.073 1202.18 730.497 1205.55 694.838L1308.67 652.812L1336.62 510.063L1215.86 530.762Z" fill="#455A64"/>
<path d="M1065.23 783.314C1065.23 783.314 1064.91 783.657 1064.23 784.199C1063.54 784.742 1062.54 785.57 1061.15 786.483C1057.25 789.108 1053.1 791.337 1048.75 793.136C1034.3 799.291 1018.3 800.801 1002.95 797.456C987.607 794.11 973.681 786.075 963.105 774.464C959.885 771.007 957.015 767.239 954.54 763.215C953.655 761.816 953.112 760.646 952.684 759.875C952.46 759.496 952.278 759.094 952.142 758.676C953.179 760.024 954.133 761.435 954.997 762.901C957.607 766.757 960.549 770.378 963.79 773.722C974.358 784.937 988.067 792.698 1003.12 795.989C1018.17 799.28 1033.87 797.947 1048.15 792.165C1052.49 790.468 1056.66 788.395 1060.63 785.969C1063.66 784.171 1065.14 783.143 1065.23 783.314Z" fill="#263238"/>
<path d="M1026.06 493.561C1026.17 493.774 1026.25 494.006 1026.29 494.246C1026.43 494.788 1026.6 495.445 1026.8 496.273C1027.23 498.043 1027.83 500.698 1028.54 504.095C1030.65 513.711 1032.02 523.476 1032.62 533.302C1032.99 540.119 1032.6 546.956 1031.45 553.687C1030.07 561.449 1027.32 568.903 1023.32 575.699C1018.68 583.044 1012.98 589.655 1006.39 595.312C999.677 601.308 992.254 606.732 984.688 612.614C968.586 624.69 952.941 635.625 939.009 645.56C925.076 655.496 912.657 664.375 902.779 671.855L902.465 672.112L902.151 671.855C895.181 666.325 888.563 660.366 882.337 654.011C880.653 652.301 879.098 650.468 877.683 648.53C877.198 647.873 876.913 647.33 876.684 646.988C876.567 646.805 876.462 646.614 876.37 646.417C876.37 646.417 876.913 647.102 877.912 648.358C879.414 650.204 881.015 651.968 882.708 653.64C889.059 659.802 895.73 665.625 902.693 671.084H902.065C911.886 663.49 924.163 654.439 938.152 644.475C952.142 634.511 967.73 623.52 983.832 611.443C991.369 605.733 998.792 600.166 1005.44 594.313C1011.94 588.763 1017.58 582.278 1022.17 575.071C1026.13 568.446 1028.87 561.165 1030.25 553.572C1031.44 546.923 1031.89 540.164 1031.6 533.416C1031.09 523.637 1029.88 513.905 1028 504.295C1027.37 500.955 1026.89 498.328 1026.51 496.416C1026.36 495.597 1026.25 494.912 1026.17 494.36C1026.08 494.103 1026.05 493.832 1026.06 493.561Z" fill="#263238"/>
<path d="M1563.74 557.77C1592.72 532.903 1602.54 488.165 1586.58 453.477L1545.75 449.28C1556.03 443.618 1564.35 434.985 1569.63 424.51C1574.92 414.036 1576.91 402.209 1575.36 390.581C1564.06 402.27 1549.39 410.137 1533.41 413.08C1517.42 416.024 1500.91 413.897 1486.2 406.998C1467.13 397.576 1451.65 380.018 1430.7 376.335C1411.68 372.995 1392.98 382.045 1374.77 388.383C1356.55 394.721 1334.51 398.404 1319.44 386.327C1307.5 376.763 1303.79 360.004 1304.56 344.702C1305.33 329.399 1309.76 314.496 1310.7 299.222C1311.38 284.193 1308.78 269.197 1303.06 255.281C1297.34 241.365 1288.66 228.864 1277.61 218.654C1273.92 206.494 1267.32 195.414 1258.39 186.37C1249.46 177.325 1238.47 170.587 1226.36 166.735C1214.25 162.883 1201.38 162.034 1188.87 164.26C1176.36 166.485 1164.57 171.72 1154.53 179.512C1145.6 186.421 1138.06 195.357 1127.92 200.353C1116.5 206.063 1103.17 206.063 1090.81 208.918C1078.45 211.773 1065.4 220.167 1064.09 232.872L1059.09 258.881C1058.26 260.736 1057.38 262.564 1056.23 264.362C1045.73 282.805 1024.2 294.939 1019.49 315.752C1016.86 327.372 1020.12 339.962 1016.21 351.211C1011.04 366.028 995.052 374.365 987.658 388.155C977.437 407.112 984.375 440.315 1000.73 454.305C1017.09 468.294 1050.81 483.14 1071.88 487.622C1077.59 465.725 1082.64 442.314 1087.53 418.36C1096.09 426.611 1105.14 434.463 1114.11 442.257C1137.54 462.641 1161.5 483.34 1177.77 509.806C1208.69 560.139 1209.18 626.86 1248.15 671.227C1255.77 679.935 1265.05 687.672 1276.13 691.041C1287.2 694.41 1300.34 692.611 1308.53 684.446C1318.21 674.796 1319.46 658.522 1330.17 650.043C1344.45 638.766 1365.17 647.759 1380.45 657.552C1391.52 664.632 1402.6 672.112 1415.14 675.995C1427.67 679.878 1442.29 679.621 1452.96 671.969C1463.64 664.318 1468.32 647.987 1460.62 637.338C1457.53 633.084 1452.94 630.115 1449.88 625.918C1446.83 621.721 1445.94 614.869 1450.14 611.643C1454.33 608.417 1461.22 611.643 1466.21 614.498C1478.47 621.702 1492.18 626.085 1506.34 627.329C1520.5 628.573 1534.76 626.647 1548.09 621.69C1561.42 616.734 1573.47 608.871 1583.38 598.674C1593.28 588.476 1600.79 576.2 1605.36 562.737C1591.29 564.843 1576.92 563.128 1563.74 557.77Z" fill="#263238"/>
<path d="M1538.24 333.795C1539.55 334.745 1540.78 335.795 1541.93 336.936C1545.37 340.142 1548.27 343.894 1550.49 348.042C1552.04 351.064 1553.1 354.311 1553.63 357.663C1554.29 362.006 1553.68 366.446 1551.88 370.452C1550.07 374.457 1547.15 377.858 1543.47 380.246C1541.3 381.65 1538.84 382.539 1536.27 382.844C1533.56 383.132 1530.81 382.74 1528.28 381.702C1517.69 377.362 1512.35 365.115 1500.9 359.661C1489.74 353.752 1475.46 353.352 1461.76 356.492C1448.05 359.633 1434.66 367.084 1421.16 374.679C1407.66 382.273 1393.3 390.41 1376.76 393.236C1368.65 394.808 1360.3 394.75 1352.21 393.065C1348.24 392.159 1344.4 390.738 1340.79 388.84C1337.29 386.922 1334.06 384.54 1331.2 381.759C1325.76 376.225 1321.57 369.584 1318.92 362.288C1316.33 355.365 1314.62 348.141 1313.84 340.79C1312.33 326.515 1313.53 312.811 1313.67 300.163C1314.24 288.428 1313.08 276.672 1310.22 265.275C1308.85 260.355 1307.03 255.575 1304.76 251.001C1302.78 246.885 1300.46 242.942 1297.82 239.209C1293.65 233.206 1288.75 227.74 1283.24 222.936C1279.72 219.921 1275.99 217.172 1272.07 214.714L1268.96 212.858L1267.93 212.201C1268.32 212.345 1268.69 212.527 1269.05 212.744L1272.24 214.457C1282.62 220.6 1291.58 228.883 1298.51 238.753C1304.22 246.713 1308.52 255.598 1311.21 265.019C1314.19 276.493 1315.43 288.349 1314.9 300.192C1314.9 312.925 1313.67 326.515 1315.21 340.647C1315.99 347.87 1317.67 354.968 1320.21 361.774C1322.8 368.87 1326.89 375.326 1332.2 380.703C1334.95 383.4 1338.07 385.706 1341.45 387.555C1344.93 389.365 1348.62 390.736 1352.44 391.637C1360.35 393.255 1368.5 393.304 1376.42 391.78C1392.64 388.925 1406.86 380.96 1420.36 373.394C1433.86 365.828 1447.2 358.377 1461.36 355.151C1468.21 353.536 1475.26 352.94 1482.29 353.381C1485.65 353.616 1488.98 354.161 1492.25 355.008C1495.41 355.863 1498.48 357.06 1501.39 358.577C1513.23 364.287 1518.52 376.677 1528.59 380.703C1530.89 381.682 1533.4 382.079 1535.89 381.86C1538.38 381.641 1540.77 380.812 1542.87 379.447C1546.71 377.026 1549.7 373.475 1551.43 369.283C1552.94 365.676 1553.43 361.729 1552.86 357.863C1552.42 354.58 1551.46 351.389 1550.01 348.413C1547.89 344.296 1545.16 340.53 1541.9 337.25C1540.78 336.108 1539.9 335.28 1539.3 334.737C1538.7 334.195 1538.24 333.795 1538.24 333.795Z" fill="#263238"/>
<path d="M1071.59 498.586C1071.59 498.586 1071.59 498.157 1071.37 497.301C1071.22 496.034 1070.96 494.783 1070.6 493.561C1069.28 488.832 1066.89 484.473 1063.6 480.828C1058.3 475.145 1051.85 470.658 1044.67 467.666C1036.39 463.869 1026.11 461.956 1014.87 459.9C1003.62 457.845 990.856 455.39 979.379 447.738C973.006 443.434 967.653 437.786 963.696 431.192C959.739 424.597 957.274 417.217 956.474 409.568C955.674 401.919 956.559 394.188 959.066 386.918C961.573 379.648 965.641 373.015 970.985 367.484C982.805 355.351 999.535 349.327 1013.18 338.678C1016.53 335.994 1019.54 332.917 1022.15 329.513C1024.6 326.041 1026.45 322.18 1027.63 318.093C1029.91 309.985 1029.71 301.506 1030.48 293.255C1030.79 289.119 1031.56 285.031 1032.77 281.064C1034.03 277.135 1036.08 273.503 1038.79 270.386C1044.4 264.759 1051.47 260.805 1059.2 258.966C1066.54 256.825 1073.85 255.483 1080.73 253.599C1087.46 251.88 1093.83 248.98 1099.55 245.034C1104.82 241.301 1109.55 236.863 1113.62 231.844C1117.43 227.346 1120.99 222.637 1124.27 217.74C1130.58 208.204 1135.97 199.268 1141.71 192.045C1146.46 185.811 1152.07 180.275 1158.36 175.6C1162.36 172.666 1166.8 170.391 1171.52 168.863C1173.14 168.293 1174.82 167.872 1176.52 167.606C1176.52 167.606 1174.77 168.006 1171.61 169.148C1166.97 170.778 1162.62 173.119 1158.7 176.086C1152.52 180.788 1147.02 186.333 1142.37 192.559C1136.66 199.697 1131.41 208.604 1125.24 218.254C1122 223.325 1118.45 228.197 1114.62 232.843C1110.5 237.962 1105.69 242.496 1100.34 246.319C1094.52 250.275 1088.05 253.174 1081.22 254.884C1074.25 256.825 1066.94 258.167 1059.72 260.308C1052.24 262.059 1045.39 265.866 1039.96 271.3C1037.4 274.27 1035.45 277.727 1034.25 281.464C1033.08 285.329 1032.34 289.312 1032.05 293.34C1031.28 301.506 1031.51 310.042 1029.2 318.464C1027.98 322.68 1026.04 326.658 1023.49 330.227C1020.8 333.731 1017.69 336.894 1014.24 339.648C1007.25 344.797 999.911 349.462 992.283 353.609C985.013 357.624 978.295 362.566 972.298 368.312C967.09 373.698 963.122 380.157 960.673 387.237C958.224 394.317 957.352 401.847 958.119 409.299C958.886 416.752 961.273 423.947 965.113 430.379C968.953 436.812 974.153 442.328 980.349 446.539C991.484 454.048 1004.16 456.446 1015.32 458.701C1026.49 460.957 1036.91 462.813 1045.24 466.724C1052.49 469.808 1058.99 474.424 1064.29 480.257C1067.57 484.001 1069.92 488.473 1071.14 493.304C1071.47 494.547 1071.68 495.818 1071.77 497.101C1071.59 498.157 1071.59 498.586 1071.59 498.586Z" fill="#263238"/>
<path d="M1299.54 242.293C1298.79 242.219 1298.06 242.026 1297.37 241.722C1295.42 241.085 1293.51 240.322 1291.66 239.438C1279.3 233.617 1268.75 224.549 1261.14 213.201C1259.99 211.495 1258.96 209.722 1258.03 207.891C1257.62 207.249 1257.32 206.545 1257.14 205.807C1257.34 205.807 1258.97 208.433 1261.99 212.573C1269.92 223.403 1280.22 232.272 1292.11 238.496C1296.65 240.866 1299.65 242.065 1299.54 242.293Z" fill="#455A64"/>
<path d="M1394.47 437.033C1394.47 437.033 1392.67 436.576 1389.44 435.891C1384.87 434.925 1380.23 434.352 1375.57 434.178C1368.65 433.989 1361.73 434.19 1354.84 434.777C1347.02 435.32 1338.39 436.119 1329.29 435.919C1320.66 435.919 1312.11 434.312 1304.08 431.18C1297.55 428.455 1291.76 424.229 1287.17 418.846C1284.1 415.21 1281.88 410.926 1280.69 406.313C1280.38 405.067 1280.18 403.797 1280.09 402.516C1280.03 402.071 1280.03 401.619 1280.09 401.174C1280.27 401.174 1280.35 403.001 1281.26 406.17C1282.66 410.597 1284.96 414.682 1288.03 418.161C1292.59 423.314 1298.27 427.341 1304.65 429.924C1312.54 432.902 1320.91 434.431 1329.34 434.435C1338.34 434.634 1346.93 433.892 1354.78 433.407C1361.72 432.866 1368.7 432.77 1375.65 433.121C1380.37 433.396 1385.04 434.132 1389.61 435.32C1390.85 435.648 1392.07 436.039 1393.27 436.49C1393.69 436.606 1394.1 436.789 1394.47 437.033Z" fill="#455A64"/>
<path d="M1562.71 566.848C1562.71 566.848 1562.45 566.848 1561.88 567.219C1561.07 567.589 1560.22 567.867 1559.34 568.047C1555.95 568.77 1552.43 568.613 1549.12 567.59C1543.91 565.917 1539.2 562.974 1535.42 559.025C1530.61 553.619 1526.87 547.352 1524.4 540.554C1521.28 533.245 1518.69 524.851 1513.58 517.086C1511 513.064 1507.96 509.357 1504.53 506.037C1500.82 502.566 1496.77 499.495 1492.42 496.872C1474.49 486.052 1450.94 481.627 1426.76 483.054C1402.57 484.482 1379.82 489.05 1358.78 490.506C1340.12 492.504 1321.25 490.559 1303.39 484.796C1291.31 480.868 1280.39 474.001 1271.62 464.811C1270.26 463.379 1268.99 461.863 1267.82 460.271C1266.91 459.149 1266.09 457.956 1265.36 456.703C1264.79 455.76 1264.34 454.99 1263.96 454.419C1263.79 454.172 1263.64 453.903 1263.54 453.619C1263.54 453.619 1263.76 453.848 1264.11 454.333L1265.59 456.531C1266.37 457.735 1267.23 458.889 1268.16 459.986C1269.36 461.544 1270.66 463.022 1272.04 464.411C1280.88 473.315 1291.74 479.938 1303.71 483.711C1321.46 489.274 1340.17 491.102 1358.66 489.078C1379.59 487.536 1402.32 482.74 1426.67 481.484C1451.02 480.228 1474.78 484.539 1492.99 495.616C1497.41 498.306 1501.54 501.455 1505.3 505.009C1508.79 508.446 1511.88 512.279 1514.49 516.429C1519.66 524.394 1522.2 532.874 1525.25 540.154C1527.6 546.871 1531.21 553.081 1535.87 558.454C1539.53 562.357 1544.09 565.299 1549.15 567.019C1552.37 568.102 1555.8 568.347 1559.14 567.733C1561.57 567.333 1562.68 566.734 1562.71 566.848Z" fill="#455A64"/>
<path d="M1113.68 242.264C1108.33 242.131 1103.13 244.008 1099.1 247.523C1095.08 251.038 1092.51 255.936 1091.92 261.25L1068.82 501.669C1064.83 535.472 1109.05 607.96 1145.28 611.957C1181.85 615.983 1185.45 598.253 1190.19 566.277C1198.13 512.775 1200.78 492.618 1200.75 492.932C1200.73 493.246 1247.86 491.362 1265.33 432.464C1273.9 403.171 1278.98 353.923 1281.75 313.496C1284.23 277.095 1266.16 229.674 1229.68 228.731L1113.68 242.264Z" fill="#FFBE9D"/>
<path d="M1265.82 345.329C1265.58 347.365 1264.55 349.225 1262.94 350.499C1261.34 351.773 1259.29 352.357 1257.25 352.124C1256.26 352.074 1255.29 351.825 1254.4 351.394C1253.5 350.962 1252.7 350.357 1252.05 349.612C1251.39 348.867 1250.89 347.998 1250.57 347.057C1250.25 346.116 1250.13 345.121 1250.2 344.13C1250.45 342.098 1251.49 340.246 1253.09 338.97C1254.69 337.694 1256.73 337.097 1258.77 337.307C1259.76 337.357 1260.74 337.606 1261.63 338.04C1262.53 338.473 1263.33 339.081 1263.99 339.829C1264.65 340.577 1265.15 341.449 1265.46 342.394C1265.78 343.338 1265.9 344.337 1265.82 345.329Z" fill="#263238"/>
<path d="M1269.1 329.77C1268.19 330.855 1262.02 326.915 1253.66 327.515C1245.29 328.114 1239.38 332.711 1238.5 331.769C1238.04 331.34 1238.87 329.456 1241.35 327.315C1244.79 324.561 1249 322.935 1253.4 322.661C1257.74 322.337 1262.07 323.408 1265.76 325.716C1268.53 327.515 1269.53 329.37 1269.1 329.77Z" fill="#263238"/>
<path d="M1192.36 349.67C1191.36 350.669 1185.59 346.13 1177.23 345.93C1168.86 345.73 1162.61 349.727 1161.73 348.785C1161.3 348.299 1162.33 346.501 1165.07 344.645C1168.75 342.224 1173.11 341.016 1177.51 341.19C1181.86 341.301 1186.06 342.79 1189.51 345.444C1192.02 347.386 1192.79 349.356 1192.36 349.67Z" fill="#263238"/>
<path d="M1207.95 393.893C1207.95 393.407 1213.26 393.207 1221.77 393.236C1223.91 393.236 1225.96 393.236 1226.54 391.723C1227 389.561 1226.79 387.311 1225.94 385.271C1224.62 379.865 1223.24 374.155 1221.8 368.141C1216.09 344.016 1212.29 324.288 1213.23 324.06C1214.17 323.831 1219.6 343.245 1225.28 367.37C1226.65 373.308 1227.93 378.961 1229.16 384.5C1230.19 387.263 1230.19 390.301 1229.16 393.065C1228.76 393.769 1228.2 394.372 1227.52 394.827C1226.85 395.282 1226.08 395.578 1225.28 395.691C1224.06 395.848 1222.82 395.848 1221.6 395.691C1213.15 395.035 1207.92 394.35 1207.95 393.893Z" fill="#263238"/>
<path d="M1200.76 492.876C1172.36 489.566 1145.44 478.426 1123.01 460.7C1123.01 460.7 1137.89 504.724 1198.84 507.037L1200.76 492.876Z" fill="#EB996E"/>
<path d="M1193.53 335.366C1192.22 337.393 1184.31 334.423 1174.49 333.339C1164.67 332.254 1156.3 333.053 1155.5 330.769C1155.16 329.684 1156.99 327.914 1160.61 326.515C1165.37 324.797 1170.47 324.249 1175.49 324.916C1180.53 325.468 1185.36 327.21 1189.59 329.998C1192.79 332.225 1194.13 334.395 1193.53 335.366Z" fill="#263238"/>
<path d="M1267.85 318.55C1266.48 320.52 1260.62 318.864 1253.57 319.121C1246.52 319.378 1240.84 321.034 1239.3 319.121C1238.67 318.179 1239.5 316.266 1241.95 314.325C1245.27 311.916 1249.27 310.617 1253.37 310.613C1257.42 310.491 1261.41 311.618 1264.79 313.84C1267.56 315.667 1268.45 317.608 1267.85 318.55Z" fill="#263238"/>
<path d="M1187.74 409.053C1191.57 406.437 1196.27 405.413 1200.84 406.198C1203.17 406.521 1205.32 407.641 1206.92 409.368C1208.65 411.922 1209.41 415.01 1209.06 418.075C1209.08 419.925 1208.8 421.766 1208.24 423.528C1207.65 425.29 1206.4 426.755 1204.75 427.611C1202.92 428.272 1200.93 428.371 1199.04 427.896C1195.9 427.494 1192.89 426.402 1190.22 424.699C1188.89 423.847 1187.76 422.716 1186.92 421.385C1186.07 420.054 1185.52 418.555 1185.31 416.99C1185.13 415.417 1185.47 413.829 1186.27 412.461C1187.06 411.093 1188.28 410.018 1189.73 409.396" fill="#EB996E"/>
<path d="M1210.26 427.382C1209.66 427.611 1208.55 425.784 1206.55 423.3C1204.07 420.039 1200.95 417.311 1197.39 415.28C1193.83 413.25 1189.89 411.957 1185.82 411.48C1182.65 411.023 1180.54 410.995 1180.4 410.367C1180.26 409.739 1182.25 408.682 1185.88 408.311C1190.66 407.937 1195.45 409.011 1199.61 411.394C1203.79 413.752 1207.15 417.328 1209.23 421.644C1210.78 424.927 1210.8 427.211 1210.26 427.382Z" fill="#263238"/>
<path d="M1065.6 485.139C1085.44 481.17 1100.74 464.126 1107.57 445.169C1114.39 426.212 1114.02 405.342 1112.22 385.214C1112.27 383.911 1112.06 382.612 1111.59 381.395C1111.13 380.178 1110.42 379.068 1109.51 378.133C1106.51 375.821 1102.2 377.705 1098.95 379.675C1086.44 387.282 1074.45 395.713 1063.06 404.913C1052.44 413.478 1041.93 423.328 1037.85 436.318C1031.6 456.303 1044.82 480.142 1065.06 485.395" fill="#263238"/>
<path d="M1521.68 480.485L1428.13 330.085L1402.26 277.153C1402.26 277.153 1394.01 266.218 1385.44 256.883C1371.4 241.551 1357.49 253.457 1357.49 253.457C1356.72 251.647 1355.39 250.124 1353.71 249.101C1352.03 248.078 1350.07 247.604 1348.1 247.747C1345.58 247.745 1343.09 248.342 1340.84 249.488C1338.59 250.635 1336.65 252.298 1335.17 254.342C1335.17 254.342 1331.34 250.088 1320.72 249.431C1318.31 249.402 1315.95 250.164 1314.01 251.601C1310.53 248.546 1304.13 244.149 1298 246.376C1293.2 248.118 1264.11 270.244 1256.94 281.378C1253.4 286.888 1259.97 294.026 1268.82 290.686C1272.46 289.509 1276.01 288.068 1279.44 286.375C1282.12 284.865 1284.55 282.938 1286.63 280.665C1286.63 280.665 1279.3 293.512 1286.63 295.768C1289.04 296.249 1291.52 296.2 1293.9 295.623C1296.28 295.046 1298.51 293.955 1300.42 292.427C1303.28 290.086 1306.42 287.031 1309.47 284.033L1309.13 284.547C1305.08 290.543 1315.64 299.422 1320.75 295.825C1323.13 294.148 1325.4 292.337 1327.57 290.4C1339.45 298.965 1322.98 310.071 1316.01 309.5C1305.29 308.687 1294.53 308.687 1283.81 309.5C1277.75 309.985 1272.39 311.441 1269.07 314.782C1265.13 318.836 1269.27 327.344 1274.78 328.2C1285.03 329.799 1298.11 332.054 1311.7 335.566C1327.69 339.677 1369.57 353.296 1369.57 353.296L1373.65 356.607L1430.55 495.388L1333.14 516.03L1311.39 639.48L1487.25 591.744C1526.82 570.903 1545.69 518.171 1521.68 480.485Z" fill="#FFBE9D"/>
<path d="M1369.6 353.038C1368.84 352.928 1368.1 352.747 1367.37 352.495L1361.06 350.697L1337.91 343.816L1321.95 338.991C1316.24 337.221 1310.1 335.394 1303.59 333.738C1296.81 331.908 1289.93 330.488 1282.98 329.484C1279.16 329.418 1275.38 328.733 1271.79 327.457C1270.83 327.022 1269.97 326.39 1269.27 325.601C1268.89 325.146 1268.6 324.623 1268.42 324.06L1268.22 322.546C1267.92 320.525 1268.04 318.463 1268.59 316.494C1269.29 314.47 1270.74 312.794 1272.64 311.812C1274.38 310.913 1276.19 310.186 1278.07 309.642C1281.78 308.579 1285.63 308.107 1289.49 308.243C1296.91 308.243 1303.91 309.385 1310.59 309.099C1313.83 309.023 1317.07 308.708 1320.26 308.157C1323.38 307.586 1326.35 306.787 1329.26 306.045C1334.64 304.362 1340.27 303.637 1345.9 303.903C1350.53 304.346 1355.05 305.502 1359.32 307.329C1362.53 308.668 1365.66 310.203 1368.69 311.926C1371.17 313.325 1373.05 314.495 1374.39 315.266C1375.05 315.647 1375.68 316.076 1376.28 316.551C1375.56 316.277 1374.87 315.932 1374.22 315.523L1368.51 312.44C1365.47 310.818 1362.33 309.369 1359.12 308.1C1354.91 306.386 1350.46 305.327 1345.93 304.96C1340.43 304.76 1334.93 305.523 1329.69 307.215C1326.83 307.986 1323.8 308.843 1320.64 309.442C1317.36 310.036 1314.05 310.38 1310.73 310.47C1303.93 310.784 1296.85 309.785 1289.6 309.699C1285.94 309.588 1282.28 310.041 1278.75 311.041C1275.27 312.183 1271.3 313.41 1270.19 316.951C1269.72 318.72 1269.62 320.564 1269.87 322.375L1270.07 323.688C1270.18 324.042 1270.36 324.365 1270.62 324.631C1271.19 325.258 1271.88 325.772 1272.64 326.144C1276.09 327.317 1279.71 327.953 1283.35 328.028C1290.36 329.069 1297.3 330.538 1304.13 332.425C1310.67 334.109 1316.78 335.994 1322.49 337.821L1338.42 342.817L1361.43 350.154L1367.66 352.21C1368.33 352.427 1368.98 352.704 1369.6 353.038Z" fill="#EB996E"/>
<path d="M1297.45 246.575C1297.62 246.804 1293.06 249.43 1286.32 254.541C1282.39 257.537 1278.65 260.78 1275.13 264.248C1271.13 268.13 1266.93 272.813 1261.97 276.952C1259.48 278.653 1257.63 281.134 1256.71 284.004C1256.36 285.269 1256.52 286.621 1257.16 287.766C1257.81 288.91 1258.88 289.755 1260.14 290.114C1262.6 290.801 1265.19 290.851 1267.68 290.257C1269.92 289.84 1272.12 289.209 1274.24 288.372C1278.41 286.6 1282.31 284.235 1285.8 281.349C1285.1 282.381 1284.24 283.288 1283.23 284.033C1280.65 286.217 1277.77 288.015 1274.67 289.372C1272.51 290.291 1270.26 290.999 1267.96 291.484C1265.26 292.183 1262.43 292.183 1259.74 291.484C1258.13 291.037 1256.76 289.973 1255.94 288.525C1255.11 287.076 1254.88 285.36 1255.31 283.747C1256.29 280.559 1258.3 277.786 1261.02 275.867C1265.91 271.699 1270.1 267.302 1274.21 263.305C1277.78 259.85 1281.6 256.663 1285.63 253.77C1289.12 251.286 1292.06 249.516 1294.2 248.317C1295.22 247.634 1296.31 247.051 1297.45 246.575Z" fill="#EB996E"/>
<path d="M1333.17 258.338C1332.15 259.713 1331.05 261.019 1329.86 262.25L1320.46 272.585L1306.39 287.802C1303.58 290.888 1300.23 293.441 1296.51 295.339C1294.47 296.365 1292.23 296.922 1289.94 296.966C1288.73 296.987 1287.52 296.765 1286.4 296.314C1285.27 295.863 1284.24 295.192 1283.38 294.34C1282.49 293.35 1281.95 292.097 1281.84 290.771C1281.74 289.541 1281.87 288.303 1282.21 287.117C1282.86 284.878 1283.88 282.764 1285.23 280.864C1290.29 275.525 1294.97 270.501 1299.17 265.876C1303.36 261.25 1307.56 257.625 1310.93 254.456C1312.38 252.942 1314.02 251.626 1315.81 250.544C1317.26 249.903 1318.82 249.553 1320.41 249.516C1322.95 249.345 1324.43 249.516 1324.29 249.859C1323.01 249.706 1321.72 249.764 1320.46 250.03C1318.97 250.158 1317.51 250.545 1316.15 251.172C1314.47 252.312 1312.93 253.644 1311.56 255.141C1308.3 258.395 1304.28 262.164 1300.14 266.732C1296 271.3 1291.34 276.496 1286.32 281.892C1285.07 283.63 1284.1 285.558 1283.46 287.602C1283.17 288.621 1283.05 289.684 1283.12 290.743C1283.24 291.747 1283.66 292.693 1284.32 293.455C1285.79 294.863 1287.76 295.632 1289.8 295.596C1291.86 295.557 1293.87 295.059 1295.71 294.14C1299.28 292.334 1302.5 289.907 1305.22 286.974L1319.49 271.985L1329.23 261.993L1331.94 259.309C1332.7 258.624 1333.11 258.3 1333.17 258.338Z" fill="#EB996E"/>
<path d="M1376.91 272.099C1376.91 272.099 1376.91 272.984 1375.77 273.784C1375.1 274.302 1374.34 274.675 1373.52 274.881C1372.7 275.086 1371.85 275.119 1371.02 274.976C1370.19 274.834 1369.4 274.52 1368.7 274.054C1367.99 273.588 1367.4 272.98 1366.94 272.271C1366.29 271.186 1366.29 270.358 1366.46 270.329C1366.63 270.301 1367.03 270.872 1367.77 271.614C1368.72 272.58 1369.93 273.237 1371.25 273.498C1372.6 273.697 1373.97 273.488 1375.19 272.899C1376.17 272.442 1376.74 271.956 1376.91 272.099Z" fill="#EB996E"/>
<path d="M1380.33 285.203C1380.02 285.46 1377.88 283.319 1375.99 280.093C1374.62 278.279 1373.8 276.109 1373.62 273.841C1374 273.698 1375.42 276.267 1377.28 279.351C1378.58 281.139 1379.61 283.112 1380.33 285.203Z" fill="#EB996E"/>
<path d="M1386.64 336.251C1385.39 334.448 1384.48 332.437 1383.93 330.312C1382.3 325.27 1381.51 319.994 1381.59 314.696C1381.7 309.398 1382.66 304.153 1384.45 299.164C1385.04 297.049 1386 295.056 1387.3 293.283C1384.89 300.194 1383.5 307.415 1383.16 314.724C1383.27 322.031 1384.44 329.283 1386.64 336.251Z" fill="#EB996E"/>
<path d="M1463.5 534.073C1463.21 534.073 1462.93 531.047 1461.44 526.393C1460.56 523.681 1459.43 521.054 1458.07 518.542C1454.71 512.411 1450.03 507.099 1444.37 502.982C1442.06 501.304 1439.61 499.842 1437.03 498.614C1432.64 496.53 1429.64 495.759 1429.7 495.588C1430.42 495.559 1431.15 495.656 1431.84 495.873C1433.79 496.29 1435.7 496.883 1437.55 497.644C1440.26 498.78 1442.84 500.196 1445.26 501.869C1451.2 505.977 1456.05 511.488 1459.36 517.914C1460.71 520.523 1461.77 523.27 1462.53 526.108C1463.05 527.975 1463.41 529.886 1463.58 531.818C1463.68 532.569 1463.65 533.331 1463.5 534.073Z" fill="#EB996E"/>
<path d="M1136.95 809.009C1128.89 807.603 1120.61 808.658 1113.16 812.036C1100.46 806.326 1084.78 816.118 1084.78 816.118C1080.19 813.92 1052.49 832.021 1052.49 832.021L1018.01 848.294L833.774 711.397L885.991 657.152L812.818 581.01L727.168 669.229C716.676 680.583 710.599 695.32 710.038 710.769C709.215 727.215 713.216 743.544 721.55 757.746C729.884 771.949 742.187 783.406 756.946 790.709L973.925 902.054C990.592 901.126 1007.13 898.553 1023.29 894.374C1042.02 889.492 1074.02 875.274 1074.02 875.274C1074.02 875.274 1074.02 876.244 1079.73 887.35C1090.04 907.335 1105.14 885.752 1105.14 885.752C1106.64 889.262 1108.62 892.547 1111.02 895.516C1124.07 908.163 1133.12 891.176 1133.12 891.176C1133.12 891.176 1137.03 898 1148.68 892.918C1160.33 887.836 1146.99 852.776 1146.99 852.776C1146.99 852.776 1150.91 860.399 1158.41 850.749C1165.92 841.099 1149.42 811.636 1136.95 809.009Z" fill="#FFBE9D"/>
<path d="M1110.88 813.833C1111.59 813.334 1112.42 813.011 1113.28 812.891C1115.59 812.386 1118 812.464 1120.27 813.12C1123.62 814.073 1126.76 815.673 1129.49 817.83C1131.14 819.056 1132.68 820.422 1134.09 821.913C1135.51 823.666 1136.72 825.583 1137.69 827.623C1141.07 834.432 1143.89 841.508 1146.11 848.778C1146.97 851.633 1147.54 853.832 1147.91 855.431C1148.17 856.241 1148.3 857.091 1148.28 857.943C1148.08 857.943 1147.05 854.546 1145.11 849.093C1142.59 841.992 1139.67 835.042 1136.35 828.28C1135.45 826.386 1134.31 824.612 1132.98 822.998C1131.65 821.564 1130.21 820.237 1128.67 819.029C1126.11 816.944 1123.21 815.321 1120.1 814.233C1117.11 813.348 1113.94 813.211 1110.88 813.833Z" fill="#EB996E"/>
<path d="M1133.06 891.261C1132.41 890.268 1131.86 889.205 1131.44 888.092L1127.41 879.356C1124.01 871.961 1119.05 861.855 1114.31 850.349C1112.4 844.878 1109.88 839.639 1106.8 834.732C1104.14 830.882 1100.47 827.831 1096.21 825.91C1093.37 824.538 1090.21 823.974 1087.07 824.283C1084.84 824.568 1083.7 825.168 1083.64 825.025C1083.59 824.882 1083.9 824.825 1084.44 824.54C1085.24 824.143 1086.08 823.864 1086.96 823.712C1090.23 823.152 1093.6 823.58 1096.63 824.94C1101.16 826.83 1105.07 829.956 1107.91 833.961C1111.12 838.907 1113.72 844.216 1115.68 849.778C1120.39 861.198 1125.21 871.419 1128.38 878.927C1129.95 882.667 1131.24 885.751 1131.98 887.864C1132.46 888.953 1132.83 890.092 1133.06 891.261Z" fill="#EB996E"/>
<path d="M1048.5 847.209C1049.39 846.571 1050.35 846.025 1051.35 845.581L1059.58 841.613C1061.35 840.785 1063.2 839.871 1065.29 838.958C1067.63 838.023 1070.16 837.651 1072.68 837.873C1075.48 838.098 1078.17 839.085 1080.45 840.728C1082.74 842.607 1084.68 844.89 1086.16 847.465C1087.73 850.035 1089.01 852.69 1090.15 855.145C1091.29 857.601 1092.64 859.97 1093.89 862.197C1096.38 866.622 1098.72 870.591 1100.43 874.074C1101.84 876.794 1103.06 879.608 1104.08 882.496C1104.54 883.523 1104.85 884.609 1105 885.722C1104.77 885.722 1103.23 881.297 1099.52 874.559C1097.66 871.19 1095.26 867.308 1092.69 862.882C1091.41 860.655 1090.12 858.286 1088.87 855.802C1087.61 853.318 1086.41 850.72 1084.9 848.236C1083.52 845.827 1081.73 843.674 1079.62 841.87C1077.58 840.313 1075.17 839.328 1072.62 839.015C1070.31 838.765 1067.98 839.059 1065.8 839.871C1063.74 840.699 1061.77 841.613 1060.09 842.326L1051.67 846.124C1050.66 846.612 1049.59 846.976 1048.5 847.209Z" fill="#EB996E"/>
<path d="M1052.49 832.049C1051.73 832.683 1050.89 833.211 1049.98 833.619C1048.33 834.561 1045.9 835.874 1042.87 837.473C1036.85 840.671 1028.46 845.01 1019.15 849.693C1009.84 854.375 1001.39 858.543 995.223 861.512L987.915 864.938C987.014 865.416 986.054 865.772 985.06 865.995C985.839 865.361 986.692 864.824 987.601 864.396C989.256 863.482 991.683 862.169 994.709 860.57C1000.73 857.373 1009.13 853.062 1018.43 848.351C1027.74 843.64 1036.19 839.5 1042.33 836.56C1045.41 835.075 1048.04 833.905 1049.67 833.105C1050.55 832.618 1051.51 832.262 1052.49 832.049Z" fill="#EB996E"/>
<path d="M836.23 711.739C829.031 710.652 821.729 710.413 814.475 711.026C807.273 712.11 800.222 714.027 793.462 716.736C795.179 715.368 797.108 714.288 799.172 713.538C803.995 711.466 809.091 710.101 814.303 709.484C819.53 708.868 824.817 709.002 830.006 709.884C832.167 710.161 834.269 710.788 836.23 711.739Z" fill="#EB996E"/>
<path d="M1243.09 217.197C1197.46 216.544 1151.92 221.337 1107.42 231.472C1097.12 233.842 1086.21 236.868 1079.25 244.805C1071.85 253.199 1070.68 265.161 1069.6 276.21C1068.42 289.781 1067.24 303.342 1066.06 316.894C1064.1 320.251 1061.93 323.484 1059.58 326.572C1048.84 340.59 1035.16 352.267 1025.32 366.999C1015.47 381.731 1010.16 401.259 1018.09 417.018C1022.92 426.554 1031.82 433.292 1038.33 441.743C1049.38 456.017 1052.98 474.603 1059.43 491.534C1065.88 508.464 1077.53 525.793 1095.32 529.105C1103.88 530.733 1112.62 528.934 1121.16 530.19C1133.92 532.046 1144.65 540.411 1154.79 548.376C1164.92 556.342 1175.94 564.45 1188.79 565.735C1201.64 567.02 1216.34 558.312 1216.6 545.407C1211.84 548.093 1206.43 549.432 1200.96 549.281C1195.5 549.13 1190.17 547.495 1185.57 544.551C1178.09 539.612 1173.26 531.618 1166.84 525.394C1151.05 510.091 1125.64 505.238 1114.65 486.195C1106.08 471.149 1109.42 452.277 1113.36 435.347C1116.76 420.673 1120.24 404.77 1115.99 390.667C1116.33 388.398 1116.51 386.108 1116.53 383.815C1116.53 368.798 1110.68 352.695 1117.67 339.42C1126.92 321.833 1153.59 319.606 1162.93 302.105C1168.38 291.913 1166.47 278.894 1172.4 268.987C1177.97 259.68 1189.13 255.397 1199.76 253.085C1210.38 250.772 1221.54 249.716 1230.9 244.234C1240.27 238.753 1247.35 227.161 1243.09 217.197Z" fill="#263238"/>
<path d="M1277.7 523.51C1277.59 523.768 1277.44 524.008 1277.27 524.224L1275.87 526.194C1273.95 528.662 1271.75 530.895 1269.3 532.846C1265.38 535.892 1260.97 538.257 1256.26 539.841C1250.03 542.003 1243.4 542.773 1236.84 542.096C1228.83 541.318 1221.22 538.2 1214.97 533.131C1208.18 527.907 1202.12 520.969 1194.44 515.459C1190.6 512.59 1186.11 510.7 1181.37 509.949C1176.37 509.539 1171.34 510.454 1166.81 512.604C1161.98 514.883 1156.91 516.626 1151.71 517.8C1146.12 518.605 1140.41 517.605 1135.43 514.945C1130.56 512.379 1125.96 509.327 1121.7 505.838C1117.44 502.637 1113.41 499.136 1109.65 495.36C1105.93 491.698 1103.02 487.304 1101.09 482.455C1099.36 477.698 1099.03 472.55 1100.12 467.609C1101.16 463.029 1102.6 458.549 1104.43 454.219C1106.08 450.022 1107.51 445.883 1108.77 441.829C1111.06 434.349 1112.83 426.717 1114.05 418.989C1115.81 407.727 1116.44 396.316 1115.9 384.929C1115.73 380.903 1115.48 377.763 1115.25 375.65C1115.25 374.651 1115.25 373.88 1115.05 373.252C1115 372.978 1115 372.698 1115.05 372.424C1115.15 372.679 1115.2 372.949 1115.22 373.223L1115.56 375.621C1115.88 377.734 1116.25 380.846 1116.5 384.9C1117.26 396.336 1116.8 407.82 1115.13 419.16C1113.97 426.989 1112.25 434.727 1109.99 442.314C1108.74 446.368 1107.31 450.565 1105.68 454.819C1103.9 459.03 1102.47 463.385 1101.43 467.838C1100.39 472.535 1100.73 477.43 1102.4 481.941C1104.27 486.599 1107.09 490.818 1110.68 494.332C1114.4 498.048 1118.37 501.492 1122.58 504.638C1126.77 508.062 1131.28 511.055 1136.06 513.575C1140.75 516.152 1146.15 517.153 1151.45 516.43C1156.55 515.264 1161.51 513.551 1166.24 511.319C1171.01 509.109 1176.27 508.184 1181.51 508.635C1186.47 509.4 1191.18 511.359 1195.22 514.345C1203.04 520.055 1209.03 527.022 1215.71 532.189C1221.76 537.175 1229.14 540.264 1236.93 541.068C1248.28 542.311 1259.69 539.256 1268.9 532.503C1272.18 529.867 1275.13 526.847 1277.7 523.51Z" fill="#263238"/>
<path d="M992.455 432.721C991.632 431.71 990.869 430.652 990.171 429.552C988.227 426.349 986.855 422.832 986.117 419.159C984.991 413.322 985.088 407.314 986.402 401.516C988.116 393.82 991.487 386.591 996.28 380.331C1002.18 372.883 1009.12 366.325 1016.89 360.86C1025.09 354.751 1034.39 349.069 1043.67 342.474C1053.57 335.85 1062.18 327.482 1069.08 317.779C1072.49 312.481 1075.08 306.709 1076.79 300.649C1078.62 294.539 1079.87 288.144 1081.36 281.692C1082.65 275.259 1084.56 268.967 1087.07 262.906C1089.58 256.951 1093.42 251.649 1098.29 247.403C1103.05 243.395 1108.55 240.359 1114.48 238.467C1120.11 236.645 1125.93 235.495 1131.84 235.041C1142.69 234.49 1153.58 234.834 1164.38 236.069C1173.73 237.068 1183.16 237.193 1192.53 236.44C1200.24 235.697 1207.74 233.468 1214.6 229.873C1219.79 227.177 1224.38 223.468 1228.11 218.967C1230.46 216.111 1232.31 212.878 1233.59 209.403C1234.39 207.005 1234.7 205.692 1234.76 205.72C1234.55 207.005 1234.26 208.274 1233.87 209.517C1232.69 213.075 1230.89 216.398 1228.56 219.338C1224.86 224.019 1220.24 227.904 1215 230.758C1208.07 234.482 1200.47 236.819 1192.65 237.639C1183.2 238.468 1173.7 238.401 1164.27 237.439C1153.54 236.272 1142.73 235.976 1131.95 236.554C1126.12 237.008 1120.37 238.158 1114.82 239.98C1109.08 241.79 1103.75 244.699 1099.12 248.545C1094.42 252.666 1090.72 257.801 1088.3 263.562C1085.79 269.535 1083.87 275.742 1082.59 282.091C1081.1 288.515 1079.73 294.939 1077.96 301.134C1076.22 307.306 1073.56 313.178 1070.05 318.549C1063.08 328.379 1054.37 336.854 1044.36 343.559C1034.99 350.183 1025.69 355.807 1017.52 361.831C1009.8 367.188 1002.9 373.631 997.023 380.96C992.239 387.047 988.856 394.114 987.116 401.658C985.732 407.344 985.547 413.256 986.573 419.017C987.566 423.942 989.568 428.608 992.455 432.721Z" fill="#455A64"/>
<path d="M1000.82 447.71C997.633 445.191 994.698 442.37 992.054 439.287C988.796 435.762 986.213 431.669 984.431 427.211C983.311 424.373 982.861 421.315 983.118 418.275C983.471 414.855 984.81 411.611 986.972 408.939C991.598 403.229 999.249 400.203 1007.27 398.518C1011.3 397.69 1015.52 397.034 1019.72 395.977C1024.05 395.068 1028.18 393.354 1031.88 390.924C1035.62 388.179 1038.65 384.589 1040.73 380.446C1042.9 376.053 1044.74 371.5 1046.21 366.828C1047.73 361.925 1049.64 357.152 1051.92 352.553C1054.37 347.716 1058.06 343.624 1062.63 340.705C1067.27 338.057 1072.28 336.131 1077.5 334.995C1082.56 333.681 1087.55 332.625 1092.26 331.026C1101.33 327.865 1109.23 322.044 1114.93 314.324C1120.21 307.338 1124.96 299.96 1129.12 292.255C1132.79 285.539 1137.08 279.183 1141.94 273.27C1146 268.365 1150.97 264.301 1156.59 261.307C1160.83 259.051 1165.48 257.644 1170.26 257.168C1173.29 256.879 1176.35 257.13 1179.28 257.91C1180.26 258.17 1181.22 258.514 1182.14 258.938C1182.14 258.938 1181.08 258.652 1179.08 258.195C1176.17 257.571 1173.17 257.417 1170.21 257.739C1165.53 258.313 1161.01 259.766 1156.87 262.021C1151.39 265.033 1146.54 269.075 1142.6 273.926C1137.85 279.855 1133.64 286.199 1130.04 292.884C1125.93 300.645 1121.23 308.08 1115.99 315.124C1113.05 318.914 1109.67 322.336 1105.91 325.316C1101.98 328.34 1097.57 330.676 1092.86 332.225C1088.07 333.881 1083.01 334.938 1078.02 336.251C1072.94 337.4 1068.07 339.326 1063.57 341.961C1059.2 344.777 1055.67 348.723 1053.35 353.381C1051.08 357.913 1049.17 362.619 1047.64 367.456C1046.1 372.194 1044.19 376.805 1041.93 381.245C1039.72 385.571 1036.53 389.323 1032.62 392.209C1028.76 394.695 1024.47 396.456 1019.98 397.405C1015.69 398.433 1011.41 399.061 1007.47 399.889C999.563 401.487 992.111 404.428 987.743 409.738C985.671 412.245 984.372 415.3 984.003 418.532C983.725 421.436 984.115 424.366 985.145 427.097C986.859 431.485 989.322 435.543 992.426 439.088C994.938 441.943 997.079 444.198 998.535 445.654L1000.22 447.281C1000.65 447.481 1000.85 447.681 1000.82 447.71Z" fill="#455A64"/>
<path d="M1352.27 263.277C1351.87 264.072 1351.37 264.811 1350.78 265.476C1349.76 266.846 1348.24 268.787 1346.27 271.186C1342.39 275.868 1336.8 282.149 1330.23 288.744C1326.97 291.941 1323.92 295.539 1319.72 296.852C1317.77 297.524 1315.65 297.524 1313.7 296.852C1312.02 296.156 1310.65 294.892 1309.82 293.283C1308.69 291.043 1308.32 288.5 1308.76 286.032C1308.81 285.14 1309.03 284.267 1309.42 283.462C1309.51 284.335 1309.51 285.216 1309.42 286.089C1309.21 288.405 1309.69 290.731 1310.81 292.769C1311.58 294.085 1312.78 295.094 1314.21 295.624C1315.89 296.207 1317.71 296.207 1319.38 295.624C1323.03 294.454 1325.97 291.028 1329.26 287.773C1335.8 281.235 1341.48 275.068 1345.59 270.643C1347.65 268.041 1349.88 265.58 1352.27 263.277Z" fill="#EB996E"/>
<path d="M1374.08 263.277C1373.61 264.101 1373.03 264.851 1372.34 265.504C1371.17 266.875 1369.48 268.816 1367.26 271.214L1359.58 279.522L1355.01 284.376C1353.43 286.202 1351.69 287.883 1349.81 289.401C1347.81 290.996 1345.39 291.987 1342.85 292.256C1341.61 292.385 1340.36 292.189 1339.23 291.688C1338.09 291.188 1337.11 290.399 1336.37 289.401C1335.68 288.433 1335.31 287.276 1335.31 286.089C1335.38 285.006 1335.71 283.956 1336.28 283.034C1337.34 281.321 1338.42 280.008 1339.36 278.694C1341.25 276.096 1342.82 274.012 1343.93 272.585C1344.45 271.795 1345.07 271.084 1345.79 270.472C1345.43 271.342 1344.97 272.167 1344.42 272.927C1343.45 274.44 1342.02 276.61 1340.22 279.294C1339.34 280.636 1338.25 282.149 1337.37 283.633C1336.85 284.357 1336.57 285.226 1336.57 286.117C1336.57 287.009 1336.85 287.877 1337.37 288.601C1337.98 289.395 1338.79 290.013 1339.72 290.394C1340.64 290.775 1341.65 290.905 1342.65 290.771C1344.9 290.529 1347.04 289.659 1348.81 288.259C1350.68 286.845 1352.41 285.259 1353.98 283.519L1358.64 278.723L1366.54 270.615C1368.8 268.331 1370.66 266.503 1371.97 265.247C1372.58 264.496 1373.29 263.833 1374.08 263.277Z" fill="#EB996E"/>
<path d="M1672.17 1137.33C1674.62 1132 1678.33 1127.34 1682.99 1123.76C1687.64 1120.17 1693.1 1117.78 1698.88 1116.78C1704.67 1115.77 1710.61 1116.19 1716.2 1118C1721.79 1119.8 1726.85 1122.94 1730.96 1127.14C1724.94 1136.85 1715.59 1144.04 1704.66 1147.35C1698.89 1149.39 1692.61 1149.51 1686.76 1147.71C1680.91 1145.9 1675.8 1142.27 1672.17 1137.33Z" fill="#087F63"/>
<path d="M1651.9 1142.01C1654.52 1140.84 1657.27 1139.98 1660.09 1139.45C1665.26 1138.19 1672.46 1136.79 1680.42 1135.48C1688.39 1134.16 1695.64 1133.16 1700.92 1132.62C1703.75 1132.15 1706.62 1131.93 1709.49 1131.97C1706.74 1132.77 1703.93 1133.34 1701.09 1133.68L1680.68 1137.02C1672.74 1138.33 1665.55 1139.59 1660.35 1140.56C1657.56 1141.2 1654.74 1141.69 1651.9 1142.01Z" fill="#263238"/>
<path d="M651.711 956.583C657.798 961.597 662.544 968.045 665.52 975.349C668.496 982.652 669.61 990.581 668.76 998.422C667.911 1006.26 665.125 1013.77 660.654 1020.26C656.182 1026.76 650.166 1032.04 643.146 1035.64C632.668 1008.77 628.642 979.851 651.711 956.583Z" fill="#087F63"/>
<path d="M691.424 977.196C691.986 987.38 695.07 997.264 700.4 1005.96C705.73 1014.65 713.138 1021.89 721.958 1027.01C730.777 1032.13 740.732 1034.98 750.926 1035.3C761.12 1035.62 771.233 1033.4 780.357 1028.84C760.372 997.438 733.335 970.972 691.424 977.139" fill="#087F63"/>
<path d="M600.436 877.9C600.939 878.32 601.39 878.799 601.777 879.328L605.346 883.582C608.372 887.322 612.798 892.718 618.393 899.256C629.528 912.389 645.259 930.261 663.788 948.904C673.066 958.211 682.174 966.805 690.625 974.399C699.075 981.993 707.069 988.474 713.921 993.67C719.304 997.795 724.918 1001.61 730.737 1005.09C734.877 1007.55 737.332 1008.57 737.275 1008.72C736.638 1008.57 736.024 1008.34 735.448 1008.03C733.733 1007.33 732.064 1006.52 730.452 1005.6C724.499 1002.29 718.777 998.58 713.322 994.498C706.356 989.359 698.362 982.878 689.768 975.398C681.175 967.918 672.067 959.239 662.76 949.932C644.203 931.26 628.5 913.245 617.623 899.912C612.112 893.26 607.83 887.75 604.918 883.924L601.549 879.471C601.13 878.983 600.757 878.457 600.436 877.9Z" fill="#263238"/>
<path d="M649.512 997.181C649.255 997.181 650.197 993.184 651.025 986.703C653.144 969.754 651.347 952.544 645.772 936.398C643.631 930.232 641.889 926.549 642.118 926.435C642.711 927.184 643.201 928.01 643.574 928.89C644.765 931.211 645.832 933.593 646.771 936.027C649.85 944.087 651.865 952.514 652.767 961.094C653.655 969.653 653.415 978.292 652.053 986.789C651.63 989.417 651.058 992.02 650.34 994.583C650.166 995.478 649.888 996.35 649.512 997.181Z" fill="#263238"/>
<path d="M1909.39 419.417C1905.86 414.731 1903.51 409.255 1902.57 403.462C1901.62 397.669 1902.1 391.732 1903.96 386.165C1905.82 380.597 1909.01 375.566 1913.25 371.506C1917.49 367.446 1922.65 364.478 1928.29 362.859C1933.99 372.743 1935.89 384.366 1933.63 395.549C1932.69 401.601 1929.82 407.189 1925.45 411.487C1921.09 415.785 1915.46 418.565 1909.39 419.417Z" fill="#087F63"/>
<path d="M1903.97 439.487C1904.17 436.625 1904.71 433.796 1905.6 431.065C1906.94 425.926 1909.11 418.931 1911.73 411.28C1914.36 403.629 1916.93 396.777 1918.87 391.838C1919.79 389.118 1920.95 386.489 1922.35 383.986C1921.76 386.791 1920.92 389.542 1919.87 392.209C1917.99 397.662 1915.67 404.342 1913.13 411.765C1910.59 419.188 1908.19 426.326 1906.59 431.351C1905.86 434.106 1904.98 436.822 1903.97 439.487Z" fill="#263238"/>
<path d="M1783.77 631.828C1780.82 620.865 1780.58 609.347 1783.07 598.27C1785.57 587.193 1790.72 576.889 1798.09 568.249C1805.45 559.609 1814.81 552.892 1825.35 548.679C1835.9 544.466 1847.31 542.882 1858.6 544.066C1862.57 565.649 1855.75 587.804 1844.47 606.561C1831.02 628.687 1804.3 637.966 1783.77 631.828Z" fill="#087F63"/>
<path d="M1699.29 716.336C1699.65 715.782 1700.06 715.266 1700.52 714.794L1704.2 710.597C1707.49 707 1712.28 701.861 1718.25 695.58C1730.24 683.018 1746.97 665.859 1765.59 647.045C1784.2 628.23 1801.13 611.243 1813.46 599.052L1828.14 584.635L1832.19 580.781C1833.11 579.924 1833.62 579.467 1833.68 579.524C1833.3 580.058 1832.87 580.555 1832.39 581.009L1828.54 585.063L1814.26 599.766L1766.64 648.073L1719.02 696.322L1704.75 710.997L1700.86 714.994C1700.39 715.5 1699.87 715.95 1699.29 716.336Z" fill="#263238"/>
<g opacity="0.3">
<path d="M1783.77 631.828C1780.82 620.865 1780.58 609.347 1783.07 598.27C1785.57 587.193 1790.72 576.889 1798.09 568.249C1805.45 559.609 1814.81 552.892 1825.35 548.679C1835.9 544.466 1847.31 542.882 1858.6 544.066C1862.57 565.649 1855.75 587.804 1844.47 606.561C1831.02 628.687 1804.3 637.966 1783.77 631.828Z" fill="black"/>
</g>
<path d="M1744.63 640.307C1738.41 637.139 1733.06 632.498 1729.04 626.79C1725.03 621.081 1722.47 614.478 1721.59 607.554C1720.71 600.63 1721.53 593.596 1723.99 587.064C1726.45 580.531 1730.47 574.699 1735.69 570.074C1747.11 577.212 1754.42 589.403 1758.22 602.307C1762.73 617.553 1755.94 633.712 1744.63 640.307Z" fill="#087F63"/>
<g opacity="0.3">
<path d="M1744.63 640.307C1738.41 637.139 1733.06 632.498 1729.04 626.79C1725.03 621.081 1722.47 614.478 1721.59 607.554C1720.71 600.63 1721.53 593.596 1723.99 587.064C1726.45 580.531 1730.47 574.699 1735.69 570.074C1747.11 577.212 1754.42 589.403 1758.22 602.307C1762.73 617.553 1755.94 633.712 1744.63 640.307Z" fill="black"/>
</g>
<path d="M1749.08 664.632C1748.69 663.795 1748.4 662.913 1748.23 662.005C1747.74 660.321 1747.2 657.837 1746.6 654.725C1745.4 648.558 1744.14 639.936 1743 630.429C1741.86 620.922 1741.06 612.243 1740.58 605.962C1740.16 602.59 1740.03 599.191 1740.18 595.798C1740.89 599.12 1741.38 602.488 1741.63 605.876C1742.4 612.5 1743.4 620.922 1744.49 630.258C1745.57 639.593 1746.71 648.358 1747.63 654.554C1748.54 660.749 1749.31 664.575 1749.08 664.632Z" fill="#263238"/>
<path d="M1209.92 971.201C1214.28 960.849 1221.16 951.748 1229.92 944.722C1238.69 937.695 1249.07 932.964 1260.12 930.958C1271.17 928.951 1282.55 929.732 1293.23 933.229C1303.9 936.727 1313.54 942.83 1321.26 950.988C1288.89 976.083 1251.12 993.213 1210.15 971.201" fill="#087F63"/>
<g opacity="0.3">
<path d="M1209.92 971.201C1214.28 960.849 1221.16 951.748 1229.92 944.722C1238.69 937.695 1249.07 932.964 1260.12 930.958C1271.17 928.951 1282.55 929.732 1293.23 933.229C1303.9 936.727 1313.54 942.83 1321.26 950.988C1288.89 976.083 1251.12 993.213 1210.15 971.201" fill="black"/>
</g>
<path d="M1191.73 981.251C1192.5 980.481 1193.37 979.81 1194.3 979.252C1196.01 978.025 1198.56 976.397 1201.81 974.513C1218.78 964.704 1237.58 958.494 1257.05 956.27C1260.77 955.87 1263.79 955.67 1265.88 955.641C1266.96 955.493 1268.05 955.493 1269.13 955.641C1269.13 955.87 1264.53 956.155 1257.17 957.24C1247.59 958.643 1238.14 960.859 1228.93 963.864C1219.75 966.9 1210.85 970.72 1202.32 975.284C1195.64 978.938 1191.88 981.451 1191.73 981.251Z" fill="#263238"/>
<path d="M457.429 599.196C465.269 595.539 473.895 593.888 482.531 594.392C491.167 594.896 499.543 597.539 506.904 602.084C514.266 606.628 520.382 612.931 524.703 620.425C529.024 627.92 531.414 636.371 531.658 645.018C500.111 642.677 469.591 632.999 457.429 599.196Z" fill="#087F63"/>
<g opacity="0.3">
<path d="M457.429 599.196C465.269 595.539 473.895 593.888 482.531 594.392C491.167 594.896 499.543 597.539 506.904 602.084C514.266 606.628 520.382 612.931 524.703 620.425C529.024 627.92 531.414 636.371 531.658 645.018C500.111 642.677 469.591 632.999 457.429 599.196Z" fill="black"/>
</g>
<path d="M441.755 595.513C442.587 595.376 443.436 595.376 444.267 595.513C446.54 595.757 448.799 596.119 451.034 596.598C458.428 598.141 465.642 600.447 472.56 603.478C479.473 606.539 486.055 610.299 492.203 614.698C494.544 616.411 496.371 617.867 497.57 618.952C498.245 619.461 498.849 620.056 499.369 620.722C499.197 620.922 496.514 618.724 491.603 615.583C479.123 607.349 465.324 601.313 450.805 597.74C445.238 596.341 441.727 595.741 441.755 595.513Z" fill="#263238"/>
<path d="M1480.46 936.228C1479.53 928.544 1480.52 920.75 1483.35 913.546C1486.18 906.343 1490.76 899.956 1496.67 894.961C1502.59 889.966 1509.65 886.52 1517.22 884.932C1524.8 883.344 1532.65 883.665 1540.07 885.866C1529.31 912.046 1512.58 935.314 1480.46 936.228Z" fill="#087F63"/>
<path d="M1472.95 948.533C1473.82 945.864 1475.02 943.313 1476.52 940.938C1483.25 929.16 1492.41 918.943 1503.38 910.961C1505.58 909.217 1507.99 907.75 1510.55 906.593C1508.46 908.441 1506.26 910.176 1503.98 911.789C1493.5 920.103 1484.5 930.133 1477.37 941.452C1476.04 943.895 1474.56 946.259 1472.95 948.533Z" fill="#263238"/>
<path d="M1705.12 787.91C1702.76 780.539 1702.27 772.697 1703.7 765.09C1705.12 757.484 1708.42 750.351 1713.29 744.334C1718.15 738.317 1724.44 733.605 1731.58 730.621C1738.72 727.638 1746.49 726.476 1754.19 727.242C1748.48 754.992 1736.49 780.972 1705.12 787.91Z" fill="#087F63"/>
<g opacity="0.3">
<path d="M1705.12 787.91C1702.76 780.539 1702.27 772.697 1703.7 765.09C1705.12 757.484 1708.42 750.351 1713.29 744.334C1718.15 738.317 1724.44 733.605 1731.58 730.621C1738.72 727.638 1746.49 726.476 1754.19 727.242C1748.48 754.992 1736.49 780.972 1705.12 787.91Z" fill="black"/>
</g>
<path d="M1700.06 801.415C1700.41 798.634 1701.11 795.91 1702.15 793.307C1704.33 786.897 1707.21 780.742 1710.71 774.949C1714.19 769.144 1718.28 763.735 1722.93 758.818C1724.76 756.667 1726.84 754.75 1729.13 753.108C1727.43 755.315 1725.62 757.431 1723.7 759.446C1719.36 764.529 1715.44 769.952 1711.97 775.663C1708.56 781.398 1705.61 787.393 1703.15 793.592C1702.27 796.257 1701.24 798.869 1700.06 801.415Z" fill="#263238"/>
<path d="M11.6221 583.75C13.3006 576.194 16.8318 569.174 21.8978 563.321C26.9638 557.469 33.4055 552.969 40.6432 550.225C47.8809 547.481 55.6873 546.58 63.3597 547.603C71.0321 548.626 78.3297 551.541 84.5957 556.085C65.7527 577.183 42.2276 593.571 11.6221 583.75Z" fill="#087F63"/>
<path d="M0.458984 592.857C2.17632 590.642 4.15057 588.639 6.34027 586.89C11.4596 582.507 17.0294 578.679 22.9563 575.47C28.8883 572.201 35.1587 569.588 41.6565 567.676C44.3011 566.744 47.0553 566.159 49.8503 565.935C47.2775 567.028 44.647 567.981 41.9706 568.79C29.3189 573.131 17.5009 579.6 7.02546 587.918C4.93564 589.692 2.74301 591.341 0.458984 592.857Z" fill="#263238"/>
<path d="M1316.61 211.174L1339.45 169.805C1324.79 146.516 1319.37 118.586 1324.26 91.5051C1329.15 64.4243 1343.99 40.151 1365.87 23.4563C1387.74 6.76166 1415.07 -1.14692 1442.48 1.28506C1469.89 3.71703 1495.4 16.3137 1514 36.599C1532.59 56.8844 1542.93 83.3913 1542.97 110.91C1543.01 138.428 1532.76 164.968 1514.23 185.312C1495.7 205.657 1470.23 218.334 1442.83 220.853C1415.43 223.372 1388.07 215.551 1366.14 198.926L1316.61 211.174Z" fill="white"/>
<path d="M1316.61 211.174L1366.2 198.612L1366 199.211L1364.26 197.013L1366.54 198.697C1373.56 203.958 1381.17 208.384 1389.21 211.887C1398.79 216.006 1408.9 218.746 1419.25 220.024C1424.98 220.739 1430.76 220.949 1436.52 220.652C1439.37 220.452 1442.52 220.338 1445.57 220.053L1454.73 218.539C1482.07 212.845 1506.22 196.95 1522.26 174.087C1531.16 161.445 1537.28 147.051 1540.18 131.862C1543.11 115.785 1542.45 99.2608 1538.24 83.4698C1533.97 66.9827 1525.84 51.7472 1514.52 39.0176L1510.04 34.1926C1508.55 32.5653 1506.81 31.3376 1505.21 29.7388C1503.64 28.2291 1501.98 26.8089 1500.24 25.4849L1494.99 21.6307C1493.31 20.3573 1491.55 19.203 1489.71 18.1761L1484 14.8072L1478.29 11.9522C1476.44 10.9878 1474.53 10.1392 1472.58 9.41131C1457.05 3.42268 1440.37 1.01229 1423.79 2.35948C1408.09 3.5499 1392.86 8.19025 1379.16 15.9492C1354.54 29.9325 1336.21 52.8184 1327.94 79.901C1324.67 91.4473 1323.15 103.419 1323.43 115.417C1324.09 134.64 1329.8 153.349 1339.99 169.662V169.833V170.033L1316.72 211.202L1339.36 169.662V170.033C1328.99 153.705 1323.13 134.919 1322.38 115.588C1322.03 103.481 1323.52 91.3905 1326.8 79.7298C1335.07 52.3129 1353.52 29.1018 1378.36 14.8643C1392.23 7.00006 1407.66 2.28256 1423.56 1.04618C1440.37 -0.323461 1457.27 2.10619 1473.01 8.15512C1475.03 8.88713 1477 9.74531 1478.92 10.7246L1484.8 13.5796L1490.51 16.9199C1492.42 17.9851 1494.26 19.1774 1496.02 20.4887L1501.13 24.3144C1502.96 25.5706 1504.47 27.1694 1506.18 28.6254C1507.89 30.0814 1509.55 31.4804 1511.06 33.1363L1515.72 38.1611C1527.21 51.0461 1535.45 66.4932 1539.76 83.2128C1543.94 99.2152 1544.54 115.942 1541.53 132.205C1538.59 147.619 1532.38 162.224 1523.31 175.029C1507.07 198.145 1482.61 214.18 1454.93 219.853L1445.63 221.366C1442.57 221.651 1439.52 221.737 1436.52 221.937C1430.7 222.221 1424.86 221.983 1419.08 221.223C1408.63 219.911 1398.43 217.103 1388.78 212.887C1380.66 209.33 1373 204.815 1365.94 199.44L1366.46 198.926L1366.83 199.382H1366.26L1316.61 211.174Z" fill="#263238"/>
<path d="M1402.23 92.4064L1416.51 92.2637C1416.48 90.6341 1416.78 89.0158 1417.39 87.5052C1418.01 85.9947 1418.92 84.623 1420.07 83.4719C1421.22 82.3208 1422.6 81.4139 1424.11 80.8054C1425.62 80.1969 1427.24 79.8992 1428.87 79.9301C1431.28 79.7976 1433.66 80.4307 1435.69 81.7384C1437.72 83.0462 1439.28 84.9617 1440.15 87.2103C1440.92 89.0755 1441.25 91.0977 1441.09 93.1121C1440.94 95.1264 1440.31 97.0759 1439.26 98.8016C1436.86 102.827 1431.58 106.51 1421.9 104.911L1422.22 137.201H1436.49L1436.24 118.101C1442.03 116.336 1447.09 112.719 1450.63 107.804C1454.17 102.89 1456.01 96.9495 1455.85 90.8933C1455.65 69.9662 1436.83 65.1983 1428.78 65.3696C1422.65 65.5124 1401.72 67.1968 1402.23 92.4064Z" fill="#087F63"/>
<path d="M1436.66 143.729L1422.3 143.867L1422.43 157.285L1436.79 157.147L1436.66 143.729Z" fill="#087F63"/>
</svg>
