<svg width="1697" height="1563" viewBox="0 0 1697 1563" fill="none" xmlns="http://www.w3.org/2000/svg">
<path d="M440.015 121.552C458.153 143.748 467.974 171.58 467.785 200.244C467.592 216.475 464.592 234.359 474.054 247.552C481.208 257.552 494.285 262.59 500.092 273.436C507.092 286.475 501.131 302.975 505.439 317.129C511.515 337.206 535.054 345.629 549.015 361.283C554.967 368.205 559.131 376.48 561.142 385.385C563.154 394.289 562.952 403.551 560.554 412.359C558.011 421.131 553.41 429.169 547.135 435.805C540.861 442.441 533.093 447.483 524.477 450.513C515.278 454.14 505.016 453.974 495.939 450.052C486.515 445.359 480.554 435.706 475.939 426.283C466.669 407.744 385.246 307.552 380.631 287.321" fill="#263238"/>
<path d="M380.784 97.9364C347.477 92.5518 315.4 114.667 301.438 145.36C287.477 176.052 287.015 210.744 286.054 244.59C285.092 278.436 282.631 313.513 265.438 342.513C254.515 360.936 237.592 377.129 234.938 398.321C232.554 417.321 242.4 436.475 239.131 455.359C236.284 471.821 223.746 486.129 224.246 502.783C224.861 522.86 245.515 537.975 265.554 538.513C285.592 539.052 304.361 528.552 320.092 516.09C345.722 495.741 366.231 469.673 379.977 439.975" fill="#263238"/>
<path d="M325.976 177.321C324.93 168.942 325.577 160.439 327.88 152.315C330.183 144.192 334.095 136.614 339.382 130.031C344.67 123.449 351.226 117.995 358.662 113.995C366.098 109.994 374.261 107.529 382.668 106.744C416.245 103.513 446.13 128.551 451.168 161.936C455.591 191.205 459.361 220.744 459.245 231.474C458.822 263.821 440.015 276.398 432.322 280.205C429.555 281.198 426.694 281.907 423.784 282.321V282.551L430.938 319.705C434.207 344.051 420.63 365.859 396.322 369.282C372.015 372.705 352.899 354.128 349.168 329.782L325.976 177.321Z" fill="#FFBE9D"/>
<path d="M444.554 176.09C444.015 176.859 439.746 174.59 434.285 175.397C428.823 176.205 425.169 179.513 424.477 178.936C423.785 178.359 424.477 177.397 426.169 175.859C428.272 173.81 430.961 172.466 433.862 172.013C436.708 171.574 439.619 172.059 442.169 173.397C444.092 174.628 444.823 175.782 444.554 176.09Z" fill="#263238"/>
<path d="M395.861 187.936C395.323 188.705 391.054 186.398 385.554 187.205C380.054 188.013 376.477 191.359 375.785 190.782C375.092 190.205 375.785 189.205 377.477 187.705C379.58 185.656 382.268 184.312 385.169 183.859C388.019 183.453 390.924 183.951 393.477 185.282C395.361 186.475 396.131 187.59 395.861 187.936Z" fill="#263238"/>
<path d="M415.823 217.282C418.574 215.958 421.482 214.989 424.477 214.397C425.861 214.051 427.13 213.589 427.246 212.589C427.121 211.184 426.586 209.847 425.707 208.743L419.977 198.513C412.015 184.205 406.053 172.359 406.63 172.013C407.207 171.666 414.323 183.089 422.015 197.397C423.977 200.936 425.861 204.32 427.553 207.513C428.671 209.077 429.215 210.979 429.092 212.897C428.965 213.422 428.719 213.91 428.372 214.324C428.025 214.738 427.587 215.065 427.092 215.282C426.342 215.61 425.554 215.843 424.746 215.974C421.841 216.797 418.841 217.237 415.823 217.282Z" fill="#263238"/>
<path d="M423.476 282.359C423.476 282.359 402.591 287.166 373.822 275.128C373.822 275.128 386.245 301.859 425.438 292.359L423.476 282.359Z" fill="#EB996E"/>
<path d="M393.053 173.59C392.745 175.166 387.169 175.243 380.861 176.974C374.553 178.705 369.592 181.166 368.553 179.974C368.092 179.397 368.784 177.859 370.669 176.128C373.206 173.958 376.205 172.393 379.437 171.554C382.669 170.714 386.049 170.621 389.322 171.282C391.861 171.859 393.053 172.859 393.053 173.59Z" fill="#263238"/>
<path d="M440.054 163.975C439.285 165.359 435.323 164.628 430.785 165.205C426.246 165.782 422.515 167.282 421.439 166.09C420.977 165.513 421.438 164.205 422.9 162.782C424.917 160.994 427.448 159.89 430.131 159.628C432.78 159.309 435.463 159.806 437.823 161.051C439.669 162.09 440.4 163.282 440.054 163.975Z" fill="#263238"/>
<path d="M383.976 195.013C384.061 195.608 384.263 196.181 384.57 196.697C384.878 197.214 385.285 197.664 385.768 198.022C386.251 198.379 386.801 198.638 387.384 198.782C387.968 198.925 388.575 198.952 389.169 198.859C389.746 198.793 390.305 198.612 390.812 198.327C391.319 198.043 391.764 197.661 392.122 197.203C392.48 196.744 392.743 196.22 392.897 195.659C393.05 195.098 393.09 194.512 393.015 193.936C392.834 192.738 392.187 191.661 391.213 190.94C390.24 190.219 389.021 189.913 387.822 190.09C387.243 190.151 386.682 190.329 386.172 190.611C385.662 190.894 385.215 191.277 384.856 191.736C384.497 192.195 384.234 192.722 384.083 193.285C383.932 193.848 383.896 194.436 383.976 195.013Z" fill="#263238"/>
<path d="M432.476 184.513C432.657 185.711 433.305 186.788 434.278 187.509C435.251 188.23 436.47 188.535 437.669 188.359C438.246 188.293 438.805 188.112 439.312 187.827C439.819 187.543 440.264 187.161 440.622 186.703C440.98 186.244 441.243 185.72 441.397 185.159C441.55 184.598 441.59 184.012 441.515 183.436C441.334 182.238 440.687 181.161 439.713 180.44C438.74 179.719 437.521 179.413 436.322 179.59C435.743 179.651 435.182 179.829 434.672 180.111C434.162 180.394 433.715 180.777 433.356 181.236C432.997 181.695 432.734 182.222 432.583 182.785C432.432 183.348 432.396 183.936 432.476 184.513Z" fill="#263238"/>
<path d="M424.438 227.898C422.928 227.428 421.301 227.501 419.84 228.105C418.379 228.71 417.175 229.806 416.438 231.205C415.734 232.49 415.448 233.962 415.62 235.417C415.793 236.872 416.415 238.236 417.399 239.321C418.448 240.35 419.828 240.974 421.293 241.079C422.759 241.185 424.214 240.766 425.399 239.898C426.883 238.547 427.78 236.67 427.899 234.667C428.161 232.83 427.721 230.963 426.669 229.436C426.128 228.689 425.357 228.142 424.474 227.877C423.591 227.613 422.646 227.647 421.784 227.974" fill="#EB996E"/>
<path d="M446.9 135.59C443.881 123.404 436.348 112.819 425.823 105.974C417.208 99.7519 406.975 96.1583 396.362 95.6283C385.682 95.1684 375.255 98.9576 367.362 106.167C361.761 111.718 358.557 119.243 358.439 127.128L359.054 121.744C357.438 126.125 357.438 130.939 359.054 135.321C359.939 137.667 361.015 140.051 361.939 142.397C364.692 149.177 369.8 154.736 376.323 158.051C379.277 159.636 382.586 160.443 385.938 160.397C387.617 160.364 389.267 159.964 390.775 159.227C392.283 158.49 393.612 157.432 394.669 156.128C397.057 151.959 397.798 147.047 396.746 142.359C399.27 146.992 402.871 150.949 407.246 153.898C409.48 155.325 412.137 155.94 414.771 155.639C417.404 155.337 419.854 154.139 421.708 152.244C424.862 148.398 423.631 142.321 421.708 137.551C424.683 142.05 428.851 145.632 433.746 147.897C435.034 148.636 436.461 149.1 437.938 149.259C439.414 149.418 440.907 149.269 442.323 148.821C443.455 148.259 444.445 147.448 445.217 146.449C445.99 145.45 446.526 144.288 446.785 143.051C447.356 140.601 447.395 138.057 446.9 135.59Z" fill="#263238"/>
<path d="M419.092 145.82C418.746 145.82 418.823 141.243 417.323 134.282C415.593 125.031 410.942 116.579 404.054 110.166C400.268 106.724 395.7 104.255 390.746 102.974C386.688 101.978 382.463 101.873 378.361 102.666C374.581 103.55 370.969 105.044 367.669 107.089C367.669 107.089 368.323 106.128 370.015 104.897C372.444 103.198 375.171 101.972 378.054 101.282C382.367 100.272 386.855 100.272 391.169 101.282C396.484 102.609 401.378 105.254 405.4 108.974C412.612 115.651 417.322 124.595 418.746 134.32C419.204 137.195 419.435 140.101 419.438 143.013C419.486 143.961 419.369 144.911 419.092 145.82Z" fill="#455A64"/>
<path d="M773.323 594.243L625.438 535.59C625.438 535.59 549.707 436.243 551.284 434.32L498.092 492.551L575.4 597.128L754.592 639.128L785.361 630.59C778.592 597.936 773.323 594.243 773.323 594.243Z" fill="#FFBE9D"/>
<path d="M451.015 310.82L430.861 303.128L343.861 314.166V329.551L341.361 329.859C322.607 333.846 304.62 340.833 288.092 350.551C272.61 360.002 260.309 373.867 252.769 390.364C245.23 406.862 242.797 425.237 245.784 443.128C249.322 465.128 256.169 491.859 269.399 507.32C294.669 536.897 317.746 500.359 317.746 500.359C317.746 500.359 333.592 536.513 332.669 553.628C331.899 567.974 325.592 597.82 323.553 607.128C323.47 607.5 323.462 607.885 323.532 608.26C323.602 608.635 323.748 608.991 323.96 609.308C324.173 609.625 324.447 609.895 324.767 610.102C325.088 610.309 325.447 610.449 325.822 610.513L509.361 644.474L510.246 599.589L504.399 414.974L496.13 343.282C496.13 343.282 496.399 309.051 451.015 310.82Z" fill="#087F63"/>
<path d="M493.322 331.359L563.322 432.475L506.976 501.09L493.322 331.359Z" fill="#087F63"/>
<path d="M508.438 544.128C508.186 541.958 508.096 539.773 508.169 537.59C508.169 533.051 508.169 527.09 507.938 519.821C507.597 500.31 506.198 480.833 503.745 461.474C500.861 438.782 496.438 418.513 493.092 403.782L489.015 386.474C488.424 384.381 487.987 382.247 487.707 380.09C488.582 382.088 489.277 384.16 489.784 386.282C490.976 390.128 492.592 396.167 494.438 403.474C499.404 422.451 503.18 441.719 505.746 461.167C508.218 480.606 509.426 500.186 509.361 519.782C509.361 527.474 509.169 533.398 508.938 537.59C508.958 539.78 508.79 541.967 508.438 544.128Z" fill="#263238"/>
<path d="M336.131 390.397C336.131 390.705 330.823 390.667 322.323 391.09C311.232 391.691 300.202 393.118 289.323 395.359C278.447 397.641 267.752 400.714 257.323 404.551C249.323 407.513 244.515 409.705 244.361 409.397C245.347 408.625 246.434 407.991 247.592 407.513C249.707 406.359 252.861 404.897 256.823 403.243C277.577 394.673 299.757 390.081 322.208 389.705C326.515 389.705 329.9 389.705 332.4 389.936C333.66 389.895 334.918 390.051 336.131 390.397Z" fill="#FAFAFA"/>
<path d="M498.246 436.667C495.432 437.689 492.497 438.336 489.515 438.59C475.292 440.666 460.884 441.156 446.553 440.052C443.56 440 440.587 439.56 437.707 438.744C440.676 438.48 443.662 438.48 446.63 438.744C452.092 438.744 459.669 438.744 468.015 438.744C476.361 438.744 483.899 437.898 489.361 437.398C492.294 436.885 495.268 436.641 498.246 436.667Z" fill="#FAFAFA"/>
<path d="M530.361 390.936C526.121 395.834 521.042 399.937 515.361 403.051C509.998 406.676 504.014 409.284 497.707 410.743C497.476 410.205 505.399 406.897 514.322 401.205C523.246 395.513 529.976 390.474 530.361 390.936Z" fill="#FAFAFA"/>
<path d="M502.092 344.051C489.957 354.967 474.496 361.471 458.207 362.513C458.207 361.897 468.784 360.282 480.938 355.09C493.092 349.897 501.707 343.551 502.092 344.051Z" fill="#FAFAFA"/>
<path d="M505.9 514.974C504.768 515.735 503.556 516.367 502.284 516.859C499.861 518.013 496.361 519.436 491.9 521.09C480.308 525.255 468.343 528.295 456.169 530.166C443.996 532.046 431.668 532.728 419.361 532.205C414.63 532.013 410.823 531.666 408.207 531.32C406.838 531.229 405.483 530.984 404.169 530.59C404.169 530.243 410.015 530.59 419.554 530.82C444.007 531.049 468.336 527.308 491.592 519.743C500.361 516.859 505.784 514.666 505.9 514.974Z" fill="#FAFAFA"/>
<path d="M507.322 567.09C507.322 567.09 506.784 567.474 505.668 568.051L500.745 570.205C496.515 572.205 490.245 574.821 482.399 577.898C474.553 580.974 465.053 583.936 454.361 586.859C431.116 593.119 407.256 596.82 383.207 597.898C372.13 598.321 362.168 598.282 353.784 597.898C345.399 597.513 338.668 596.898 334.015 596.244L328.668 595.513C328.039 595.467 327.418 595.338 326.822 595.128C327.447 595.029 328.083 595.029 328.707 595.128L334.091 595.474C338.745 595.859 345.63 596.244 353.822 596.474C362.015 596.705 372.13 596.474 383.13 596.09C394.13 595.705 406.207 594.321 418.784 592.244C431.361 590.167 443.207 587.667 453.899 584.974C464.592 582.282 474.053 579.244 481.899 576.436C489.745 573.628 496.13 571.282 500.438 569.513L505.438 567.551C506.048 567.332 506.68 567.177 507.322 567.09Z" fill="#FAFAFA"/>
<path d="M169.977 1384.74L149.169 1478.71L111.207 1548.28C110.562 1549.47 110.167 1550.78 110.047 1552.13C109.927 1553.47 110.084 1554.83 110.51 1556.11C110.935 1557.4 111.619 1558.58 112.52 1559.59C113.421 1560.59 114.518 1561.41 115.746 1561.97C117.171 1562.63 118.731 1562.93 120.297 1562.86C121.863 1562.78 123.389 1562.34 124.746 1561.55C142.361 1551.4 207.015 1513.59 208.13 1506.63C209.477 1498.59 236.669 1408.97 236.669 1408.97L169.977 1384.74Z" fill="#087F63"/>
<g opacity="0.6">
<path d="M115.746 1561.97L209.708 1500.44L208.708 1504.28C207.885 1507.71 205.867 1510.74 203.015 1512.82C195.323 1518.32 173.9 1533.09 125.054 1561.63C123.651 1562.45 122.068 1562.91 120.443 1562.97C118.819 1563.03 117.206 1562.69 115.746 1561.97Z" fill="white"/>
</g>
<g opacity="0.6">
<path d="M197.9 1465.47C196.543 1466.04 195.443 1467.09 194.811 1468.42C194.179 1469.74 194.06 1471.26 194.477 1472.67C194.99 1474.04 196.01 1475.16 197.326 1475.81C198.642 1476.45 200.155 1476.57 201.554 1476.13C203.007 1475.53 204.183 1474.41 204.852 1472.98C205.521 1471.56 205.634 1469.94 205.169 1468.44C204.488 1467.07 203.312 1466.03 201.881 1465.5C200.451 1464.98 198.875 1465.03 197.477 1465.63" fill="white"/>
</g>
<path d="M147.131 1526.36C145.579 1522.9 143.401 1519.76 140.708 1517.09C137.605 1514.93 134.12 1513.38 130.438 1512.51C130.438 1512.24 131.785 1511.82 134.054 1512.05C137.007 1512.43 139.786 1513.66 142.054 1515.59C144.339 1517.44 146.025 1519.93 146.9 1522.74C147.554 1524.94 147.362 1526.36 147.131 1526.36Z" fill="#263238"/>
<path d="M137.4 1537.24C136.861 1537.55 134.592 1533.78 130.092 1531.21C127.222 1529.87 124.267 1528.73 121.246 1527.78C122.906 1527.24 124.673 1527.1 126.398 1527.37C128.124 1527.65 129.759 1528.33 131.169 1529.36C136.285 1532.32 137.938 1537.13 137.4 1537.24Z" fill="#263238"/>
<path d="M163.438 1513.36C160.168 1509.73 156.618 1506.36 152.823 1503.28C148.641 1500.73 144.269 1498.51 139.746 1496.63C144.948 1496.52 150.018 1498.27 154.054 1501.55C158.503 1504.23 161.836 1508.42 163.438 1513.36Z" fill="#263238"/>
<path d="M172.169 1485.32C171.784 1485.82 167.13 1482.4 160.63 1480.51C154.13 1478.63 148.245 1478.94 148.207 1478.28C152.488 1477.17 156.989 1477.24 161.234 1478.48C165.479 1479.72 169.31 1482.08 172.322 1485.32H172.169Z" fill="#263238"/>
<path d="M178.976 1457.9C175.225 1455.58 171.175 1453.78 166.938 1452.55C162.574 1451.96 158.149 1451.96 153.784 1452.55C153.784 1452.32 154.976 1451.4 157.438 1450.67C160.674 1449.79 164.07 1449.68 167.356 1450.35C170.641 1451.01 173.725 1452.44 176.361 1454.51C178.323 1456.36 179.13 1457.74 178.976 1457.9Z" fill="#263238"/>
<path d="M168.361 1447.36C168.364 1446.14 168.626 1444.93 169.13 1443.82C170.22 1440.65 171.948 1437.73 174.207 1435.24C175.685 1433.28 177.765 1431.85 180.13 1431.17C180.936 1431.03 181.762 1431.15 182.503 1431.49C183.243 1431.83 183.864 1432.39 184.284 1433.09C184.991 1434.52 185.142 1436.17 184.707 1437.71C183.721 1440.79 181.693 1443.44 178.971 1445.19C176.248 1446.94 173.001 1447.7 169.784 1447.32C166.612 1446.87 163.645 1445.49 161.256 1443.35C158.867 1441.22 157.164 1438.42 156.361 1435.32C156.176 1434.53 156.16 1433.71 156.312 1432.92C156.465 1432.12 156.783 1431.37 157.246 1430.71C157.777 1430.08 158.492 1429.65 159.287 1429.46C160.083 1429.28 160.917 1429.35 161.669 1429.67C163.843 1430.75 165.698 1432.38 167.053 1434.4C169.092 1437.07 170.641 1440.07 171.63 1443.28C172.099 1444.43 172.322 1445.66 172.284 1446.9C170.734 1442.75 168.568 1438.86 165.861 1435.36C164.6 1433.72 162.965 1432.4 161.092 1431.51C160.68 1431.33 160.221 1431.29 159.784 1431.4C159.347 1431.5 158.956 1431.74 158.669 1432.09C158.4 1432.54 158.227 1433.05 158.161 1433.57C158.095 1434.09 158.137 1434.62 158.284 1435.13C159.086 1437.74 160.609 1440.07 162.678 1441.85C164.747 1443.63 167.276 1444.8 169.976 1445.21C172.697 1445.52 175.444 1444.91 177.77 1443.46C180.096 1442.01 181.863 1439.82 182.784 1437.24C183.157 1436.2 183.157 1435.06 182.784 1434.01C182.566 1433.62 182.23 1433.3 181.823 1433.11C181.416 1432.92 180.958 1432.86 180.515 1432.94C178.51 1433.49 176.724 1434.64 175.4 1436.24C172.449 1439.53 170.07 1443.29 168.361 1447.36Z" fill="#263238"/>
<g opacity="0.3">
<path d="M167.438 1394.94L162.938 1416.47L230.977 1427.78L236.669 1408.97L169.862 1384.74L167.438 1394.94Z" fill="black"/>
</g>
<path d="M473.822 1419.51L468.207 1494.59C468.207 1494.59 542.668 1525.36 542.976 1539.51L396.822 1533.86L400.668 1416.47L473.822 1419.51Z" fill="#087F63"/>
<g opacity="0.6">
<path d="M423.399 1486.51C421.981 1486.89 420.751 1487.78 419.943 1489.01C419.135 1490.23 418.805 1491.71 419.015 1493.17C419.339 1494.6 420.195 1495.85 421.409 1496.67C422.624 1497.49 424.105 1497.82 425.553 1497.59C427.062 1497.19 428.368 1496.25 429.221 1494.94C430.073 1493.63 430.411 1492.05 430.169 1490.51C429.683 1489.05 428.651 1487.84 427.289 1487.12C425.927 1486.4 424.34 1486.24 422.861 1486.67" fill="white"/>
</g>
<g opacity="0.6">
<path d="M396.899 1533.86L397.746 1522.01L537.553 1531.74C537.553 1531.74 543.976 1534.82 543.053 1539.44L396.899 1533.86Z" fill="white"/>
</g>
<path d="M470.669 1493.94C470.669 1494.67 467.054 1494.86 463.477 1497.01C459.9 1499.17 457.9 1502.09 457.246 1501.78C456.592 1501.47 457.823 1497.4 462.208 1494.86C466.592 1492.32 470.861 1493.28 470.669 1493.94Z" fill="#263238"/>
<path d="M485.746 1500.97C485.746 1501.7 482.746 1502.78 480.207 1505.71C477.669 1508.63 476.861 1511.78 476.13 1511.74C475.399 1511.7 475.13 1507.63 478.361 1504.05C481.592 1500.47 485.746 1500.2 485.746 1500.97Z" fill="#263238"/>
<path d="M493.745 1519.55C493.092 1519.55 492.245 1516.05 494.207 1512.24C496.168 1508.44 499.592 1506.97 499.861 1507.59C500.13 1508.21 498.015 1510.21 496.438 1513.36C494.861 1516.51 494.438 1519.51 493.745 1519.55Z" fill="#263238"/>
<path d="M469.976 1476.71C469.669 1477.32 466.438 1476.21 462.284 1476.32C458.13 1476.44 455.053 1477.59 454.592 1476.97C454.13 1476.36 457.361 1473.94 462.284 1473.86C467.207 1473.78 470.438 1476.17 469.976 1476.71Z" fill="#263238"/>
<g opacity="0.3">
<path d="M472.784 1434.4L471.784 1447.78L400.054 1444.32L400.554 1428.86L472.784 1434.4Z" fill="black"/>
</g>
<path d="M470.938 1461.51C468.521 1462.1 465.989 1461.99 463.63 1461.2C460.964 1460.65 458.379 1459.76 455.938 1458.55C454.514 1457.85 453.139 1457.05 451.823 1456.17C451.02 1455.67 450.294 1455.06 449.669 1454.36C449.245 1453.81 449.015 1453.13 449.015 1452.44C449.015 1451.74 449.245 1451.06 449.669 1450.51C450.043 1450.03 450.528 1449.64 451.083 1449.37C451.638 1449.11 452.248 1448.99 452.861 1449.01C453.787 1449.05 454.705 1449.2 455.592 1449.47C457.131 1449.92 458.625 1450.52 460.053 1451.24C462.482 1452.43 464.703 1454 466.63 1455.9C469.9 1459.17 470.938 1461.9 470.707 1462.01C470.476 1462.13 468.823 1459.94 465.476 1457.2C463.512 1455.67 461.368 1454.38 459.092 1453.36C457.735 1452.8 456.348 1452.31 454.938 1451.9C453.4 1451.44 452.092 1451.4 451.669 1451.9C451.246 1452.4 451.669 1452.28 451.669 1452.74C452.13 1453.25 452.661 1453.69 453.246 1454.05C454.479 1454.91 455.764 1455.69 457.092 1456.4C459.31 1457.62 461.641 1458.62 464.053 1459.4C466.396 1459.94 468.696 1460.64 470.938 1461.51Z" fill="#263238"/>
<path d="M469.976 1462.51C468.698 1460.36 468.121 1457.86 468.323 1455.36C468.338 1452.65 468.779 1449.97 469.63 1447.4C470.182 1445.89 470.864 1444.44 471.669 1443.05C472.101 1442.1 472.77 1441.27 473.611 1440.66C474.453 1440.04 475.44 1439.64 476.476 1439.51C477.133 1439.56 477.764 1439.78 478.296 1440.17C478.827 1440.56 479.237 1441.09 479.476 1441.71C479.811 1442.57 480.018 1443.47 480.092 1444.4C480.345 1446.03 480.345 1447.69 480.092 1449.32C479.578 1452.04 478.402 1454.59 476.669 1456.74C473.669 1460.59 470.669 1461.17 470.592 1460.94C470.515 1460.71 472.899 1459.28 475.246 1455.71C476.592 1453.67 477.472 1451.35 477.823 1448.94C478.017 1447.53 478.017 1446.11 477.823 1444.71C477.63 1443.17 477.092 1441.86 476.515 1442.01C475.938 1442.17 474.515 1443.09 473.861 1444.32C473.11 1445.55 472.454 1446.84 471.9 1448.17C471.009 1450.49 470.44 1452.92 470.207 1455.4C469.707 1459.71 470.361 1462.51 469.976 1462.51Z" fill="#263238"/>
<path d="M322.746 609.821C322.746 609.821 299.669 610.859 284.285 689.782C268.9 768.706 151.631 1408.21 151.631 1408.21L236.669 1408.97L396.9 800.975L386.246 1427.9L472.631 1434.51C472.631 1434.51 537.439 741.09 538.015 700.744C538.785 650.436 509.9 599.552 509.9 599.552L322.746 609.821Z" fill="#263238"/>
<path d="M439.631 603.09C440.169 603.09 431.323 648.282 419.9 703.782C408.477 759.282 398.785 804.205 398.246 804.09C397.708 803.975 406.515 758.898 417.938 703.398C429.361 647.898 439.208 602.975 439.631 603.09Z" fill="#455A64"/>
<path d="M452.861 614.359C452.861 614.128 455.169 613.436 457.823 615.782C458.577 616.465 459.173 617.304 459.572 618.24C459.97 619.176 460.161 620.188 460.131 621.205C460.034 622.491 459.575 623.723 458.805 624.758C458.036 625.793 456.988 626.588 455.784 627.051C454.61 627.584 453.31 627.777 452.031 627.607C450.753 627.437 449.548 626.911 448.554 626.089C447.81 625.392 447.223 624.544 446.832 623.603C446.441 622.661 446.254 621.647 446.284 620.628C446.284 617.089 448.669 615.859 448.708 616.089C448.059 617.502 447.718 619.036 447.708 620.59C447.759 621.37 447.966 622.133 448.316 622.833C448.666 623.533 449.152 624.157 449.746 624.666C450.505 625.189 451.383 625.513 452.3 625.609C453.217 625.704 454.142 625.567 454.993 625.211C455.843 624.855 456.59 624.291 457.165 623.571C457.74 622.85 458.125 621.997 458.285 621.089C458.341 620.31 458.241 619.528 457.99 618.788C457.739 618.048 457.342 617.366 456.823 616.782C454.938 614.589 452.823 614.666 452.861 614.359Z" fill="#455A64"/>
<path d="M449.208 645.59C449.208 645.359 451.592 645.59 453.054 648.782C453.425 649.693 453.594 650.675 453.547 651.658C453.501 652.641 453.241 653.602 452.785 654.474C452.123 655.511 451.192 656.348 450.09 656.895C448.989 657.443 447.76 657.68 446.534 657.581C445.308 657.482 444.132 657.051 443.133 656.334C442.134 655.618 441.348 654.642 440.861 653.513C440.554 652.586 440.453 651.603 440.566 650.633C440.679 649.663 441.003 648.729 441.515 647.897C443.323 645.013 445.785 645.09 445.708 645.321C445.631 645.551 443.862 646.09 442.746 648.551C442.182 649.932 442.182 651.479 442.746 652.859C443.148 653.622 443.736 654.271 444.456 654.747C445.175 655.222 446.004 655.507 446.863 655.576C447.723 655.645 448.586 655.496 449.373 655.142C450.159 654.788 450.843 654.241 451.362 653.551C452.086 652.236 452.266 650.69 451.861 649.244C450.746 646.628 449.015 645.859 449.208 645.59Z" fill="#455A64"/>
<path d="M367.707 615.129C367.549 616.45 367.213 617.744 366.707 618.975C365.506 622.496 364 625.907 362.207 629.167C356.339 640.047 347.863 649.302 337.54 656.102C327.216 662.901 315.367 667.034 303.053 668.129C299.355 668.451 295.636 668.451 291.938 668.129C290.635 668.087 289.343 667.881 288.092 667.513C288.092 667.129 293.899 667.783 303.092 666.629C315.072 665.175 326.552 660.962 336.629 654.322C346.707 647.682 355.107 638.795 361.169 628.359C365.669 620.59 367.361 615.013 367.707 615.129Z" fill="#455A64"/>
<path d="M533.169 671.244C533.169 671.244 532.169 670.782 530.592 669.705C528.389 668.12 526.33 666.344 524.438 664.397C518.113 657.995 513.178 650.355 509.941 641.956C506.705 633.558 505.238 624.582 505.631 615.59C505.719 612.883 506.067 610.191 506.669 607.551C507.092 605.667 507.362 604.667 507.515 604.705C507.669 604.744 507.054 608.897 507.054 615.628C507.06 633.296 513.625 650.333 525.477 663.436C529.977 668.397 533.362 670.936 533.169 671.244Z" fill="#455A64"/>
<path d="M831.515 673.474C832.784 670.398 832.438 671.628 812.053 658.09C812.053 658.09 841.284 677.321 838.245 668.167C835.617 664.699 832.401 661.718 828.745 659.359C836.438 663.897 840.899 664.397 842.245 662.551C844.553 659.359 827.822 647.167 819.861 641.667C827.139 646.874 834.773 651.565 842.707 655.705C847.438 657.167 845.168 651.628 841.976 647.59C838.784 643.551 814.015 619.705 807.361 612.59C806.727 612.048 806.219 611.376 805.87 610.619C805.522 609.862 805.341 609.039 805.341 608.205C805.341 607.372 805.522 606.548 805.87 605.792C806.219 605.035 806.727 604.362 807.361 603.821C819.284 596.128 824.515 583.859 824.361 579.821C824.228 578.911 823.811 578.067 823.169 577.41C822.527 576.753 821.693 576.316 820.788 576.162C819.882 576.008 818.95 576.145 818.127 576.554C817.304 576.962 816.632 577.621 816.207 578.436C813.197 582.177 809.69 585.49 805.784 588.282C802.755 590.645 799.348 592.478 795.707 593.705C791.476 595.09 770.669 593.936 766.207 591.667L752.015 639.782C752.015 639.782 803.515 663.859 813.284 668.551C825.284 674.244 830.63 675.821 831.515 673.474Z" fill="#FFBE9D"/>
<path d="M802.785 650.974C802.362 651.551 809.054 656.436 817.708 661.936C826.362 667.436 833.631 671.397 833.977 670.82C834.323 670.243 827.631 665.32 819.015 659.859C810.4 654.397 803.169 650.243 802.785 650.974Z" fill="#EB996E"/>
<path d="M807.631 641.552C807.246 642.128 814.092 647.744 823.015 654.128C831.938 660.513 839.323 665.244 839.708 664.705C840.092 664.167 833.285 658.513 824.323 652.128C815.361 645.744 808.054 641.013 807.631 641.552Z" fill="#EB996E"/>
<path d="M812.746 632.013C812.361 632.552 818.746 638.013 827.015 644.167C835.284 650.321 842.4 654.859 842.708 654.321C843.015 653.782 836.746 648.321 828.477 642.167C820.208 636.013 813.169 631.475 812.746 632.013Z" fill="#EB996E"/>
<path d="M288.938 457.744L326.708 459.821C329.383 470.365 332.96 480.659 337.4 490.59C367.823 437.821 391.246 367.09 397.246 338.667C396.4 335.872 395.361 332.718 394.131 329.205C393.209 323.895 393.366 318.454 394.592 313.205C395.631 306.898 397.4 298.359 397.9 294.436C399.554 282.436 401.477 280.513 405.592 281.898C411.285 283.744 403.246 315.628 407.9 316.321C410.438 316.667 413.477 305.744 414.4 296.782C415.323 287.821 419.323 260.282 422.285 258.321C426.631 255.628 430.4 259.898 429.323 268.821C428.246 277.744 426.823 304.782 431.554 305.128C436.285 305.475 440.131 259.782 440.131 259.782C440.131 259.782 439.4 249.859 444.861 250.09C454.746 250.513 447.054 298.705 446.208 303.282C445.592 306.436 450.746 307.128 451.208 303.59C451.669 300.051 454.054 257.859 464.092 258.205C471.785 258.475 458.131 297.898 462.477 307.051C466.823 316.205 469.823 276.013 477.208 276.551C479.938 276.782 481.977 277.321 476.938 300.051C472.021 318.127 466.128 335.922 459.285 353.359C447.746 416.436 396.246 618.205 315.785 581.282C270.785 560.628 249.746 458.205 249.746 458.205L288.938 457.744Z" fill="#FFBE9D"/>
<path d="M459.361 353.705C459.428 353.229 459.557 352.763 459.746 352.321C460.092 351.321 460.515 350.013 461.092 348.475C462.361 344.821 464.092 339.744 466.361 333.09C468.631 326.436 471.361 318.359 474.054 308.821C475.438 304.09 476.592 298.936 477.631 293.436C478.169 290.667 478.669 287.821 479.015 284.898C479.111 283.451 479.111 281.999 479.015 280.552C479.015 279.052 478.669 277.821 477.477 277.782C476.284 277.744 475.438 278.475 474.592 279.744C473.826 281.102 473.195 282.532 472.707 284.013C471.631 287.052 470.784 290.282 469.938 293.552C469.092 296.821 468.323 300.244 467.323 303.705C466.887 305.602 466.104 307.401 465.015 309.013C464.741 309.329 464.38 309.556 463.977 309.667C463.723 309.723 463.459 309.721 463.206 309.661C462.953 309.601 462.717 309.485 462.515 309.321C462.073 308.915 461.708 308.433 461.438 307.898C461.032 306.953 460.76 305.956 460.631 304.936C460.455 297.178 461.23 289.429 462.938 281.859C463.592 278.013 464.284 274.167 464.784 270.321C465.015 268.359 465.246 266.475 465.284 264.398C465.323 262.321 465.015 260.128 464.207 259.782C463.4 259.436 461.438 260.513 460.361 262.128C459.298 263.835 458.458 265.67 457.861 267.59C456.55 271.608 455.56 275.723 454.9 279.898C454.169 284.128 453.592 288.436 453.092 292.821C452.9 295.013 452.669 297.205 452.477 299.436L452.169 302.782C452.21 303.497 452.094 304.212 451.828 304.876C451.562 305.541 451.153 306.139 450.631 306.628C449.972 307.11 449.177 307.369 448.361 307.369C447.545 307.369 446.751 307.11 446.092 306.628C445.719 306.382 445.403 306.059 445.164 305.681C444.925 305.303 444.77 304.879 444.707 304.436C444.649 304.028 444.649 303.614 444.707 303.205V302.398L445.746 295.667C446.4 291.128 446.938 286.59 447.361 281.975C447.784 277.359 448.131 272.705 448.207 268.052C448.433 263.444 447.966 258.828 446.823 254.359C446.558 253.225 445.87 252.235 444.9 251.59C444.436 251.441 443.937 251.443 443.474 251.595C443.011 251.747 442.608 252.041 442.323 252.436C441.078 254.713 440.567 257.319 440.861 259.898C440.015 268.936 439.054 277.821 437.746 286.552C437.092 290.898 436.361 295.244 435.284 299.513C434.977 300.551 434.669 301.628 434.284 302.705C433.919 304.011 433.152 305.168 432.092 306.013C431.623 306.243 431.091 306.308 430.581 306.196C430.071 306.084 429.614 305.803 429.284 305.398C428.815 304.904 428.46 304.313 428.246 303.667C427.831 302.6 427.534 301.491 427.361 300.359C426.46 291.99 426.383 283.552 427.131 275.167C427.699 271.258 427.918 267.307 427.784 263.359C427.66 261.674 426.888 260.103 425.631 258.975C425.335 258.791 425.006 258.669 424.662 258.616C424.318 258.563 423.967 258.581 423.631 258.667C423.271 258.788 422.923 258.943 422.592 259.128C422.246 259.436 422.284 259.128 422.054 259.782C420.663 263.241 419.644 266.838 419.015 270.513C418.246 274.359 417.592 277.859 417.015 281.475C416.438 285.09 415.9 288.628 415.438 292.167C414.977 295.705 414.746 299.167 414.054 302.628C413.456 306.01 412.555 309.331 411.361 312.551C411.044 313.371 410.672 314.168 410.246 314.936C409.707 315.667 409.4 316.59 407.938 317.051C407.564 317.12 407.178 317.076 406.829 316.926C406.48 316.775 406.183 316.525 405.977 316.205C405.708 315.761 405.501 315.282 405.361 314.782C405.188 313.946 405.086 313.097 405.054 312.244C405.054 305.667 405.938 299.667 406.284 293.859C406.535 291.083 406.535 288.289 406.284 285.513C406.284 284.282 405.707 282.821 405.015 282.552C404.53 282.314 403.997 282.19 403.457 282.19C402.917 282.19 402.385 282.314 401.9 282.552C400.285 284.285 399.285 286.502 399.054 288.859C398.477 291.205 398.246 293.59 397.823 295.859C396.207 304.936 394.515 312.782 393.707 319.167C393.328 321.975 393.328 324.821 393.707 327.628C394.246 329.936 395.054 332.013 395.477 333.628C395.9 335.244 396.323 336.398 396.592 337.475C396.735 337.887 396.838 338.312 396.9 338.744C396.669 338.372 396.488 337.971 396.361 337.551L395.054 333.705C394.515 332.051 393.707 330.205 393.054 327.667C392.642 324.784 392.642 321.857 393.054 318.975C393.784 312.475 395.323 304.705 396.9 295.59C397.323 293.321 397.554 290.936 398.054 288.475C398.329 287.174 398.676 285.89 399.092 284.628C399.477 283.23 400.316 281.998 401.477 281.128C402.176 280.758 402.955 280.564 403.746 280.564C404.537 280.564 405.316 280.758 406.015 281.128C406.767 281.602 407.385 282.262 407.809 283.043C408.233 283.824 408.45 284.701 408.438 285.59C408.708 288.481 408.708 291.391 408.438 294.282C408.169 300.128 407.246 306.244 407.4 312.475C407.428 313.212 407.518 313.945 407.669 314.667C407.669 315.398 408.207 315.705 408.131 315.551C408.054 315.398 408.861 314.936 409.169 314.321C409.548 313.638 409.882 312.932 410.169 312.205C411.308 309.088 412.145 305.868 412.669 302.59C413.323 299.244 413.554 295.782 414.015 292.205C414.477 288.628 414.938 285.09 415.515 281.436C416.092 277.782 416.746 274.128 417.477 270.398C418.102 266.501 419.187 262.693 420.707 259.052C421.015 258.441 421.48 257.923 422.054 257.552C422.565 257.271 423.107 257.052 423.669 256.898C424.314 256.713 424.991 256.669 425.655 256.769C426.318 256.868 426.953 257.109 427.515 257.475C428.408 258.183 429.145 259.068 429.681 260.074C430.217 261.079 430.54 262.185 430.631 263.321C430.919 265.413 430.919 267.536 430.631 269.628C430.438 271.59 430.246 273.475 430.131 275.628C429.381 283.821 429.458 292.067 430.361 300.244C430.526 301.215 430.784 302.168 431.131 303.09C431.246 303.462 431.443 303.804 431.707 304.09C431.707 304.09 431.707 304.09 431.9 304.09C431.9 304.975 431.9 304.09 431.9 304.436C431.9 304.782 431.9 304.436 431.9 304.128C432.38 303.486 432.756 302.772 433.015 302.013C433.374 301.064 433.682 300.064 433.938 299.013C434.977 294.936 435.669 290.628 436.323 286.321C437.631 277.667 438.592 268.782 439.4 259.782V259.975C439.058 256.804 439.746 253.608 441.361 250.859C441.978 250.074 442.824 249.5 443.783 249.217C444.741 248.934 445.763 248.957 446.707 249.282C447.514 249.73 448.223 250.335 448.791 251.062C449.359 251.789 449.775 252.622 450.015 253.513C451.247 258.242 451.753 263.132 451.515 268.013C451.515 272.782 451.092 277.475 450.669 282.128C450.246 286.782 449.669 291.359 449.015 295.898C448.669 298.205 448.323 300.436 447.977 302.705C447.669 304.128 447.746 304.167 447.977 304.59C448.244 304.77 448.558 304.867 448.881 304.867C449.203 304.867 449.517 304.77 449.784 304.59C450.246 304.244 450.323 303.59 450.438 302.321L450.707 298.975L451.4 292.321C451.861 287.936 452.477 283.552 453.207 279.282C453.919 274.994 454.947 270.765 456.284 266.628C456.983 264.538 457.925 262.537 459.092 260.667C459.727 259.659 460.566 258.794 461.554 258.128C462.102 257.732 462.737 257.472 463.406 257.372C464.076 257.271 464.759 257.333 465.4 257.552C465.989 257.915 466.486 258.409 466.853 258.996C467.22 259.584 467.447 260.247 467.515 260.936C467.674 262.018 467.738 263.112 467.707 264.205C467.707 266.321 467.438 268.359 467.207 270.398C466.669 274.244 465.938 278.321 465.246 282.205C463.594 289.511 462.794 296.984 462.861 304.475C462.97 305.279 463.176 306.067 463.477 306.821C463.616 307.094 463.784 307.352 463.977 307.59C463.977 307.59 463.977 307.59 463.977 307.321C464.84 305.931 465.476 304.411 465.861 302.821C466.861 299.475 467.669 296.09 468.554 292.782C469.347 289.491 470.31 286.243 471.438 283.052C471.971 281.471 472.667 279.95 473.515 278.513C473.974 277.73 474.574 277.039 475.284 276.475C475.671 276.139 476.133 275.902 476.631 275.782C477.127 275.704 477.634 275.704 478.131 275.782C478.655 275.835 479.157 276.026 479.583 276.337C480.009 276.648 480.344 277.068 480.554 277.552C480.875 278.36 481.044 279.22 481.054 280.09C481.083 281.646 480.993 283.202 480.784 284.744C480.438 287.744 479.861 290.59 479.323 293.398C478.207 298.898 476.977 304.128 475.477 308.782C472.592 318.321 469.707 326.398 467.361 332.975C465.015 339.552 463.015 344.513 461.669 348.052C461.015 349.667 460.477 350.936 460.092 351.898C459.92 352.527 459.675 353.133 459.361 353.705Z" fill="#EB996E"/>
<path d="M249.399 462.09C256.707 487.897 271.015 527.705 286.361 569.782C286.845 571.138 287.72 572.319 288.876 573.177C290.032 574.034 291.416 574.53 292.854 574.6C294.291 574.67 295.717 574.311 296.951 573.57C298.185 572.829 299.171 571.738 299.784 570.436L337.399 490.859C337.399 490.859 328.322 425.474 329.092 427.82C329.861 430.167 251.476 436.282 251.476 436.282L249.399 462.09Z" fill="#087F63"/>
<path d="M334.169 449.282C334.169 449.589 329.476 450.974 322.053 453.82C312.352 457.503 303.006 462.06 294.13 467.436C285.266 472.837 276.9 479.015 269.13 485.897C263.169 491.166 259.746 494.782 259.515 494.551C259.284 494.32 260.169 493.474 261.63 491.743C263.691 489.338 265.873 487.04 268.169 484.859C275.75 477.558 284.108 471.11 293.092 465.628C302.079 460.213 311.621 455.777 321.553 452.397C324.556 451.363 327.612 450.49 330.707 449.782C331.827 449.432 332.996 449.263 334.169 449.282Z" fill="#FAFAFA"/>
<path d="M349.092 469.129C346.648 466.665 344.528 463.899 342.784 460.898C338.293 453.895 334.431 446.507 331.246 438.821C328.058 431.112 325.574 423.131 323.823 414.975C322.926 411.639 322.474 408.199 322.477 404.744C323.624 407.969 324.536 411.272 325.207 414.629C327.268 422.593 329.837 430.417 332.9 438.052C336.099 445.647 339.773 453.033 343.9 460.167C345.82 463.04 347.555 466.034 349.092 469.129Z" fill="#263238"/>
<path d="M374.169 116.744C367.644 127.499 363.599 139.573 362.328 152.088C361.057 164.603 362.593 177.244 366.823 189.09C370.669 199.667 376.823 210.09 375.708 221.321C374.592 232.552 365.823 243.667 368.9 254.744C370.746 261.321 376.361 266.283 378.554 272.667C381.054 280.359 378.554 288.475 377.208 296.359C374.131 316.513 380.592 336.782 382.169 357.09C383.746 377.398 378.323 401.206 360.169 410.052C354.669 412.744 347.477 413.513 342.9 409.398C337.054 404.206 338.669 394.821 340.285 387.129C356.208 310.206 307.015 235.129 318.246 157.283C320.054 144.821 327.015 123.667 335.977 114.975C344.938 106.283 369.823 107.283 378.285 116.513" fill="#263238"/>
<path d="M298.399 339.897C298.399 339.897 300.746 337.128 304.207 331.666C309.065 323.953 312.467 315.415 314.246 306.474C315.406 300.316 315.806 294.038 315.438 287.782C314.765 280.507 314.495 273.201 314.63 265.897C314.86 261.897 315.596 257.942 316.822 254.128C318.228 250.199 320.005 246.412 322.13 242.82C326.438 235.551 331.861 228.782 336.861 221.551C341.995 214.717 345.567 206.84 347.322 198.474C348.175 190.595 347.72 182.628 345.976 174.897C344.521 167.712 343.953 160.375 344.284 153.051C344.742 146.654 346.035 140.344 348.13 134.282C351.068 125.486 355.693 117.347 361.746 110.32C363.353 108.41 365.102 106.623 366.976 104.974C367.571 104.341 368.243 103.785 368.976 103.32C368.976 103.32 366.399 105.82 362.322 111.013C352.612 123.066 346.934 137.865 346.092 153.32C345.834 160.524 346.467 167.733 347.976 174.782C349.811 182.721 350.305 190.911 349.438 199.013C347.615 207.611 343.94 215.709 338.669 222.743C333.63 230.09 328.207 236.82 323.976 243.897C321.895 247.356 320.169 251.015 318.822 254.82C317.606 258.479 316.869 262.28 316.63 266.128C316.46 273.352 316.665 280.579 317.246 287.782C317.551 294.164 317.06 300.56 315.784 306.82C313.857 315.883 310.2 324.488 305.015 332.166C303.611 334.242 302.069 336.221 300.399 338.09C299.801 338.764 299.13 339.37 298.399 339.897Z" fill="#455A64"/>
<path d="M261.938 345.628C262.248 344.731 262.648 343.868 263.131 343.051C264.092 341.243 265.323 338.859 266.977 335.859C270.208 329.59 275.015 320.474 279.746 308.936C285.533 295.459 288.742 281.018 289.208 266.359C289.21 262.135 288.888 257.918 288.246 253.743C287.592 249.436 286.592 245.089 285.938 240.551C285.139 235.857 285.243 231.052 286.246 226.397C287.547 221.618 290.221 217.325 293.938 214.051C301.169 207.474 309.9 203.166 314.438 195.436C318.371 187.77 320.688 179.379 321.246 170.782C322.06 162.901 323.843 155.15 326.554 147.705C332.65 131.722 343.513 118 357.669 108.397C359.926 106.878 362.277 105.504 364.708 104.282C365.528 103.79 366.407 103.403 367.323 103.128C367.323 103.128 363.862 104.974 358.131 109.051C350.054 114.815 343.061 121.964 337.477 130.166C333.604 135.789 330.452 141.875 328.092 148.282C325.501 155.744 323.822 163.493 323.092 171.359C321.938 179.551 321.015 188.705 316.092 196.82C311.169 204.936 302.169 209.551 295.285 216.051C291.776 219.096 289.247 223.11 288.015 227.589C287.08 231.994 286.989 236.536 287.746 240.974C288.362 245.397 289.323 249.782 289.977 254.128C290.642 258.403 290.951 262.725 290.9 267.051C290.377 281.978 286.996 296.667 280.938 310.32C277.004 319.547 272.535 328.537 267.554 337.243L263.477 343.282C263.048 344.116 262.533 344.902 261.938 345.628Z" fill="#455A64"/>
<path d="M1534.48 1432.44C1534.66 1431.88 1534.89 1431.34 1535.17 1430.82C1535.71 1429.67 1536.44 1428.13 1537.32 1426.17C1540 1420.16 1542.15 1413.93 1543.75 1407.55C1547.98 1391.01 1549.48 1365.74 1543.21 1335.74C1539.8 1319.38 1535.35 1303.26 1529.86 1287.47C1524.25 1270.36 1517.67 1252.21 1512.32 1232.55C1506.29 1212.05 1503.37 1190.76 1503.67 1169.4C1504.48 1147.05 1511.09 1124.78 1518.36 1102.55C1525.63 1080.32 1533.13 1058.67 1535.36 1036.74C1537.84 1015.72 1533.62 994.452 1523.29 975.975C1513.67 958.244 1501.55 943.052 1492.52 927.36C1484.05 912.778 1477.82 897.015 1474.02 880.59C1468.56 856.811 1468.15 832.152 1472.82 808.206C1474.53 799.444 1477.1 790.876 1480.52 782.629C1480.41 783.206 1480.26 783.772 1480.05 784.321L1478.52 789.206C1477.21 793.513 1475.48 799.975 1473.82 808.437C1469.52 832.274 1470.17 856.741 1475.71 880.321C1479.57 896.545 1485.83 912.102 1494.29 926.475C1503.32 941.86 1515.48 957.244 1525.32 975.052C1535.91 993.903 1540.25 1015.62 1537.75 1037.09C1535.48 1059.32 1527.94 1081.21 1520.67 1103.4C1513.4 1125.59 1506.86 1147.63 1506.05 1169.59C1505.71 1190.74 1508.56 1211.83 1514.52 1232.13C1519.79 1251.67 1526.25 1269.82 1531.82 1287.01C1537.26 1302.88 1541.62 1319.1 1544.9 1335.55C1551.02 1365.78 1549.29 1391.32 1544.9 1407.9C1543.18 1414.29 1540.88 1420.51 1538.02 1426.48L1535.63 1431.05C1535.3 1431.56 1534.91 1432.02 1534.48 1432.44Z" fill="#263238"/>
<path d="M1504.82 942.859C1504.82 942.859 1486.44 883.975 1519.44 849.513C1519.69 849.236 1520.02 849.035 1520.39 848.933C1520.75 848.831 1521.13 848.832 1521.5 848.936C1521.86 849.04 1522.19 849.242 1522.44 849.52C1522.7 849.799 1522.87 850.143 1522.94 850.513C1524.71 860.244 1526.9 889.859 1504.82 942.859Z" fill="#087F63"/>
<path d="M1515.86 869.129C1515.8 872.776 1515.39 876.408 1514.63 879.975C1513.4 887.475 1511.98 896.244 1510.44 905.937C1508.9 915.629 1507.48 924.437 1506.28 931.898C1505.95 935.536 1505.31 939.138 1504.36 942.667C1504 939.03 1504.08 935.363 1504.59 931.744C1505.21 925.014 1506.4 915.783 1508.05 905.629C1509.71 895.475 1511.52 886.398 1512.94 879.744C1513.5 876.105 1514.48 872.543 1515.86 869.129Z" fill="#263238"/>
<path d="M1526.44 1081.74C1526.44 1081.74 1537.71 1021.09 1583.02 1006.09C1583.37 1005.97 1583.76 1005.94 1584.13 1006.02C1584.5 1006.11 1584.84 1006.29 1585.11 1006.55C1585.38 1006.82 1585.57 1007.15 1585.66 1007.52C1585.76 1007.88 1585.74 1008.27 1585.63 1008.63C1582.63 1017.97 1570.75 1045.17 1526.44 1081.74Z" fill="#087F63"/>
<path d="M1570.67 1021.67C1568.91 1024.87 1566.85 1027.9 1564.52 1030.71L1548.63 1051.67L1532.86 1072.71C1530.88 1075.76 1528.62 1078.63 1526.13 1081.28C1527.54 1077.9 1529.34 1074.7 1531.52 1071.74C1535.36 1066.09 1540.59 1058.47 1546.9 1050.28C1553.21 1042.09 1558.94 1034.9 1563.28 1029.67C1565.44 1026.74 1567.92 1024.05 1570.67 1021.67Z" fill="#263238"/>
<path d="M1514.21 1233.78C1514.21 1233.78 1507.36 1172.48 1546.36 1144.98C1546.66 1144.74 1547.02 1144.6 1547.4 1144.56C1547.78 1144.52 1548.17 1144.6 1548.5 1144.77C1548.84 1144.94 1549.13 1145.21 1549.32 1145.54C1549.51 1145.87 1549.61 1146.25 1549.59 1146.63C1549.48 1156.51 1545.98 1185.98 1514.21 1233.78Z" fill="#087F63"/>
<path d="M1539.21 1163.51C1538.49 1167.09 1537.4 1170.59 1535.94 1173.94L1526.86 1198.63C1523.48 1207.86 1520.44 1216.21 1517.86 1223.32C1516.88 1226.82 1515.59 1230.23 1514.02 1233.51C1514.37 1229.87 1515.17 1226.27 1516.4 1222.82C1518.28 1216.36 1521.21 1207.44 1524.78 1197.82C1528.36 1188.21 1531.86 1179.55 1534.52 1173.36C1535.74 1169.93 1537.31 1166.63 1539.21 1163.51Z" fill="#263238"/>
<path d="M1548.32 1386.78C1548.32 1386.78 1543.71 1325.24 1583.63 1299.17C1583.94 1298.95 1584.31 1298.83 1584.69 1298.81C1585.07 1298.79 1585.44 1298.88 1585.77 1299.06C1586.11 1299.25 1586.38 1299.52 1586.57 1299.85C1586.75 1300.18 1586.84 1300.56 1586.82 1300.94C1586.36 1310.82 1581.82 1340.17 1548.32 1386.78Z" fill="#087F63"/>
<path d="M1575.71 1317.47C1574.85 1321.03 1573.62 1324.48 1572.05 1327.78C1569.21 1334.78 1565.82 1343.17 1562.09 1352.13C1558.36 1361.09 1555.09 1369.44 1552.25 1376.47C1551.11 1379.95 1549.65 1383.31 1547.9 1386.51C1548.41 1382.88 1549.35 1379.31 1550.71 1375.9C1552.82 1369.51 1556.05 1360.74 1559.98 1351.24C1563.9 1341.74 1567.67 1333.21 1570.55 1327.13C1571.92 1323.74 1573.65 1320.5 1575.71 1317.47Z" fill="#263238"/>
<path d="M1478.36 891.129C1478.36 891.129 1423.82 862.514 1422.63 814.86C1422.63 814.486 1422.73 814.119 1422.91 813.796C1423.1 813.473 1423.37 813.207 1423.7 813.026C1424.03 812.845 1424.4 812.755 1424.77 812.767C1425.14 812.778 1425.51 812.89 1425.82 813.091C1433.94 818.706 1456.48 838.091 1478.36 891.129Z" fill="#087F63"/>
<path d="M1433.98 831.244C1436.54 833.86 1438.82 836.734 1440.79 839.821C1445.25 845.936 1450.44 853.167 1456.17 861.129L1471.55 882.36C1473.9 885.152 1475.98 888.152 1477.79 891.321C1474.97 888.98 1472.45 886.307 1470.29 883.36C1465.94 878.206 1460.25 870.821 1454.25 862.475C1448.25 854.129 1442.98 846.398 1439.36 840.744C1437.24 837.773 1435.44 834.589 1433.98 831.244Z" fill="#263238"/>
<path d="M1537.09 1017.55C1537.09 1017.55 1480.78 992.36 1476.82 944.783C1476.79 944.409 1476.86 944.034 1477.03 943.698C1477.2 943.363 1477.46 943.08 1477.77 942.881C1478.09 942.682 1478.46 942.575 1478.83 942.571C1479.21 942.568 1479.58 942.668 1479.9 942.86C1488.32 947.976 1511.98 965.899 1537.09 1017.55Z" fill="#087F63"/>
<path d="M1489.21 960.475C1491.92 962.917 1494.37 965.637 1496.52 968.59L1513.21 988.936L1529.94 1009.21C1532.45 1011.86 1534.71 1014.73 1536.71 1017.78C1533.76 1015.6 1531.07 1013.09 1528.71 1010.28C1524.09 1005.36 1517.94 998.359 1511.44 990.398C1504.94 982.436 1499.25 975.013 1495.25 969.59C1492.9 966.784 1490.88 963.727 1489.21 960.475Z" fill="#263238"/>
<path d="M1504.59 1158.67C1504.59 1158.67 1466.13 1110.59 1484.09 1066.36C1484.23 1066.01 1484.47 1065.71 1484.77 1065.49C1485.07 1065.27 1485.43 1065.13 1485.81 1065.1C1486.18 1065.07 1486.56 1065.14 1486.89 1065.31C1487.23 1065.48 1487.51 1065.73 1487.71 1066.05C1493.05 1074.4 1505.86 1101.17 1504.59 1158.67Z" fill="#087F63"/>
<path d="M1487.98 1085.9C1489.29 1089.32 1490.25 1092.86 1490.82 1096.48C1492.44 1103.86 1494.32 1112.55 1496.4 1122.17C1498.48 1131.78 1500.44 1140.44 1502.05 1147.82C1503.08 1151.33 1503.79 1154.92 1504.17 1158.55C1502.48 1155.28 1501.19 1151.82 1500.32 1148.24C1498.44 1141.74 1496.13 1132.86 1493.98 1122.63C1491.82 1112.4 1490.13 1103.4 1489.05 1096.78C1488.3 1093.21 1487.94 1089.56 1487.98 1085.9Z" fill="#263238"/>
<path d="M1543.05 1324.48C1543.05 1324.48 1487.17 1298.36 1484.02 1250.74C1483.98 1250.37 1484.05 1249.98 1484.22 1249.64C1484.39 1249.3 1484.65 1249.01 1484.97 1248.81C1485.3 1248.61 1485.67 1248.51 1486.05 1248.51C1486.44 1248.51 1486.81 1248.62 1487.13 1248.82C1495.4 1254.09 1518.75 1272.44 1543.05 1324.48Z" fill="#087F63"/>
<path d="M1496.02 1266.59C1498.66 1269.11 1501.05 1271.88 1503.17 1274.86L1519.52 1295.44L1535.9 1316.01C1538.36 1318.71 1540.58 1321.61 1542.52 1324.71C1539.65 1322.46 1537.07 1319.88 1534.82 1317.01C1530.25 1312.01 1524.25 1304.9 1517.86 1296.82C1511.48 1288.74 1505.94 1281.24 1502.02 1275.74C1499.67 1272.94 1497.65 1269.87 1496.02 1266.59Z" fill="#263238"/>
<path d="M1654.25 1082.01C1654.25 1082.01 1654.25 1082.48 1654.25 1083.36C1654.25 1084.24 1654.25 1085.71 1654.25 1087.21C1654.25 1091.05 1653.86 1095.94 1653.59 1102.17C1652.9 1115.32 1651.86 1133.67 1650.67 1155.59C1646.82 1177.9 1635.29 1202.63 1619.9 1226.67C1608.71 1244.36 1596.82 1260.44 1586.82 1275.4C1577.7 1288.53 1569.5 1302.28 1562.29 1316.55C1557.51 1326.2 1553.65 1336.27 1550.75 1346.63C1549.79 1350.28 1549.02 1353.17 1548.59 1355.13C1548.41 1356.15 1548.14 1357.15 1547.79 1358.13C1547.8 1357.09 1547.93 1356.06 1548.17 1355.05C1548.44 1353.05 1549.02 1350.13 1549.9 1346.4C1552.49 1335.85 1556.16 1325.61 1560.86 1315.82C1568.01 1301.44 1576.2 1287.59 1585.36 1274.4C1595.44 1259.32 1607.09 1243.21 1618.25 1225.63C1633.44 1201.71 1644.75 1177.36 1649.02 1155.4C1650.55 1133.51 1651.82 1115.21 1652.86 1102.05C1653.36 1095.82 1653.79 1090.86 1654.09 1087.13C1654.09 1085.59 1654.36 1084.28 1654.48 1083.28C1654.35 1082.87 1654.27 1082.44 1654.25 1082.01Z" fill="#263238"/>
<path d="M1620.98 1222.24C1620.98 1222.24 1644.63 1165.32 1614.9 1127.97C1614.67 1127.68 1614.36 1127.45 1614.01 1127.31C1613.65 1127.18 1613.27 1127.15 1612.9 1127.22C1612.53 1127.29 1612.18 1127.46 1611.91 1127.72C1611.63 1127.98 1611.43 1128.3 1611.32 1128.67C1608.67 1138.21 1603.79 1167.47 1620.98 1222.24Z" fill="#087F63"/>
<path d="M1616.67 1147.86C1617.69 1151.37 1618.32 1154.98 1618.55 1158.63C1619.4 1165.32 1620.32 1174.59 1621.05 1184.86C1621.79 1195.13 1622.13 1204.44 1622.13 1211.21C1622.36 1214.86 1622.14 1218.53 1621.48 1222.13C1620.81 1218.54 1620.49 1214.89 1620.52 1211.24C1620.02 1203.55 1619.4 1194.82 1618.75 1185.01C1618.09 1175.21 1617.48 1166.32 1616.94 1158.78C1616.49 1155.16 1616.4 1151.5 1616.67 1147.86Z" fill="#263238"/>
<g opacity="0.3">
<path d="M1620.98 1222.24C1620.98 1222.24 1644.63 1165.32 1614.9 1127.97C1614.67 1127.68 1614.36 1127.45 1614.01 1127.31C1613.65 1127.18 1613.27 1127.15 1612.9 1127.22C1612.53 1127.29 1612.18 1127.46 1611.91 1127.72C1611.63 1127.98 1611.43 1128.3 1611.32 1128.67C1608.67 1138.21 1603.79 1167.47 1620.98 1222.24Z" fill="black"/>
</g>
<path d="M1547.71 1359.51C1547.71 1359.51 1566.67 1300.82 1533.98 1266.05C1533.72 1265.78 1533.4 1265.57 1533.04 1265.47C1532.68 1265.37 1532.29 1265.36 1531.93 1265.46C1531.57 1265.56 1531.24 1265.76 1530.99 1266.03C1530.73 1266.31 1530.55 1266.65 1530.48 1267.01C1528.63 1276.71 1526.13 1306.32 1547.71 1359.51Z" fill="#087F63"/>
<path d="M1537.36 1285.59C1538.69 1289.01 1539.62 1292.57 1540.13 1296.21C1541.52 1302.78 1543.17 1311.98 1544.75 1322.13C1546.32 1332.28 1547.4 1341.55 1547.98 1348.28C1548.48 1351.92 1548.54 1355.6 1548.17 1359.24C1547.26 1355.71 1546.64 1352.11 1546.32 1348.48C1545.21 1340.98 1543.9 1332.21 1542.48 1322.48C1541.05 1312.74 1539.67 1303.98 1538.63 1296.48C1537.85 1292.9 1537.43 1289.25 1537.36 1285.59Z" fill="#263238"/>
<g opacity="0.3">
<path d="M1547.71 1359.51C1547.71 1359.51 1566.67 1300.82 1533.98 1266.05C1533.72 1265.78 1533.4 1265.57 1533.04 1265.47C1532.68 1265.37 1532.29 1265.36 1531.93 1265.46C1531.57 1265.56 1531.24 1265.76 1530.99 1266.03C1530.73 1266.31 1530.55 1266.65 1530.48 1267.01C1528.63 1276.71 1526.13 1306.32 1547.71 1359.51Z" fill="black"/>
</g>
<path d="M1651.13 1152.67C1651.13 1152.67 1701.63 1117.28 1696.55 1069.82C1696.51 1069.45 1696.37 1069.09 1696.15 1068.8C1695.92 1068.5 1695.61 1068.27 1695.26 1068.13C1694.91 1068 1694.53 1067.96 1694.16 1068.03C1693.79 1068.1 1693.45 1068.26 1693.17 1068.51C1685.82 1075.13 1666.13 1097.13 1651.13 1152.67Z" fill="#087F63"/>
<g opacity="0.3">
<path d="M1651.13 1152.67C1651.13 1152.67 1701.63 1117.28 1696.55 1069.82C1696.51 1069.45 1696.37 1069.09 1696.15 1068.8C1695.92 1068.5 1695.61 1068.27 1695.26 1068.13C1694.91 1068 1694.53 1067.96 1694.16 1068.03C1693.79 1068.1 1693.45 1068.26 1693.17 1068.51C1685.82 1075.13 1666.13 1097.13 1651.13 1152.67Z" fill="black"/>
</g>
<path d="M1687.4 1087.55C1686.4 1091.07 1684.99 1094.47 1683.21 1097.67C1680.32 1103.74 1676.13 1112.05 1671.25 1121.13C1666.36 1130.21 1661.67 1138.24 1658.05 1143.94C1656.28 1147.13 1654.12 1150.1 1651.63 1152.78C1652.98 1149.4 1654.66 1146.15 1656.63 1143.09C1660.25 1136.44 1664.52 1128.67 1669.21 1120.01L1681.75 1096.94C1683.32 1093.63 1685.21 1090.49 1687.4 1087.55Z" fill="#263238"/>
<path d="M1568.09 1301.32C1568.09 1301.32 1629.02 1291.82 1645.32 1246.98C1645.46 1246.63 1645.49 1246.25 1645.42 1245.88C1645.35 1245.51 1645.18 1245.17 1644.93 1244.89C1644.68 1244.61 1644.36 1244.41 1644 1244.3C1643.64 1244.2 1643.26 1244.19 1642.9 1244.28C1633.4 1247.13 1605.86 1258.09 1568.09 1301.32Z" fill="#087F63"/>
<g opacity="0.3">
<path d="M1568.09 1301.32C1568.09 1301.32 1629.02 1291.82 1645.32 1246.98C1645.46 1246.63 1645.49 1246.25 1645.42 1245.88C1645.35 1245.51 1645.18 1245.17 1644.93 1244.89C1644.68 1244.61 1644.36 1244.41 1644 1244.3C1643.64 1244.2 1643.26 1244.19 1642.9 1244.28C1633.4 1247.13 1605.86 1258.09 1568.09 1301.32Z" fill="black"/>
</g>
<path d="M1629.32 1258.86C1626.85 1261.55 1624.09 1263.97 1621.09 1266.05C1615.82 1270.28 1608.4 1275.9 1600.05 1281.9C1591.71 1287.9 1583.9 1293.01 1578.13 1296.55C1575.12 1298.65 1571.87 1300.37 1568.44 1301.67C1571.17 1299.23 1574.12 1297.06 1577.25 1295.17L1598.71 1280.01L1620.13 1264.63C1622.98 1262.38 1626.06 1260.45 1629.32 1258.86Z" fill="#263238"/>
<path d="M1509.94 1413.47L1492.17 1533.09H1602.94L1588.59 1413.47H1509.94Z" fill="#455A64"/>
<path d="M1593.05 1450.51C1593.05 1451.17 1573.05 1451.67 1548.4 1451.67C1523.75 1451.67 1503.71 1451.17 1503.71 1450.51C1518.58 1449.37 1533.49 1448.99 1548.4 1449.36C1563.29 1448.99 1578.2 1449.37 1593.05 1450.51Z" fill="#263238"/>
<path d="M1595.21 1460.05C1595.21 1460.71 1574.55 1461.21 1549.05 1461.21C1523.55 1461.21 1502.9 1460.71 1502.9 1460.05C1502.9 1459.4 1523.55 1458.9 1549.05 1458.9C1574.55 1458.9 1595.21 1459.4 1595.21 1460.05Z" fill="#263238"/>
<path d="M1164.48 253.052C1164.48 253.052 1163.44 253.052 1161.44 253.052C1158.52 252.879 1155.59 252.879 1152.67 253.052C1141.37 253.713 1130.27 256.316 1119.86 260.744C1103.36 267.663 1088.99 278.855 1078.25 293.167C1071.62 302.104 1066.69 312.182 1063.71 322.898C1056.98 348.426 1060.61 375.58 1073.82 398.437C1077.42 404.765 1081.82 410.607 1086.9 415.821C1092.03 421.345 1098 426.019 1104.59 429.667C1111.36 433.475 1119.02 435.401 1126.78 435.244C1134.79 435.148 1142.46 432.045 1148.28 426.552C1151.1 423.603 1153.31 420.129 1154.78 416.328C1156.25 412.527 1156.96 408.473 1156.86 404.398C1156.8 395.932 1154.12 387.693 1149.17 380.821C1139.21 366.783 1123.05 357.36 1105.86 352.283C1088.03 347.276 1069.21 347.011 1051.25 351.514C1042.08 353.899 1033.24 357.413 1024.94 361.975C1016.56 366.705 1008.94 372.684 1002.36 379.706C1000.78 381.514 998.977 383.167 997.554 385.167L993.208 391.014C990.565 395.133 988.201 399.425 986.131 403.86C982.017 412.864 979.207 422.409 977.785 432.206C974.993 451.778 977.655 471.741 985.477 489.898C992.954 507.64 1005.98 522.483 1022.59 532.206C1030.65 536.809 1039.64 539.531 1048.9 540.167C1057.98 540.675 1067 538.509 1074.86 533.937C1082.66 529.626 1088.82 522.868 1092.4 514.706C1095.77 506.662 1096.01 497.645 1093.05 489.437C1090.01 481.517 1085.04 474.484 1078.59 468.975C1072.34 463.568 1065.12 459.38 1057.32 456.629C1042.11 451.834 1025.84 451.553 1010.48 455.821C996.101 459.717 982.896 467.072 972.016 477.244C962.106 486.739 954.558 498.423 949.977 511.36C941.965 533.807 942.334 558.394 951.016 580.591C957.787 597.162 968.683 611.726 982.67 622.898C991.48 629.965 1001.29 635.681 1011.78 639.86C1015.4 641.206 1018.21 642.206 1020.13 642.744L1022.98 643.668C1022.98 643.668 1021.98 643.475 1020.05 642.937C1017.21 642.176 1014.41 641.265 1011.67 640.206C1001.04 636.211 991.099 630.579 982.208 623.514C967.985 612.349 956.872 597.713 949.939 581.014C941.104 558.607 940.654 533.764 948.67 511.052C953.258 497.919 960.889 486.057 970.939 476.437C981.973 466.06 995.374 458.535 1009.98 454.514C1025.66 450.137 1042.28 450.404 1057.82 455.283C1065.85 458.082 1073.28 462.376 1079.71 467.937C1086.41 473.626 1091.57 480.915 1094.71 489.129C1097.87 497.704 1097.73 507.149 1094.32 515.629C1090.53 524.113 1084.09 531.142 1075.98 535.667C1067.83 540.416 1058.47 542.688 1049.05 542.206C1039.57 541.544 1030.36 538.729 1022.13 533.975C1005.13 524.116 991.789 509.016 984.093 490.937C976.102 472.447 973.361 452.113 976.169 432.167C977.638 422.172 980.513 412.435 984.708 403.244C986.821 398.715 989.237 394.333 991.939 390.129L996.4 384.167C997.823 382.129 999.67 380.321 1001.28 378.552C1008.02 371.397 1015.8 365.302 1024.36 360.475C1032.86 355.826 1041.9 352.259 1051.28 349.86C1069.59 345.273 1088.78 345.551 1106.94 350.667C1124.48 355.898 1140.9 365.475 1151.25 380.014C1156.45 387.172 1159.27 395.781 1159.32 404.629C1159.51 413.336 1156.23 421.762 1150.21 428.052C1144.05 433.828 1135.96 437.082 1127.52 437.167C1119.44 437.351 1111.47 435.344 1104.44 431.36C1097.69 427.635 1091.58 422.842 1086.36 417.167C1081.21 411.836 1076.76 405.879 1073.09 399.437C1059.65 376.155 1055.99 348.487 1062.94 322.514C1066.02 311.673 1071.06 301.491 1077.82 292.475C1088.77 278.054 1103.38 266.831 1120.13 259.975C1130.63 255.632 1141.82 253.184 1153.17 252.744C1156.12 252.55 1159.07 252.55 1162.02 252.744L1164.48 253.052Z" fill="#263238"/>
<path d="M1292.9 637.898H753.631V1053.82H1292.9V637.898Z" fill="#087F63"/>
<path d="M753.631 637.898L853.246 730.821H1383.36L1292.9 637.898H753.631Z" fill="#087F63"/>
<path d="M753.631 637.898L1293.05 636.937H1293.48L1293.78 637.206L1383.32 729.167L1384.25 730.129L1385.9 731.821H1383.52L853.4 731.398H853.169L753.631 637.898L853.631 730.206H853.208L1383.32 729.821L1382.63 731.513L1381.67 730.552L1292.17 638.59L1292.86 638.898L753.631 637.898Z" fill="#263238"/>
<path d="M915.631 829.706C912.71 829.812 909.947 831.06 907.936 833.183C905.926 835.305 904.83 838.132 904.883 841.054C904.936 843.977 906.134 846.762 908.22 848.811C910.305 850.859 913.112 852.006 916.035 852.006C918.958 852.006 921.764 850.859 923.85 848.811C925.936 846.762 927.134 843.977 927.187 841.054C927.24 838.132 926.143 835.305 924.133 833.183C922.123 831.06 919.36 829.812 916.439 829.706" fill="#263238"/>
<path d="M1043.05 829.706C1040.14 829.817 1037.39 831.065 1035.4 833.181C1033.4 835.298 1032.31 838.114 1032.36 841.025C1032.42 843.936 1033.61 846.709 1035.69 848.748C1037.77 850.787 1040.57 851.929 1043.48 851.929C1046.39 851.929 1049.18 850.787 1051.26 848.748C1053.34 846.709 1054.53 843.936 1054.59 841.025C1054.65 838.114 1053.56 835.298 1051.56 833.181C1049.56 831.065 1046.81 829.817 1043.9 829.706" fill="#263238"/>
<path d="M1043.78 929.244C1041.56 920.748 1037.95 912.678 1033.09 905.36C1027.69 897.533 1020.76 890.886 1012.71 885.821C1003 879.378 991.673 875.792 980.025 875.472C968.376 875.153 956.872 878.112 946.823 884.014C938.524 888.647 931.239 894.898 925.4 902.398C920.141 909.446 916.098 917.324 913.438 925.706C913.468 925.08 913.571 924.461 913.746 923.86C914.115 922.127 914.59 920.418 915.169 918.744C917.277 912.566 920.354 906.763 924.285 901.552C930.082 893.702 937.458 887.151 945.939 882.321C956.246 876.168 968.091 873.075 980.091 873.401C992.091 873.728 1003.75 877.462 1013.71 884.167C1021.9 889.43 1028.89 896.347 1034.25 904.475C1037.9 909.9 1040.67 915.872 1042.44 922.167C1042.91 923.875 1043.28 925.608 1043.55 927.36C1043.69 927.98 1043.76 928.611 1043.78 929.244Z" fill="#263238"/>
<path opacity="0.5" d="M754.861 642.476L850.246 763.399H1292.9V730.822H853.246L754.861 642.476Z" fill="black"/>
<path d="M1186.55 1052.9C1186.02 1052.9 1185.55 980.552 1185.55 891.36C1185.55 802.167 1186.02 729.821 1186.55 729.821C1187.09 729.821 1187.59 802.129 1187.59 891.36C1187.59 980.591 1187.13 1052.9 1186.55 1052.9Z" fill="#263238"/>
<path d="M1271.25 958.591H1223.71V1012.32H1271.25V958.591Z" fill="#F5F5F5"/>
<path d="M753.631 637.898L642.938 730.821H753.631V637.898Z" fill="#087F63"/>
<g opacity="0.4">
<path d="M753.631 637.898L642.938 730.821H753.631V637.898Z" fill="black"/>
</g>
<path d="M1308.82 1053.82H688.784V1532.05H1308.82V1053.82Z" fill="#087F63"/>
<path opacity="0.3" d="M1308.82 1053.82H688.784V1532.05H1308.82V1053.82Z" fill="black"/>
<path d="M1153.48 1528.67C1152.94 1528.67 1152.48 1422.09 1152.48 1290.63C1152.48 1159.17 1152.94 1052.55 1153.48 1052.55C1154.01 1052.55 1154.48 1159.13 1154.48 1290.63C1154.48 1422.13 1154.01 1528.67 1153.48 1528.67Z" fill="#263238"/>
<path d="M1256.25 1423.21H1208.71V1476.94H1256.25V1423.21Z" fill="#F5F5F5"/>
<path d="M948.362 1055.09H877.938V1157.13H948.362V1055.09Z" fill="#263238"/>
<path d="M948.362 1428.59H877.938V1530.63H948.362V1428.59Z" fill="#263238"/>
<path d="M1303.44 1053.82H1301.82H1297.17L1279.28 1054.01L1213.4 1054.32L996.13 1054.82L778.784 1054.55L712.938 1054.24L695.053 1054.05L712.938 1053.86L778.784 1053.55L996.13 1053.24L1213.4 1053.55L1279.28 1053.86L1297.17 1054.05H1301.82L1303.44 1053.82Z" fill="#263238"/>
<path d="M240.823 225.859L173.284 209.244H173.784C156.346 220.337 136.18 226.393 115.515 226.744C103.281 226.8 91.1079 225.024 79.3998 221.475C58.8157 214.866 40.554 202.502 26.7729 185.844C12.9917 169.187 4.26725 148.933 1.63057 127.475C-0.440261 111.246 1.0842 94.7612 6.09587 79.1878C11.1075 63.6144 19.4837 49.3342 30.6306 37.3594C36.4902 30.9233 43.0574 25.1689 50.2075 20.2056C53.8229 17.9363 57.4383 15.5902 61.2075 13.6287L66.9383 10.8594L69.7844 9.4748L72.7844 8.39788C88.2284 2.41143 104.796 -0.122218 121.323 0.974806C143.473 2.41299 164.701 10.3757 182.333 23.8595C199.964 37.3432 213.21 55.7444 220.4 76.744C224.394 88.4912 226.498 100.798 226.631 113.206C226.727 133.825 221.123 154.07 210.438 171.706V171.09C229.208 204.975 238.669 222.09 240.784 225.859C238.592 222.013 228.784 205.206 209.361 171.667V171.359V171.052C219.663 153.587 224.983 133.634 224.746 113.359C224.567 101.151 222.438 89.0494 218.438 77.5133C211.326 56.9432 198.304 38.9282 181.002 25.7242C163.7 12.5201 142.887 4.71374 121.169 3.28249C104.967 2.22657 88.7302 4.72054 73.5921 10.5902L70.669 11.6287L67.8614 13.0133L62.246 15.7056C58.3998 17.6671 55.0152 19.9364 51.4383 22.1671C44.4261 26.9974 37.9758 32.5962 32.2075 38.8594C21.2645 50.6149 13.0393 64.6322 8.11428 79.919C3.18928 95.2058 1.68485 111.388 3.7075 127.321C7.27328 156.51 22.2489 183.101 45.3613 201.283C55.6944 209.47 67.421 215.724 79.9767 219.744C91.4745 223.298 103.442 225.101 115.477 225.09C135.894 224.871 155.856 219.029 173.169 208.206H173.4H173.823L240.823 225.859Z" fill="#263238"/>
<path d="M104.592 63.6675L108.015 120.206C108.152 122.436 109.099 124.539 110.679 126.119C112.259 127.699 114.362 128.646 116.592 128.783C118.938 128.916 121.247 128.144 123.042 126.628C124.838 125.111 125.984 122.965 126.246 120.629L132.515 63.9752C132.624 62.9616 132.517 61.9364 132.199 60.9676C131.882 59.9987 131.363 59.1083 130.675 58.3555C129.988 57.6026 129.149 57.0045 128.212 56.6008C127.276 56.197 126.265 55.9969 125.246 56.0137H111.515C110.552 56.0424 109.604 56.2655 108.729 56.6696C107.854 57.0738 107.069 57.6506 106.423 58.3654C105.776 59.0803 105.281 59.9185 104.966 60.8296C104.651 61.7407 104.524 62.706 104.592 63.6675Z" fill="#087F63"/>
<path d="M131.515 160.36C130.654 162.942 129.047 165.212 126.897 166.882C124.747 168.551 122.15 169.546 119.435 169.741C116.719 169.935 114.007 169.32 111.641 167.973C109.275 166.627 107.361 164.609 106.142 162.175C104.922 159.741 104.451 157.001 104.789 154.299C105.126 151.598 106.257 149.057 108.038 146.998C109.819 144.939 112.171 143.455 114.795 142.732C117.42 142.009 120.2 142.08 122.784 142.937C124.502 143.506 126.091 144.409 127.46 145.593C128.829 146.777 129.951 148.22 130.762 149.838C131.573 151.456 132.057 153.218 132.186 155.024C132.315 156.829 132.087 158.642 131.515 160.36Z" fill="#087F63"/>
</svg>
