<svg width="1108" height="1034" viewBox="0 0 1108 1034" fill="none" xmlns="http://www.w3.org/2000/svg">
<path d="M554.214 1033.04C859.934 1033.04 1107.77 1018.57 1107.77 1000.72C1107.77 982.871 859.934 968.401 554.214 968.401C248.495 968.401 0.660156 982.871 0.660156 1000.72C0.660156 1018.57 248.495 1033.04 554.214 1033.04Z" fill="#F5F5F5"/>
<path d="M331.297 167.547C303.975 152.245 278.965 119.241 257.438 112.132C264.244 98.0061 272.218 84.4739 281.278 71.6768C302.804 92.5467 327.814 129.233 355.136 127.064C348.313 141.189 340.34 154.729 331.297 167.547Z" fill="#087F63"/>
<path opacity="0.5" d="M331.297 167.547C303.975 152.245 278.965 119.241 257.438 112.132C264.244 98.0061 272.218 84.4739 281.278 71.6768C302.804 92.5467 327.814 129.233 355.136 127.064C348.313 141.189 340.34 154.729 331.297 167.547Z" fill="white"/>
<path opacity="0.2" d="M348.656 135.8C345.801 135.457 344.858 132.317 346.629 129.176C324.588 124.437 304.146 97.7712 285.989 79.4707C285.544 80.0294 284.983 80.485 284.345 80.8061C283.707 81.1272 283.007 81.3061 282.294 81.3305C281.58 81.3549 280.869 81.2243 280.211 80.9476C279.552 80.6708 278.962 80.2547 278.48 79.7277C273.106 87.6234 268.141 95.7899 263.605 104.195C264.795 105.206 265.56 106.628 265.751 108.177C265.941 109.726 265.542 111.291 264.633 112.56C282.82 122.267 303.233 146.82 325.302 161.58C326.363 160.42 327.778 159.642 329.327 159.368C330.876 159.095 332.472 159.34 333.867 160.067C339.226 152.226 344.181 144.117 348.713 135.771L348.656 135.8ZM297.437 129.262C292.013 124.208 290.756 116.414 294.411 111.846C298.065 107.278 305.288 108.192 310.713 113.417C316.137 118.641 317.679 126.093 314.025 130.547C310.37 135 302.976 134.372 297.437 129.262Z" fill="black"/>
<g opacity="0.2">
<path d="M301.577 126.407L300.606 127.578L299.521 126.579C299.864 126.179 300.178 125.779 300.521 125.408C299.404 124.306 298.562 122.956 298.065 121.468L299.55 120.954C299.93 122.188 300.584 123.32 301.463 124.266L303.204 122.153C302.005 120.497 300.778 118.613 302.005 117.157C303.233 115.701 304.66 116.101 306.802 117.899C307.144 117.528 307.458 117.129 307.801 116.729L308.857 117.757L307.887 118.927C308.785 119.829 309.502 120.896 309.999 122.068L308.572 122.639C308.173 121.691 307.623 120.814 306.944 120.041L305.174 122.153C306.373 123.809 307.658 125.694 306.431 127.15C305.203 128.606 303.775 128.292 301.577 126.407ZM304.432 120.897L305.974 119.041C304.975 118.271 304.261 118.271 303.89 118.727C303.518 119.184 303.69 120.098 304.289 121.011L304.432 120.897ZM304.832 125.636C305.26 125.123 304.832 124.352 304.232 123.41L302.691 125.265C303.604 126.179 304.289 126.207 304.689 125.751L304.832 125.636Z" fill="black"/>
</g>
<path d="M565.634 288.371C540.51 301.903 502.482 303.616 486.608 317.063C478.642 303.542 471.713 289.436 465.881 274.867C492.689 269.157 533.658 269.528 544.907 246.146C552.868 259.679 559.797 273.795 565.634 288.371Z" fill="#087F63"/>
<path opacity="0.5" d="M565.634 288.371C540.51 301.903 502.482 303.616 486.608 317.063C478.642 303.542 471.713 289.436 465.881 274.867C492.689 269.157 533.658 269.528 544.907 246.146C552.868 259.679 559.797 273.795 565.634 288.371Z" fill="white"/>
<path opacity="0.2" d="M548.705 256.509C547.049 258.679 544.137 257.622 542.509 254.425C528.234 269.613 497.515 271.269 474.275 275.609C474.527 276.238 474.638 276.914 474.6 277.591C474.561 278.267 474.375 278.927 474.054 279.523C473.732 280.12 473.284 280.638 472.74 281.042C472.196 281.446 471.57 281.726 470.906 281.861C474.332 289.969 478.329 298.477 483.24 307.556C485.467 306.443 488.693 308.184 490.377 311.468C506.708 302.189 535.8 299.391 558.069 289.884C557.648 288.454 557.698 286.927 558.212 285.529C558.727 284.13 559.677 282.934 560.924 282.118C557.527 274.039 553.558 265.559 548.705 256.423V256.509ZM519.241 294.281C516.239 295.109 513.038 294.819 510.233 293.464C507.429 292.109 505.212 289.782 503.996 286.915C502.083 281.376 506.251 276.066 512.989 274.61C519.727 273.154 526.35 276.094 528.149 281.576C529.947 287.057 525.865 292.767 519.241 294.281Z" fill="black"/>
<g opacity="0.2">
<path d="M519.041 289.37C519.212 289.855 519.355 290.34 519.498 290.826L518.185 291.14C518.185 290.655 517.871 290.169 517.728 289.684C516.303 289.954 514.834 289.876 513.445 289.455C513.445 288.942 513.645 288.456 513.759 287.971C514.887 288.36 516.095 288.459 517.271 288.256C517.014 287.4 516.729 286.543 516.443 285.658C514.559 285.658 512.475 285.658 511.904 283.803C511.475 282.489 512.303 281.09 514.759 280.348C514.587 279.863 514.445 279.377 514.273 278.892L515.615 278.606C515.615 279.092 515.901 279.577 516.072 280.063C517.23 279.82 518.426 279.82 519.584 280.063L519.327 281.519C518.382 281.359 517.417 281.359 516.472 281.519C516.757 282.375 517.043 283.26 517.3 284.145C519.212 284.145 521.297 284.145 521.868 285.915C522.353 287.171 521.496 288.599 519.041 289.37ZM515.958 284.088C515.701 283.317 515.472 282.546 515.215 281.775C514.131 282.175 513.788 282.746 513.959 283.317C514.131 283.888 514.959 284.059 515.958 284.088ZM519.898 286.429C519.698 285.801 518.898 285.658 517.871 285.658C518.099 286.429 518.356 287.2 518.584 287.942C519.726 287.543 519.955 287 519.955 286.429H519.898Z" fill="black"/>
</g>
<path d="M770.994 108.478C741.359 118.47 712.21 130.832 690.141 150.104C682.318 138.512 674.267 126.721 666.93 114.359C691.625 95.4877 720.432 83.5824 747.783 72.7334C755.606 84.3247 763.657 96.1158 770.994 108.478Z" fill="#087F63"/>
<path opacity="0.5" d="M770.994 108.478C741.359 118.47 712.21 130.832 690.141 150.104C682.318 138.512 674.267 126.721 666.93 114.359C691.625 95.4877 720.432 83.5824 747.783 72.7334C755.606 84.3247 763.657 96.1158 770.994 108.478Z" fill="white"/>
<path opacity="0.2" d="M750.067 80.1273C748.552 80.6852 746.895 80.7333 745.349 80.2644C743.804 79.7955 742.453 78.8353 741.502 77.5293C718.834 86.6938 695.537 96.8291 674.753 111.361C675.528 112.768 675.772 114.405 675.442 115.977C675.112 117.549 674.229 118.95 672.954 119.926C677.636 127.492 682.518 134.858 687.4 142.138C687.956 141.661 688.609 141.31 689.313 141.108C690.017 140.907 690.757 140.861 691.481 140.972C692.205 141.083 692.896 141.349 693.508 141.753C694.119 142.156 694.636 142.687 695.023 143.308C714.266 128.462 737.848 118.013 761.83 109.362C761.437 108.747 761.195 108.047 761.123 107.32C761.051 106.593 761.151 105.859 761.415 105.178C761.679 104.497 762.1 103.888 762.643 103.4C763.186 102.911 763.837 102.558 764.542 102.368C759.86 94.8306 754.949 87.4647 750.096 80.1844L750.067 80.1273ZM722.203 117.67C719.38 119.174 716.103 119.585 712.996 118.827C709.89 118.069 707.171 116.194 705.358 113.559C704.57 112.245 704.07 110.78 703.889 109.258C703.708 107.737 703.852 106.194 704.311 104.732C704.769 103.271 705.532 101.922 706.549 100.777C707.566 99.631 708.815 98.7137 710.212 98.0852C713.139 96.6425 716.49 96.3133 719.642 97.159C722.794 98.0047 725.53 99.9676 727.342 102.682C728.108 103.979 728.583 105.426 728.736 106.924C728.888 108.422 728.715 109.936 728.226 111.36C727.738 112.785 726.946 114.087 725.907 115.176C724.867 116.265 723.603 117.116 722.203 117.67Z" fill="black"/>
<g opacity="0.2">
<path d="M720.547 112.532L721.432 113.988L720.233 114.559L719.348 113.131C718.038 113.741 716.589 113.988 715.151 113.845C715.151 113.302 715.151 112.731 715.008 112.189C716.189 112.341 717.389 112.183 718.491 111.732C717.977 110.847 717.435 109.991 716.893 109.134C715.065 109.591 713.067 109.991 711.982 108.192C711.154 106.879 711.525 105.166 713.666 103.852L712.753 102.368L713.952 101.797L714.837 103.224C715.917 102.76 717.088 102.546 718.263 102.596C718.263 103.11 718.406 103.653 718.491 104.195C717.521 104.159 716.553 104.304 715.636 104.623L717.235 107.25C719.062 106.822 721.118 106.422 722.231 108.221C723.088 109.534 722.66 111.19 720.547 112.532ZM715.95 107.564L714.523 105.251C713.581 105.908 713.438 106.593 713.781 107.164C714.123 107.735 714.951 107.764 715.95 107.564ZM720.49 109.22C720.09 108.592 719.262 108.62 718.263 108.82L719.662 111.104C720.633 110.448 720.832 109.791 720.49 109.277V109.22Z" fill="black"/>
</g>
<path d="M249.245 412.848C227.661 390.351 192.573 392.464 170.989 370.023C177.784 357.614 184.589 345.194 191.402 332.766C212.986 355.263 248.074 353.179 269.658 375.59C262.863 388.019 256.058 400.438 249.245 412.848Z" fill="#087F63"/>
<path opacity="0.5" d="M249.245 412.848C227.661 390.351 192.573 392.464 170.989 370.023C177.784 357.614 184.589 345.194 191.402 332.766C212.986 355.263 248.074 353.179 269.658 375.59C262.863 388.019 256.058 400.438 249.245 412.848Z" fill="white"/>
<path opacity="0.2" d="M264.147 380.958C262.947 379.845 262.133 378.378 261.825 376.771C261.517 375.163 261.731 373.5 262.434 372.022C242.906 356.89 215.955 355.32 196.427 340.16C196.121 340.816 195.66 341.388 195.083 341.825C194.506 342.263 193.832 342.554 193.117 342.672C192.403 342.79 191.671 342.732 190.984 342.503C190.297 342.275 189.676 341.882 189.175 341.359L176.471 364.599C177.66 365.713 178.465 367.176 178.767 368.778C179.07 370.379 178.856 372.035 178.155 373.506C197.683 388.666 224.634 390.237 244.163 405.397C244.466 404.739 244.925 404.164 245.5 403.724C246.076 403.283 246.75 402.99 247.464 402.869C248.179 402.748 248.912 402.803 249.6 403.03C250.289 403.256 250.911 403.647 251.414 404.169L264.119 380.958H264.147ZM214.471 382.386C213.048 381.926 211.747 381.152 210.663 380.121C209.58 379.09 208.743 377.829 208.214 376.43C207.685 375.032 207.477 373.532 207.606 372.043C207.735 370.553 208.198 369.111 208.961 367.825C210.644 365.008 213.246 362.856 216.33 361.733C219.413 360.61 222.79 360.583 225.891 361.658C227.314 362.107 228.618 362.873 229.705 363.897C230.791 364.921 231.632 366.177 232.165 367.572C232.697 368.966 232.908 370.463 232.78 371.951C232.653 373.438 232.191 374.878 231.429 376.162C229.754 378.995 227.15 381.163 224.06 382.297C220.969 383.432 217.582 383.463 214.471 382.386Z" fill="black"/>
<g opacity="0.2">
<path d="M218.325 377.96C218.068 378.474 217.783 378.988 217.497 379.502L216.27 379.045L217.098 377.532C215.85 377.062 214.788 376.201 214.071 375.077L215.499 373.935C216.075 374.868 216.922 375.605 217.926 376.047C218.411 375.134 218.925 374.22 219.439 373.192C217.983 372.222 216.584 371.08 217.526 369.167C218.041 368.367 218.82 367.773 219.727 367.486C220.634 367.2 221.612 367.239 222.494 367.597L223.35 366.026L224.578 366.483L223.721 367.996C224.742 368.39 225.633 369.063 226.291 369.938L224.92 371.08C224.378 370.409 223.696 369.863 222.922 369.481L221.409 372.336C222.865 373.307 224.264 374.449 223.35 376.361C222.825 377.166 222.038 377.765 221.123 378.056C220.207 378.348 219.219 378.314 218.325 377.96ZM220.324 371.651L221.666 369.195C220.524 368.967 219.81 369.195 219.496 369.909C219.182 370.623 219.61 371.08 220.324 371.651ZM221.38 375.819C221.751 375.134 221.38 374.591 220.495 374.02L219.153 376.447C220.324 376.704 221.037 376.39 221.38 375.819Z" fill="black"/>
</g>
<path d="M955.427 298.392C935.042 323.002 899.926 309.812 879.541 329.483C872.09 315.979 864.638 302.989 857.187 290.94C877.571 266.33 912.688 279.52 933.072 259.85C940.524 273.354 947.975 286.287 955.427 298.392Z" fill="#087F63"/>
<path opacity="0.5" d="M955.427 298.392C935.042 323.002 899.926 309.812 879.541 329.483C872.09 315.979 864.638 302.989 857.187 290.94C877.571 266.33 912.688 279.52 933.072 259.85C940.524 273.354 947.975 286.287 955.427 298.392Z" fill="white"/>
<path opacity="0.2" d="M935.698 268.899C933.443 270.926 929.988 269.699 928.389 266.587C909.689 278.635 882.852 272.097 864.181 287.286C864.958 288.711 865.258 290.347 865.037 291.956C864.816 293.564 864.086 295.059 862.953 296.222C867.578 304.016 872.232 312.124 876.885 320.461C879.141 318.434 882.595 319.661 884.194 322.745C902.866 310.697 929.703 317.234 948.403 302.074C947.619 300.656 947.315 299.022 947.536 297.417C947.757 295.811 948.492 294.32 949.631 293.167C944.977 285.401 940.323 277.265 935.698 268.928V268.899ZM911.688 305.843C905.578 306.671 897.955 302.246 894.558 295.822C891.16 289.398 893.187 283.146 899.269 282.289C905.35 281.433 913.03 285.915 916.398 292.339C919.767 298.763 917.797 304.987 911.688 305.843Z" fill="black"/>
<g opacity="0.2">
<path d="M909.946 300.162L910.86 301.903L909.689 302.074L908.747 300.333C907.286 300.455 905.819 300.189 904.493 299.562L904.322 297.878C905.42 298.425 906.636 298.69 907.862 298.648L906.235 295.537C905.236 295.568 904.246 295.337 903.364 294.866C902.482 294.395 901.739 293.701 901.21 292.853C900.965 292.523 900.812 292.133 900.767 291.724C900.723 291.314 900.789 290.901 900.957 290.525C901.126 290.15 901.392 289.827 901.727 289.588C902.063 289.35 902.456 289.206 902.866 289.17L901.924 287.4L903.123 287.229L904.037 288.97C905.221 288.886 906.41 289.061 907.52 289.484C907.52 290.055 907.662 290.597 907.748 291.14C906.836 290.798 905.867 290.633 904.893 290.654L906.578 293.795C907.574 293.76 908.562 293.987 909.444 294.453C910.325 294.919 911.069 295.607 911.602 296.45C911.846 296.783 911.997 297.174 912.041 297.585C912.084 297.995 912.019 298.409 911.851 298.786C911.683 299.163 911.418 299.488 911.083 299.73C910.749 299.972 910.357 300.12 909.946 300.162ZM905.378 293.652L903.894 290.797C902.952 291.14 902.809 291.768 903.18 292.453C903.42 292.818 903.746 293.119 904.129 293.328C904.512 293.537 904.942 293.649 905.378 293.652ZM910.003 296.85C909.743 296.494 909.404 296.203 909.013 296C908.622 295.797 908.189 295.687 907.748 295.679L909.204 298.534C910.032 298.135 910.203 297.535 909.861 296.85H910.003Z" fill="black"/>
</g>
<path d="M831.148 490.476C749.647 647.656 641.539 789.533 511.618 909.817L312.025 757.703C442.037 637.446 550.224 495.566 631.784 338.362L831.148 490.476Z" fill="#087F63"/>
<path opacity="0.2" d="M831.148 490.476C824.449 503.438 817.54 516.285 810.421 529.019C731.626 670.982 630.767 799.519 511.618 909.817L312.025 757.703C442.037 637.446 550.224 495.566 631.784 338.362L831.148 490.476Z" fill="white"/>
<path opacity="0.2" d="M662.989 378.988C661.088 382.833 658.345 386.2 654.964 388.839C651.583 391.478 647.651 393.321 643.459 394.232C639.268 395.142 634.925 395.097 630.754 394.099C626.583 393.101 622.69 391.176 619.365 388.467C548.599 515.086 460.222 631.023 356.877 732.807C360.391 735.276 363.3 738.509 365.383 742.265C367.466 746.02 368.67 750.199 368.904 754.487C369.137 758.775 368.395 763.061 366.732 767.02C365.069 770.98 362.529 774.51 359.304 777.345L483.696 872.16C490.688 865.789 499.651 862.003 509.093 861.431C518.536 860.86 527.89 863.538 535.599 869.019C638.953 767.242 727.331 651.304 798.087 524.679C783.099 513.259 778.502 490.59 787.381 473.803L787.524 473.546L663.103 378.731L662.989 378.988ZM640.149 680.276C616.653 711.024 571.401 715.963 540.767 692.609C510.133 669.255 505.565 626.373 529.09 595.54C552.615 564.706 595.24 557.854 625.931 581.265C656.622 604.675 663.817 649.527 640.263 680.276H640.149Z" fill="black"/>
<g opacity="0.2">
<path d="M618.795 654.581L627.045 660.862L622.42 666.915L614.169 660.605C608.203 667.514 600.408 672.653 594.184 673.909L589.331 664.973C595.876 663.202 601.774 659.585 606.318 654.552L591.586 643.332C583.364 650.013 573.857 656.694 563.636 648.871C556.127 643.161 553.872 632.797 561.58 620.464L553.272 614.126C554.814 612.127 556.356 610.1 557.869 608.073L566.034 614.297C570.268 609.177 575.688 605.169 581.822 602.62L586.99 611.356C582.083 613.421 577.659 616.483 574 620.35L588.846 631.77C597.068 625.06 606.318 617.98 616.539 625.774C624.019 631.398 626.417 641.962 618.795 654.581ZM582.765 636.566L569.66 626.574C566.463 632.426 567.376 636.652 570.631 639.107C573.886 641.562 578.168 639.878 582.765 636.566ZM610.172 635.738C606.575 632.883 602.435 634.967 597.81 638.593L610.829 648.528C614.169 642.362 613.284 638.165 610.115 635.738H610.172Z" fill="black"/>
</g>
<path opacity="0.2" d="M810.507 528.962C731.691 670.952 630.802 799.508 511.618 909.818C511.618 909.818 427.053 780.801 391.965 756.819C391.965 756.819 664.388 655.724 810.507 528.962Z" fill="black"/>
<path d="M1021.75 700.46C888.975 817.617 736.918 910.898 572.315 976.167L440.985 762.271C605.584 697.01 757.633 603.728 890.39 486.564C934.204 557.882 977.99 629.181 1021.75 700.46Z" fill="#087F63"/>
<path opacity="0.3" d="M1021.75 700.461C888.975 817.618 736.918 910.898 572.315 976.168L515.586 883.723C490.843 843.277 466.014 802.803 441.1 762.3C605.698 697.039 757.747 603.758 890.504 486.594C934.242 557.892 977.99 629.182 1021.75 700.461Z" fill="white"/>
<path opacity="0.2" d="M905.064 535.757C901.925 538.687 898.162 540.867 894.059 542.133C889.955 543.398 885.618 543.715 881.374 543.061C877.13 542.407 873.089 540.798 869.557 538.356C866.025 535.914 863.093 532.702 860.983 528.962C749.276 621.502 625.007 697.728 491.889 755.363C494.279 758.931 495.826 762.996 496.414 767.25C497.003 771.505 496.617 775.837 495.286 779.92C493.955 784.003 491.714 787.731 488.732 790.821C485.75 793.912 482.105 796.284 478.071 797.759L559.924 930.973C568.745 927.558 578.47 927.265 587.482 930.142C596.493 933.019 604.248 938.894 609.458 946.79C742.587 889.178 866.859 812.949 978.551 720.389C968.673 704.344 972.584 681.533 986.916 668.999L987.145 668.799L905.378 535.557L905.064 535.757ZM775.162 808.523C742.129 828.736 698.077 817.088 678.092 784.17C658.107 751.252 669.184 709.683 702.217 689.498C735.249 669.313 777.503 678.078 797.688 711.11C817.872 744.143 808.308 788.366 775.162 808.523Z" fill="black"/>
<g opacity="0.2">
<path d="M764.427 776.746L769.852 785.596L763.342 789.565C761.572 786.71 759.774 783.855 757.975 780.828C749.924 785.082 740.845 787.081 734.478 785.996C734.05 782.627 733.622 779.258 733.165 775.889C739.903 776.595 746.703 775.346 752.75 772.292C749.534 767.039 746.317 761.786 743.1 756.532C732.994 759.787 721.745 762.556 715.007 751.593C710.068 743.542 711.695 733.064 723.344 724.357L717.891 715.449L724.372 711.452L729.739 720.217C735.533 716.973 742.03 715.19 748.668 715.021C749.239 718.361 749.781 721.702 750.352 725.013C745.024 725.196 739.789 726.459 734.964 728.725L744.728 744.656C754.834 741.372 765.997 738.118 772.707 749.052C777.646 757.103 776.047 767.81 764.427 776.746ZM737.248 746.997C734.374 742.315 731.519 737.632 728.683 732.95C723.572 737.261 722.973 741.515 725.057 744.998C727.141 748.481 731.823 748.453 737.248 746.997ZM763.085 756.133C760.716 752.25 756.148 752.621 750.58 754.191L759.145 768.152C764.399 763.727 765.169 759.502 763.085 756.133Z" fill="black"/>
</g>
<path opacity="0.2" d="M1021.75 700.461C888.976 817.618 736.918 910.898 572.315 976.167L515.587 883.723L505.68 740.488C505.68 740.488 820.585 763.214 1021.75 700.461Z" fill="black"/>
<path d="M1059.83 977.681C887.484 1018.29 709.405 1028.75 533.487 1008.6C528.615 925.101 523.723 841.593 518.812 758.075C694.768 778.265 872.891 767.804 1045.27 727.155C1050.09 810.673 1054.94 894.182 1059.83 977.681Z" fill="#087F63"/>
<path opacity="0.4" d="M1059.83 977.681C887.484 1018.29 709.405 1028.75 533.487 1008.6C528.615 925.101 523.723 841.593 518.812 758.075C694.768 778.265 872.891 767.804 1045.27 727.155C1050.09 810.673 1054.94 894.182 1059.83 977.681Z" fill="white"/>
<path opacity="0.2" d="M1034.77 777.345C1030.61 778.406 1026.27 778.517 1022.07 777.67C1017.86 776.824 1013.91 775.041 1010.48 772.454C1007.06 769.868 1004.27 766.544 1002.31 762.73C1000.35 758.916 999.276 754.71 999.165 750.423C857.005 779.259 711.471 787.766 566.919 775.69C567.337 779.964 566.779 784.277 565.288 788.305C563.797 792.332 561.411 795.969 558.311 798.94C555.21 801.912 551.475 804.141 547.388 805.459C543.301 806.778 538.967 807.151 534.715 806.552C537.779 858.608 540.825 910.664 543.851 962.72C553.242 963.863 561.958 968.19 568.546 974.98C575.133 981.77 579.194 990.613 580.052 1000.03C724.604 1012.11 870.138 1003.6 1012.3 974.768C1011.18 955.954 1025.4 937.653 1043.93 933.485H1044.22L1035.05 777.345H1034.77ZM791.464 956.496C752.808 958.694 719.576 927.604 717.234 889.147C714.893 850.69 744.557 819.285 783.213 817.087C821.87 814.889 854.902 842.782 857.158 881.239C859.413 919.695 830.092 954.355 791.464 956.496Z" fill="black"/>
<g opacity="0.2">
<path d="M796.888 923.407L797.488 933.742L789.893 934.199L789.294 923.95C781.081 924.18 772.994 921.899 766.111 917.412C767.339 914.243 768.538 911.074 769.737 907.905C775.349 911.693 781.926 913.803 788.694 913.986C788.352 907.819 787.99 901.662 787.609 895.514C777.189 893.601 765.94 890.746 765.198 877.899C764.655 868.477 771.051 860.026 785.411 857.914L784.812 847.493L792.406 847.036L793.005 857.286C799.645 857.13 806.22 858.631 812.134 861.654L808.879 871.246C804.105 868.882 798.897 867.522 793.576 867.249L794.69 885.921C805.111 887.777 816.502 890.175 817.273 903.051C817.93 912.33 811.477 921.038 796.888 923.407ZM786.981 884.322C786.639 878.86 786.315 873.388 786.011 867.906C779.473 869.277 776.903 872.731 777.132 876.814C777.36 880.896 781.614 882.98 787.096 884.322H786.981ZM805.453 904.593C805.196 900.082 800.999 898.226 795.346 896.998L796.289 913.358C803.112 911.902 805.796 908.675 805.453 904.593Z" fill="black"/>
</g>
<path d="M649.686 977.937C650.428 986.483 651.313 995.172 652.341 1004H51.9365C70.7224 845.294 51.9365 776.489 51.9365 776.489C252.585 761.386 652.341 776.489 652.341 776.489C652.341 776.489 640.265 852.945 648.401 962.434C648.782 967.516 649.21 972.684 649.686 977.937Z" fill="#087F63"/>
<path opacity="0.2" d="M652.341 776.489C626.047 788.765 497.429 790.507 423.428 785.91C349.427 781.314 252.585 795.332 252.585 795.332C196.513 775.975 51.9365 776.489 51.9365 776.489C252.585 761.386 652.341 776.489 652.341 776.489Z" fill="white"/>
<path opacity="0.2" d="M51.9365 1004C70.7224 845.294 51.9365 776.489 51.9365 776.489C51.9365 776.489 170.961 773.89 252.585 795.331C252.585 795.331 255.44 819.542 252.585 831.99C252.585 831.99 350.768 816.059 438.16 818.171C438.16 818.171 302.89 833.731 252.585 845.294C252.585 845.294 171.675 832.675 120.485 831.99C120.485 831.99 226.919 845.836 252.585 854.116C252.585 854.116 283.02 848.577 298.95 848.577C298.95 848.577 260.836 855.515 252.585 861.71V905.563C252.585 905.563 167.621 907.247 124.996 901.166C145.238 904.335 227.775 917.04 252.585 917.04C252.585 917.04 346.343 913.585 400.788 917.04C400.788 917.04 276.739 924.177 252.585 929.944H146.094L252.585 938.88V947.759H298.265L252.585 955.639C252.585 955.639 120.485 947.246 82.4849 955.639C82.4849 955.639 238.396 962.72 252.414 968.23L252.585 981.363C252.585 981.363 427.425 958.266 582.051 978.136C582.051 978.136 356.25 969.172 252.585 994.296C252.585 994.296 576.941 987.244 652.284 1004H51.9365Z" fill="black"/>
<path d="M55.4478 795.332L39.6025 800.871C39.6025 800.871 135.045 804.154 196.627 813.575C196.57 813.575 101.699 796.702 55.4478 795.332Z" fill="#087F63"/>
<path opacity="0.2" d="M266.488 813.575L290.641 818.171C290.641 818.171 403.1 805.952 536.028 804.467C536.028 804.467 344.03 795.16 266.488 813.575Z" fill="white"/>
<path opacity="0.2" d="M342.688 839.413C342.688 839.413 410.123 821.027 469.25 821.94C528.377 822.854 640.921 813.575 640.921 813.575L645.346 821.94C645.346 821.94 557.098 827.108 484.268 826.508C436.785 826.599 389.405 830.917 342.688 839.413Z" fill="white"/>
<path opacity="0.2" d="M275.768 866.906C275.768 866.906 356.164 849.777 434.99 851.347C513.817 852.917 613.085 859.084 613.085 859.084C613.085 859.084 397.647 859.084 342.689 870.504L275.768 866.906Z" fill="white"/>
<path d="M414.834 842.011C414.834 842.011 484.068 836.301 543.823 839.413C603.577 842.525 666.33 845.322 666.33 845.322L645.346 851.261C645.346 851.261 501.483 836.843 414.834 842.011Z" fill="#087F63"/>
<path opacity="0.2" d="M414.834 842.011C414.834 842.011 484.068 836.301 543.823 839.413C603.577 842.525 666.33 845.322 666.33 845.322L645.346 851.261C645.346 851.261 501.483 836.843 414.834 842.011Z" fill="black"/>
<path opacity="0.2" d="M278.365 881.438C278.365 881.438 398.275 879.954 456.031 877.07C513.788 874.186 591.244 890.203 591.244 890.203C591.244 890.203 495.687 888.176 466.109 892.858L278.365 881.438Z" fill="black"/>
<path opacity="0.2" d="M266.488 899.596L342.688 892.858L505.023 899.596L340.604 906.334L266.488 899.596Z" fill="white"/>
<path opacity="0.2" d="M323.475 935.369C323.475 935.369 434.277 925.034 477.444 924.492C520.612 923.949 636.781 916.184 636.781 916.184L623.877 933.314C623.877 933.314 405.441 928.66 323.475 935.369Z" fill="white"/>
<path d="M604.434 877.07L645.346 880.924L656.48 877.07C639.169 875.451 621.745 875.451 604.434 877.07Z" fill="#087F63"/>
<path d="M650.513 790.707L666.33 793.248L649.343 802.127L549.418 800.014C549.418 800.014 624.333 799.015 650.513 790.707Z" fill="#087F63"/>
<path opacity="0.2" d="M604.434 877.07L645.346 880.924L656.48 877.07C639.169 875.451 621.745 875.451 604.434 877.07Z" fill="white"/>
<path opacity="0.2" d="M650.513 790.707L666.33 793.248L649.343 802.127L549.418 800.014C549.418 800.014 624.333 799.015 650.513 790.707Z" fill="black"/>
<path opacity="0.2" d="M649.685 977.937C622.848 976.196 434.79 952.556 434.79 952.556C447.323 951.1 611.485 960.807 648.4 962.435C648.781 967.517 649.209 972.684 649.685 977.937Z" fill="black"/>
<path d="M366.527 949.33C366.527 949.33 542.366 948.873 592.671 952.499C642.976 956.125 647.487 949.33 647.487 949.33L672.554 961.407C672.554 961.407 673.839 973.398 607.86 965.032C541.881 956.667 366.527 949.33 366.527 949.33Z" fill="#087F63"/>
<path d="M222.865 860.911C222.865 860.911 119.885 844.58 59.8447 848.748C68.8686 850.8 77.2749 854.968 84.3691 860.911H222.865Z" fill="#087F63"/>
<path d="M59.7305 905.563C62.0716 905.306 136.815 915.155 165.365 916.183L49.167 920.865L59.7305 905.563Z" fill="#087F63"/>
<path d="M55.5048 970.143L168.391 974.14L39.6025 983.675L55.5048 970.143Z" fill="#087F63"/>
<path d="M261.178 768.78C261.178 768.78 421.515 796.188 514.502 686.471L689.684 731.437C689.684 731.437 657.451 798.301 415.348 789.422C173.245 780.543 261.178 768.78 261.178 768.78Z" fill="#087F63"/>
<path opacity="0.5" d="M261.178 768.78C261.178 768.78 421.515 796.188 514.502 686.471L689.684 731.437C689.684 731.437 657.451 798.301 415.348 789.422C173.245 780.543 261.178 768.78 261.178 768.78Z" fill="white"/>
<path opacity="0.2" d="M352.738 774.69C352.738 774.69 450.75 769.523 506.166 706.827C511.252 708.401 516.694 708.41 521.785 706.852C526.876 705.294 531.381 702.242 534.715 698.091L662.591 731.98C662.591 731.98 648.829 736.805 653.654 752.735C653.54 752.735 485.695 820.741 352.738 774.69Z" fill="black"/>
<path d="M499.028 456.701L502.026 440.798C502.026 440.798 495.831 434.917 496.545 429.378C497.258 423.84 524.838 415.103 529.72 414.618C534.602 414.133 532.746 434.118 531.261 437.744C529.777 441.369 513.218 445.738 513.218 445.738L511.134 462.496L499.028 456.701Z" fill="#EBB376"/>
<path d="M181.068 534.87L170.133 522.937C170.133 522.937 172.274 514.686 168.791 510.46C165.308 506.235 137.186 513.173 132.847 515.428C128.507 517.683 140.555 533.586 143.753 535.87C146.951 538.154 163.281 533.015 163.281 533.015L173.902 546.176L181.068 534.87Z" fill="#EBB376"/>
<path d="M398.532 509.233C429.28 507.52 457.145 513.944 471.449 509.233C485.752 504.522 499.627 445.024 499.627 445.024L514.673 450.106C514.673 450.106 508.963 512.031 484.239 528.619C459.515 545.206 402.215 545.063 402.215 545.063L398.532 509.233Z" fill="#087F63"/>
<path opacity="0.7" d="M514.673 450.106C514.673 450.106 508.963 512.031 484.239 528.619C469.964 538.04 445.497 542.066 426.911 543.807C412.836 545.092 402.215 545.063 402.215 545.063L400.502 528.333L398.532 509.233C429.28 507.52 457.145 513.944 471.449 509.233C485.752 504.522 499.627 445.024 499.627 445.024L514.673 450.106Z" fill="white"/>
<path opacity="0.2" d="M426.911 543.807C412.836 545.092 402.215 545.063 402.215 545.063L400.502 528.333C410.072 532.052 418.988 537.276 426.911 543.807Z" fill="black"/>
<path d="M595.099 990.185L614.998 984.732L611.429 936.14L591.559 941.621L595.099 990.185Z" fill="#B97964"/>
<path d="M616.225 982.077L593.1 983.676C592.711 983.691 592.344 983.858 592.077 984.141C591.81 984.424 591.664 984.8 591.672 985.189L591.815 1003.55C591.881 1004.51 592.323 1005.4 593.044 1006.04C593.766 1006.67 594.709 1007 595.669 1006.94C603.72 1006.26 607.546 1005.52 617.71 1004.75C626.778 1004.44 635.813 1003.48 644.746 1001.89C653.311 999.921 651.027 991.641 647.259 991.727C637.523 991.202 628.09 988.162 619.88 982.905C618.784 982.238 617.501 981.947 616.225 982.077Z" fill="#263238"/>
<path d="M623.763 985.074C621.91 985.161 620.053 985.046 618.224 984.732C618.132 984.719 618.045 984.68 617.974 984.619C617.903 984.559 617.851 984.479 617.824 984.389C617.811 984.298 617.817 984.206 617.841 984.117C617.866 984.029 617.909 983.946 617.967 983.875C618.595 983.361 624.163 978.993 626.761 979.793C627.054 979.886 627.318 980.054 627.528 980.279C627.738 980.504 627.886 980.779 627.96 981.077C628.159 981.52 628.228 982.011 628.157 982.492C628.086 982.973 627.879 983.423 627.56 983.79C626.491 984.663 625.142 985.119 623.763 985.074ZM626.475 980.792C625.105 980.364 621.793 982.334 619.509 984.018C623.249 984.475 625.933 984.189 626.846 983.162C627.03 982.915 627.147 982.626 627.187 982.321C627.227 982.016 627.189 981.706 627.075 981.42C627.028 981.277 626.951 981.146 626.847 981.038C626.743 980.929 626.616 980.845 626.475 980.792Z" fill="#263238"/>
<path d="M618.31 984.732C618.279 984.747 618.245 984.755 618.21 984.755C618.175 984.755 618.141 984.747 618.11 984.732C618.042 984.697 617.982 984.648 617.932 984.589C617.883 984.53 617.847 984.462 617.825 984.389C617.825 984.189 616.94 978.251 618.852 976.081C619.107 975.809 619.417 975.597 619.763 975.459C620.108 975.321 620.48 975.26 620.851 975.281C621.261 975.268 621.664 975.39 621.999 975.627C622.334 975.864 622.582 976.204 622.707 976.595C623.306 978.822 620.537 983.333 618.595 984.674C618.555 984.704 618.508 984.725 618.459 984.735C618.41 984.745 618.359 984.744 618.31 984.732ZM620.594 976.338C620.4 976.346 620.21 976.396 620.038 976.485C619.865 976.574 619.714 976.699 619.595 976.852C618.591 978.896 618.28 981.211 618.71 983.447C620.492 981.737 621.58 979.429 621.764 976.966C621.764 976.68 621.507 976.366 620.822 976.338H620.594Z" fill="#263238"/>
<path opacity="0.2" d="M591.559 941.621L611.458 936.168L613.485 963.947L593.471 968.401L591.559 941.621Z" fill="black"/>
<path d="M569.061 989.471L550.246 998.064L545.478 977.851L539.055 950.672L557.783 942.078L564.236 969.229L569.061 989.471Z" fill="#B97964"/>
<path opacity="0.2" d="M564.236 969.229L545.478 977.851L539.055 950.672L557.783 942.078L564.236 969.229Z" fill="black"/>
<path d="M569.832 986.673L547.278 991.955C546.9 992.025 546.565 992.241 546.345 992.556C546.126 992.872 546.04 993.261 546.107 993.64L549.19 1011.77C549.282 1012.24 549.467 1012.69 549.735 1013.09C550.002 1013.49 550.346 1013.83 550.748 1014.1C551.149 1014.37 551.599 1014.55 552.072 1014.64C552.545 1014.73 553.031 1014.72 553.501 1014.62C561.353 1012.65 564.921 1011.31 574.914 1008.91C583.825 1007.22 592.603 1004.9 601.18 1001.95C609.202 998.664 605.748 990.842 602.065 991.527C593.329 993.097 580.253 990.242 573.515 987.13C572.372 986.572 571.076 986.411 569.832 986.673Z" fill="#263238"/>
<path d="M577.768 988.443C575.946 988.814 574.089 988.986 572.23 988.957C572.136 988.971 572.04 988.953 571.957 988.906C571.875 988.86 571.81 988.787 571.773 988.7C571.73 988.621 571.708 988.533 571.708 988.443C571.708 988.353 571.73 988.265 571.773 988.186C572.315 987.586 577.083 982.476 579.795 982.733C580.096 982.785 580.379 982.911 580.619 983.101C580.858 983.29 581.046 983.537 581.166 983.818C581.448 984.24 581.599 984.737 581.599 985.245C581.599 985.754 581.448 986.25 581.166 986.673C580.271 987.637 579.071 988.262 577.768 988.443ZM579.767 983.789C578.311 983.561 575.37 986.045 573.372 988.072C577.14 987.929 579.767 987.215 580.481 986.073C580.642 985.806 580.727 985.5 580.727 985.188C580.727 984.876 580.642 984.57 580.481 984.303C580.429 984.165 580.34 984.045 580.224 983.954C580.109 983.863 579.97 983.806 579.824 983.789H579.767Z" fill="#263238"/>
<path d="M572.316 988.957C572.289 988.97 572.26 988.976 572.23 988.976C572.201 988.976 572.172 988.97 572.145 988.957C572.068 988.933 571.997 988.893 571.938 988.839C571.879 988.784 571.832 988.718 571.802 988.643C571.802 988.472 569.918 982.705 571.488 980.278C571.692 979.969 571.961 979.709 572.277 979.517C572.593 979.325 572.948 979.204 573.315 979.165C573.724 979.08 574.148 979.135 574.521 979.322C574.894 979.508 575.194 979.815 575.371 980.192C576.313 982.276 574.315 987.187 572.516 988.757C572.506 988.806 572.482 988.852 572.446 988.887C572.41 988.923 572.365 988.947 572.316 988.957ZM573.23 980.392C572.853 980.488 572.527 980.723 572.316 981.049C571.663 983.237 571.723 985.577 572.487 987.729C573.977 985.759 574.697 983.313 574.514 980.849C574.514 980.563 574.143 980.278 573.458 980.364L573.23 980.392Z" fill="#263238"/>
<path d="M429.652 713.536L423.57 646.387L311.455 649.013C311.455 649.013 298.179 742.571 307.829 759.758C324.959 790.45 438.074 773.034 464.511 775.632C475.303 781.342 533.031 972.826 533.031 972.826L565.378 959.779C565.378 959.779 530.604 798.215 522.553 767.781C511.675 725.47 466.795 726.212 429.652 713.536Z" fill="#263238"/>
<path d="M615.455 956.468L586.905 959.094C586.905 959.094 551.931 780.971 549.219 780.201C544.365 778.802 530.176 777.203 522.553 775.204C469.622 761.443 339.263 736.119 339.263 736.119L387.341 689.812C387.341 689.812 605.291 715.963 610.03 767.125C612.457 791.621 615.455 956.468 615.455 956.468Z" fill="#263238"/>
<path opacity="0.2" d="M541.539 780.343C536.657 778.944 530.119 777.231 522.553 775.232C524.666 776.346 518.556 748.624 512.447 741.458C500.313 727.183 451.607 719.417 434.163 716.619C419.545 714.278 370.554 709.967 370.554 709.967C370.554 709.967 457.06 702.487 522.239 720.388C554.472 729.238 548.734 760.7 541.539 780.343Z" fill="black"/>
<path d="M296.495 525.535C296.495 525.535 337.864 503.58 398.533 509.233C398.533 509.233 419.574 562.736 423.571 646.273L310.77 654.095C310.77 654.095 312.797 582.492 296.495 525.535Z" fill="#087F63"/>
<path opacity="0.7" d="M310.77 654.21C311.059 634.714 310.335 615.217 308.6 595.796C307.601 584.376 306.174 572.357 304.118 560.109C302.229 548.45 299.684 536.907 296.495 525.535C296.495 525.535 337.864 503.58 398.533 509.233C398.533 509.233 419.574 562.736 423.571 646.273L310.77 654.21Z" fill="white"/>
<path opacity="0.2" d="M308.685 595.796C307.686 584.377 306.259 572.357 304.203 560.109C306.206 558.073 308.62 556.487 311.284 555.455L311.426 554.199C311.341 555.57 317.25 576.668 308.685 595.796Z" fill="black"/>
<path d="M327.757 517.769C338.092 527.162 363.387 523.679 363.387 523.679C363.387 523.679 379.175 519.368 375.863 514.429C366.556 512.887 362.074 508.548 360.19 503.009C359.19 499.553 358.87 495.937 359.247 492.36C359.247 490.418 359.704 488.42 360.047 486.45L328.67 463.296C332.867 478.57 337.892 506.692 327.757 517.769Z" fill="#EBB376"/>
<path opacity="0.2" d="M335.979 477.999C337.236 496.756 352.653 501.952 360.19 503.009C359.19 499.553 358.87 495.937 359.248 492.36L335.979 477.999Z" fill="black"/>
<path d="M355.821 398.944C367.441 402.085 377.12 428.893 368.412 446.623C359.704 464.352 333.467 414.761 333.467 414.761C333.467 414.761 348.313 396.946 355.821 398.944Z" fill="#263238"/>
<path d="M380.061 460.441C380.118 461.525 380.118 462.611 380.061 463.695C379.861 471.432 376.74 478.807 371.325 484.337C366.485 489.378 359.939 492.432 352.967 492.902C348.007 493.148 343.073 492.042 338.692 489.704C324.817 482.652 321.077 470.433 312.997 450.277C310.985 445.587 310.218 440.456 310.771 435.383C311.324 430.309 313.178 425.464 316.153 421.317C319.128 417.171 323.123 413.863 327.753 411.713C332.382 409.564 337.487 408.647 342.575 409.051C365.415 410.735 378.291 440.456 380.061 460.441Z" fill="#EBB376"/>
<path d="M346.143 445.566C346.571 447.251 347.999 448.421 348.998 447.936C349.997 447.451 350.54 445.909 349.997 444.253C349.455 442.597 348.084 441.398 347.142 441.883C346.2 442.369 345.601 443.853 346.143 445.566Z" fill="#263238"/>
<path d="M365.072 439.343C365.5 441.027 366.956 442.055 367.927 441.712C368.897 441.37 369.468 439.685 368.926 438.001C368.384 436.316 367.042 435.289 366.071 435.631C365.1 435.974 364.558 437.744 365.072 439.343Z" fill="#263238"/>
<path d="M359.333 442.141C363.015 446.603 367.289 450.542 372.038 453.846C371.157 455.049 370.023 456.043 368.716 456.758C367.408 457.474 365.959 457.893 364.472 457.986L359.333 442.141Z" fill="#D58745"/>
<path d="M369.44 429.036C369.302 429.169 369.134 429.267 368.95 429.322C368.766 429.377 368.572 429.386 368.383 429.35C367.134 429.009 365.822 428.965 364.552 429.223C363.283 429.481 362.092 430.033 361.075 430.835C360.878 431.024 360.614 431.128 360.341 431.122C360.068 431.117 359.808 431.003 359.619 430.806C359.429 430.61 359.326 430.346 359.331 430.073C359.337 429.8 359.45 429.54 359.647 429.35C360.915 428.309 362.413 427.585 364.016 427.237C365.62 426.89 367.283 426.929 368.869 427.352C369.002 427.379 369.129 427.433 369.242 427.509C369.355 427.586 369.451 427.684 369.526 427.798C369.6 427.913 369.651 428.041 369.675 428.175C369.7 428.309 369.697 428.446 369.668 428.58C369.609 428.74 369.533 428.893 369.44 429.036Z" fill="#263238"/>
<path d="M339.891 439.228C339.697 439.301 339.484 439.301 339.291 439.228C339.057 439.091 338.887 438.867 338.818 438.605C338.748 438.343 338.785 438.064 338.92 437.829C339.753 436.408 340.912 435.205 342.302 434.322C343.693 433.438 345.274 432.898 346.914 432.747C347.049 432.744 347.183 432.766 347.31 432.815C347.436 432.863 347.551 432.935 347.649 433.028C347.747 433.121 347.826 433.232 347.881 433.355C347.936 433.479 347.967 433.612 347.97 433.747C347.971 434.017 347.867 434.278 347.681 434.474C347.495 434.671 347.241 434.788 346.971 434.803C345.679 434.959 344.44 435.414 343.355 436.133C342.27 436.852 341.367 437.814 340.719 438.943C340.608 439.045 340.477 439.124 340.335 439.173C340.192 439.222 340.041 439.241 339.891 439.228Z" fill="#263238"/>
<path d="M319.677 419.443L324.16 428.008C322.946 429.322 322.272 431.045 322.272 432.833C322.272 434.622 322.946 436.345 324.16 437.658C329.87 444.053 330.098 457.301 326.101 464.153C326.101 464.153 324.702 460.984 322.247 462.782C319.792 464.581 327.043 481.225 335.466 487.249C335.466 487.249 324.588 483.053 313.225 467.036C302.719 452.247 296.952 438.743 297.894 431.092L319.677 419.443Z" fill="#263238"/>
<path d="M309.6 469.891C313.399 473.799 318.596 476.038 324.046 476.115C331.298 476.115 333.011 469.234 329.413 463.382C326.187 458.214 318.507 451.79 312.026 454.617C305.546 457.443 304.975 465.038 309.6 469.891Z" fill="#EBB376"/>
<path d="M366.699 465.152C365.384 468.028 364.277 470.996 363.387 474.031L361.732 473.831C354.251 472.832 351.082 469.891 349.883 466.922C349.326 465.468 349.121 463.903 349.284 462.354C349.342 461.464 349.534 460.588 349.855 459.756C354.196 462.439 359.065 464.152 364.13 464.781C365.786 465.066 366.699 465.152 366.699 465.152Z" fill="#263238"/>
<path d="M364.159 464.781L363.102 467.379C356.05 466.408 351.197 464.781 349.284 462.354C349.342 461.464 349.535 460.588 349.855 459.756C354.205 462.442 359.084 464.156 364.159 464.781Z" fill="white"/>
<path d="M361.731 473.831C354.251 472.832 351.082 469.891 349.883 466.922C352.731 467.396 355.475 468.362 357.991 469.777C359.627 470.709 360.933 472.125 361.731 473.831Z" fill="#DE5753"/>
<path d="M338.777 420.928C338.777 420.928 336.779 407.281 345.401 409.936C354.023 412.592 354.622 407.395 352.053 396.861C349.483 386.326 324.759 382.586 310.77 399.858C296.78 417.131 291.898 431.606 298.665 439.257C305.431 446.909 331.212 424.326 331.212 424.326C331.914 420.468 333.551 416.841 335.979 413.762C336.138 416.385 337.116 418.892 338.777 420.928Z" fill="#263238"/>
<path d="M352.11 522.594L365.786 534.671C365.786 534.671 373.294 585.49 391.738 607.701H403.158L405.413 599.822C388.257 580.667 375.941 557.68 369.497 532.786V516.599L352.11 522.594Z" fill="#263238"/>
<path d="M331.24 506.777L359.333 517.312L361.731 503.009L376.32 508.29L380.06 526.363L360.189 521.452L350.34 534.642L321.704 516.113L331.24 506.777Z" fill="#087F63"/>
<path opacity="0.5" d="M331.24 506.777L359.333 517.312L361.731 503.009L376.32 508.29L380.06 526.363L360.189 521.452L350.34 534.642L321.704 516.113L331.24 506.777Z" fill="white"/>
<path d="M309.171 652.325L424.884 641.333L425.141 655.38L309.228 664.858L309.171 652.325Z" fill="black"/>
<path d="M400.388 644.217C399.866 643.746 399.25 643.391 398.581 643.174C397.912 642.958 397.205 642.885 396.506 642.961L386.256 644.017C384.989 644.146 383.817 644.745 382.971 645.697C382.125 646.648 381.667 647.883 381.688 649.156V655.722C381.718 657.073 382.282 658.357 383.255 659.293C384.229 660.229 385.534 660.742 386.884 660.719H387.312L397.562 659.634C398.826 659.505 399.995 658.904 400.837 657.952C401.678 657 402.129 655.765 402.101 654.495V647.957C402.098 647.248 401.943 646.547 401.648 645.902C401.352 645.258 400.923 644.683 400.388 644.217ZM397.391 657.007L387.17 658.092C386.819 658.14 386.463 658.114 386.123 658.015C385.784 657.916 385.469 657.747 385.199 657.518C384.93 657.289 384.712 657.005 384.559 656.686C384.407 656.367 384.324 656.019 384.315 655.665V649.127C384.304 648.506 384.527 647.903 384.939 647.438C385.352 646.973 385.923 646.679 386.542 646.615L396.763 645.559H396.991C397.64 645.559 398.263 645.812 398.727 646.266C399.192 646.719 399.46 647.337 399.475 647.985V648.87H399.075L396.22 649.127C395.991 649.148 395.769 649.213 395.566 649.32C395.362 649.427 395.182 649.572 395.035 649.749C394.887 649.925 394.776 650.128 394.708 650.348C394.64 650.567 394.615 650.797 394.636 651.026C394.656 651.255 394.722 651.477 394.828 651.681C394.935 651.884 395.08 652.064 395.257 652.211C395.433 652.359 395.637 652.47 395.856 652.538C396.075 652.607 396.305 652.631 396.534 652.611L399.389 652.325H399.532V654.58C399.53 655.176 399.312 655.75 398.918 656.197C398.524 656.643 397.981 656.931 397.391 657.007Z" fill="white"/>
<path d="M296.495 525.535C277.195 536.955 249.331 574.555 239.538 573.785C229.745 573.014 176.928 526.106 176.928 526.106L164.88 539.153C164.88 539.153 213.672 597.424 236.397 601.82C259.123 606.217 309.171 564.077 309.171 564.077C312.002 556.816 312.002 548.756 309.171 541.495C306.604 535.045 302.196 529.495 296.495 525.535Z" fill="#087F63"/>
<path opacity="0.7" d="M296.495 525.535C277.195 536.955 249.331 574.555 239.538 573.785C229.745 573.014 176.928 526.106 176.928 526.106L164.88 539.153C164.88 539.153 213.672 597.424 236.397 601.82C259.123 606.217 309.171 564.077 309.171 564.077C312.002 556.816 312.002 548.756 309.171 541.495C306.604 535.045 302.196 529.495 296.495 525.535Z" fill="white"/>
<path d="M473.161 790.935C473.161 790.935 89.993 793.59 66.2109 739.773L236.854 727.383C270.719 741.589 305.38 753.819 340.661 764.012C380.06 775.518 426.768 786.424 473.161 790.935Z" fill="#087F63"/>
<path opacity="0.2" d="M473.161 790.935C473.161 790.935 461.142 790.935 441.157 790.935C359.19 785.225 263.491 744.513 263.491 744.513C228.945 752.107 205.192 738.489 205.192 738.489L112.062 743.828C112.564 746.121 112.542 748.498 111.998 750.782C111.454 753.065 110.403 755.197 108.922 757.018C157.199 770.579 209.246 778.83 251.671 783.826C162.053 777.117 77.0027 764.327 66.0967 739.859L236.74 727.469C236.74 727.469 355.935 779.515 473.161 790.935Z" fill="white"/>
<path opacity="0.2" d="M473.161 790.935C473.161 790.935 89.993 793.59 66.2109 739.773C66.2109 739.773 195.685 795.703 340.661 764.012C380.06 775.518 426.768 786.424 473.161 790.935Z" fill="black"/>
</svg>
