<svg width="1290" height="1269" viewBox="0 0 1290 1269" fill="none" xmlns="http://www.w3.org/2000/svg">
<path d="M1282.87 1266.48C1282.87 1266.88 995.798 1267.22 641.75 1267.22C287.703 1267.22 0.576172 1266.88 0.576172 1266.48C0.576172 1266.08 287.703 1265.85 641.722 1265.85C995.741 1265.85 1282.87 1266.08 1282.87 1266.48Z" fill="#263238"/>
<path d="M1181.31 1187.22C1181.31 1187.22 1170.07 1110.14 1171.01 1065.06C1171.95 1019.98 1171.01 969.589 1171.01 969.589H1176.2C1176.2 969.589 1172.69 1058.78 1176.49 1112.57C1180.29 1166.35 1190.37 1187.22 1190.37 1187.22H1181.31Z" fill="#263238"/>
<path d="M1214.69 882.683C1213.87 879.951 1212.22 877.538 1209.98 875.774C1206.7 873.719 1202.38 874.575 1198.73 875.774C1183.09 881.313 1169.21 910.462 1162.9 925.822L1183.66 995.769C1221.29 961.081 1227.62 915.487 1214.69 882.683Z" fill="#455A64"/>
<path d="M1208.75 878.629C1208.7 878.945 1208.6 879.253 1208.47 879.542C1208.18 880.199 1207.87 881.055 1207.44 882.083C1206.52 884.282 1205.27 887.479 1203.73 891.448C1200.67 899.413 1196.76 910.519 1193.31 923.024C1189.85 935.529 1187.42 947.063 1185.97 955.457C1185.23 959.653 1184.66 963.051 1184.31 965.392C1184.14 966.505 1183.97 967.39 1183.86 968.104C1183.84 968.426 1183.77 968.744 1183.66 969.046C1183.61 968.734 1183.61 968.417 1183.66 968.104L1183.94 965.249C1184.2 962.879 1184.68 959.539 1185.34 955.228C1188.87 933.269 1194.84 911.771 1203.13 891.134C1204.73 887.165 1205.98 883.996 1207.1 881.826C1207.58 880.827 1207.98 879.999 1208.27 879.342C1208.55 878.686 1208.72 878.6 1208.75 878.629Z" fill="#263238"/>
<path d="M1174.43 1012.64C1164.98 1007.27 1157.08 999.552 1151.47 990.237C1145.87 980.922 1142.75 970.321 1142.43 959.454C1141.69 943.923 1146.46 928.678 1151.85 914.117C1152.18 912.79 1152.95 911.619 1154.05 910.805C1154.94 910.497 1155.88 910.411 1156.81 910.555C1157.73 910.7 1158.61 911.07 1159.36 911.633C1173.49 919.684 1182.06 935.044 1186.63 950.661C1189.91 961.029 1191.02 971.964 1189.88 982.78C1188.1 994.132 1182.7 1004.61 1174.49 1012.64" fill="#455A64"/>
<path d="M1174.43 1012.64C1174.4 1012.33 1174.4 1012.01 1174.43 1011.7C1174.43 1010.99 1174.43 1010.1 1174.43 1009.02C1174.43 1006.68 1174.43 1003.31 1174.15 999.138C1173.6 988.303 1172.4 977.511 1170.55 966.82C1168.38 954.286 1165.76 943.066 1163.81 934.958C1162.87 930.99 1162.1 927.735 1161.53 925.365C1161.27 924.309 1161.07 923.424 1160.93 922.739C1160.84 922.443 1160.78 922.136 1160.76 921.825C1160.91 922.102 1161.03 922.4 1161.1 922.71C1161.3 923.367 1161.53 924.223 1161.84 925.28C1162.5 927.535 1163.36 930.79 1164.41 934.815C1166.5 942.895 1169.21 954.115 1171.38 966.677C1173.25 977.406 1174.38 988.253 1174.75 999.138C1174.75 1003.31 1174.75 1006.68 1174.75 1009.02V1011.7C1174.68 1012.03 1174.58 1012.34 1174.43 1012.64Z" fill="#263238"/>
<g opacity="0.3">
<path d="M1174.43 1012.64C1164.98 1007.27 1157.08 999.552 1151.47 990.237C1145.87 980.922 1142.75 970.321 1142.43 959.454C1141.69 943.923 1146.46 928.678 1151.85 914.117C1152.18 912.79 1152.95 911.619 1154.05 910.805C1154.94 910.497 1155.88 910.411 1156.81 910.555C1157.73 910.7 1158.61 911.07 1159.36 911.633C1173.49 919.684 1182.06 935.044 1186.63 950.661C1189.91 961.029 1191.02 971.964 1189.88 982.78C1188.1 994.132 1182.7 1004.61 1174.49 1012.64" fill="black"/>
</g>
<path d="M1196.39 1130.81C1215.55 1135.01 1231.31 1148.51 1249.81 1155.11C1262.03 1159.45 1275.84 1160.99 1285.61 1169.52C1283.27 1163.61 1277.7 1159.67 1272.3 1156.31C1257.1 1146.79 1240.87 1139.04 1223.91 1133.21C1215.2 1130.18 1205.78 1127.67 1196.93 1130.15" fill="#455A64"/>
<path d="M1168.7 1147.88C1144.71 1147.48 1119.45 1127.07 1095.55 1125.84C1120.56 1117.76 1156.33 1124.36 1168.7 1147.88Z" fill="#455A64"/>
<path d="M1178.06 1090.33C1190.42 1086.28 1203.6 1085.37 1216.4 1087.7C1229.15 1090.06 1241.68 1093.47 1253.86 1097.89C1252.63 1089.56 1245.89 1083.3 1239.59 1077.76C1234.95 1073.44 1229.91 1069.57 1224.54 1066.2C1219.13 1062.84 1212.89 1061.08 1206.52 1061.12C1202.69 1061.36 1198.94 1062.37 1195.51 1064.09C1192.08 1065.81 1189.03 1068.21 1186.54 1071.14C1181.67 1076.43 1178.67 1083.17 1177.97 1090.33" fill="#455A64"/>
<path d="M1128.84 1063.83C1113.74 1050.96 1090.84 1052.21 1071 1052.64C1102.9 1067.84 1132.98 1086.6 1160.67 1108.54C1161.5 1094.55 1147.91 1080.28 1128.84 1063.83Z" fill="#455A64"/>
<g opacity="0.3">
<path d="M1128.84 1063.83C1113.74 1050.96 1090.84 1052.21 1071 1052.64C1102.9 1067.84 1132.98 1086.6 1160.67 1108.54C1161.5 1094.55 1147.91 1080.28 1128.84 1063.83Z" fill="black"/>
</g>
<path d="M1184.86 1046.02C1192.21 1040.89 1199.98 1036.38 1208.07 1032.51C1216.03 1028.89 1223.45 1023.15 1231.11 1018.98C1241.07 1013.61 1249.69 1006.1 1258.83 999.424C1267.96 992.743 1278.01 986.719 1289.18 984.949C1279.98 983.309 1270.52 983.856 1261.57 986.548C1252.65 989.23 1243.95 992.609 1235.56 996.655C1223.8 1001.97 1211.81 1007.39 1202.16 1016.01C1192.51 1024.63 1183.83 1033.14 1184.86 1046.02Z" fill="#455A64"/>
<path d="M1249.35 1147.88L1248.61 1147.54L1246.49 1146.46C1244.7 1145.48 1242.1 1144.06 1238.84 1142.43C1237.22 1141.57 1235.42 1140.69 1233.48 1139.77C1231.53 1138.86 1229.48 1137.86 1227.25 1136.92C1222.49 1134.78 1217.55 1133.06 1212.49 1131.78C1207.48 1130.37 1202.19 1130.24 1197.1 1131.38C1194.88 1131.86 1192.69 1132.51 1190.57 1133.32C1186.07 1135.17 1182.02 1137.95 1178.69 1141.49C1177.32 1142.97 1176.63 1143.89 1176.58 1143.86C1176.52 1143.83 1176.58 1143.6 1177 1143.14C1177.45 1142.48 1177.93 1141.85 1178.46 1141.26C1180.35 1139.06 1182.54 1137.14 1184.97 1135.55C1186.66 1134.44 1188.45 1133.48 1190.31 1132.69C1192.45 1131.84 1194.66 1131.16 1196.9 1130.64C1202.11 1129.43 1207.54 1129.54 1212.69 1130.95C1217.8 1132.26 1222.78 1134.03 1227.57 1136.23C1229.79 1137.21 1231.88 1138.18 1233.79 1139.09C1235.7 1140 1237.5 1140.95 1239.13 1141.94C1242.36 1143.66 1244.84 1145.17 1246.67 1146.23L1248.69 1147.45C1249.15 1147.68 1249.38 1147.85 1249.35 1147.88Z" fill="#263238"/>
<path d="M1150.8 1135.98C1151.32 1136.06 1151.83 1136.21 1152.31 1136.44C1153.65 1136.91 1154.95 1137.48 1156.22 1138.12C1164.64 1142.42 1171.6 1149.13 1176.2 1157.39C1176.9 1158.63 1177.52 1159.91 1178.06 1161.22C1178.3 1161.68 1178.46 1162.18 1178.55 1162.7C1178.4 1162.7 1177.52 1160.73 1175.69 1157.68C1173.31 1153.72 1170.43 1150.08 1167.13 1146.86C1163.78 1143.66 1160.03 1140.91 1155.99 1138.66C1152.77 1136.95 1150.74 1136.12 1150.8 1135.98Z" fill="#263238"/>
<path d="M1097.72 1062.63L1098.75 1062.95L1101.6 1063.95L1106.14 1065.63C1107.91 1066.29 1109.83 1067.26 1112 1068.23C1123.26 1073.45 1133.77 1080.17 1143.23 1088.21C1148.41 1092.63 1153.27 1097.4 1157.79 1102.49C1161.47 1106.67 1164.92 1111.04 1168.12 1115.59C1170.98 1119.48 1172.95 1122.7 1174.38 1124.93L1176 1127.5C1176.22 1127.79 1176.4 1128.11 1176.55 1128.44C1176.3 1128.18 1176.07 1127.9 1175.86 1127.61C1175.43 1127.04 1174.83 1126.21 1174.09 1125.13C1172.58 1122.93 1170.44 1119.76 1167.64 1115.94C1164.84 1112.11 1161.33 1107.69 1157.22 1103.12C1152.69 1098.06 1147.85 1093.29 1142.72 1088.84C1133.28 1080.9 1122.88 1074.19 1111.77 1068.86C1109.63 1067.86 1107.71 1066.86 1106.06 1066.17L1101.57 1064.35L1098.72 1063.18L1097.72 1062.63Z" fill="#263238"/>
<path d="M1214.06 1076.85C1213.42 1076.83 1212.78 1076.74 1212.15 1076.59L1209.95 1076.19C1209.09 1076.02 1208.1 1076.02 1207.1 1075.91C1201.41 1075.4 1195.69 1076.53 1190.62 1079.16C1187.84 1080.6 1185.3 1082.48 1183.11 1084.73C1181.29 1086.53 1179.67 1088.53 1178.29 1090.7C1177.05 1092.71 1175.95 1094.81 1175.01 1096.98C1175.08 1096.33 1175.24 1095.7 1175.49 1095.09C1176.1 1093.44 1176.86 1091.86 1177.78 1090.35C1179.11 1088.1 1180.72 1086.02 1182.57 1084.16C1185.7 1080.87 1189.54 1078.36 1193.81 1076.82C1198.08 1075.28 1202.65 1074.77 1207.15 1075.31C1208.27 1075.45 1209.27 1075.51 1210.01 1075.71L1212.21 1076.28C1212.84 1076.4 1213.47 1076.59 1214.06 1076.85Z" fill="#263238"/>
<path d="M1238.16 1002.05C1237.88 1002.27 1237.59 1002.45 1237.27 1002.59L1234.59 1004.05C1232.25 1005.31 1228.88 1007.16 1224.82 1009.56C1220.77 1011.96 1216.03 1014.98 1210.95 1018.61C1205.4 1022.47 1200.2 1026.82 1195.42 1031.6C1192.96 1034.05 1190.83 1036.82 1189.08 1039.82C1187.51 1042.82 1186 1045.76 1184.63 1048.56C1181.77 1054.27 1179.6 1059.29 1177.95 1063.72C1176.67 1067.21 1175.59 1070.78 1174.72 1074.4C1174.09 1076.97 1173.89 1078.42 1173.81 1078.42C1173.77 1078.06 1173.77 1077.7 1173.81 1077.34C1173.81 1076.65 1174.03 1075.62 1174.29 1074.34C1175.05 1070.67 1176.06 1067.05 1177.32 1063.52C1179.18 1058.29 1181.36 1053.18 1183.83 1048.22C1185.2 1045.36 1186.68 1042.51 1188.25 1039.42C1190.03 1036.34 1192.21 1033.51 1194.73 1031C1199.55 1026.19 1204.8 1021.82 1210.41 1017.95C1215.52 1014.36 1220.34 1011.42 1224.45 1009.05C1228.56 1006.68 1231.96 1004.93 1234.33 1003.76L1237.19 1002.45C1237.5 1002.29 1237.82 1002.15 1238.16 1002.05Z" fill="#263238"/>
<path d="M1170.89 1074.57C1170.67 1073.91 1170.51 1073.23 1170.44 1072.54C1170.15 1071.06 1169.78 1069.2 1169.38 1067C1168.23 1060.91 1166.71 1054.9 1164.84 1048.99C1162.9 1043.15 1160.61 1037.43 1157.99 1031.86L1155.65 1026.72C1155.32 1026.1 1155.06 1025.45 1154.88 1024.78C1155.28 1025.34 1155.64 1025.94 1155.93 1026.58C1156.59 1027.75 1157.48 1029.43 1158.53 1031.6C1161.33 1037.12 1163.71 1042.85 1165.64 1048.73C1167.54 1054.67 1168.99 1060.74 1169.98 1066.89C1170.35 1069.26 1170.61 1071.17 1170.75 1072.6C1170.86 1073.25 1170.91 1073.91 1170.89 1074.57Z" fill="#263238"/>
<path d="M1169.15 1020.09C1168.4 1011.01 1165.75 1002.19 1161.36 994.199C1155.43 983.205 1147.18 973.639 1137.17 966.172C1127.15 958.705 1115.63 953.518 1103.4 950.975C1121.31 977.621 1139.2 1004.27 1157.08 1030.91L1163.99 1045.19C1168.36 1037.6 1170.17 1028.8 1169.15 1020.09Z" fill="#455A64"/>
<path d="M1246.09 1177.69H1121.36V1199.79H1246.09V1177.69Z" fill="#087F63"/>
<path d="M1130.7 1195.42L1141.32 1264.02H1224.14L1236.82 1195.42H1130.7Z" fill="#087F63"/>
<path d="M1246.07 1199.82C1246.07 1200.07 1217.92 1200.27 1183.26 1200.27C1148.6 1200.27 1120.45 1200.07 1120.45 1199.82C1120.45 1199.56 1148.57 1199.39 1183.26 1199.39C1217.94 1199.39 1246.07 1199.59 1246.07 1199.82Z" fill="#263238"/>
<path d="M662.421 345.802L585.336 383.687L517.473 296.268L471.193 332.269C471.193 332.269 512.505 408.012 546.879 444.641C554.154 452.404 563.585 457.813 573.958 460.174C584.332 462.535 595.175 461.739 605.092 457.889L680.778 420.602L662.421 345.802Z" fill="#E0E0E0"/>
<path d="M577.713 419.746C578.184 413.703 579.138 407.707 580.568 401.816C581.543 395.838 582.994 389.948 584.907 384.201C584.446 390.245 583.491 396.242 582.052 402.131C581.091 408.111 579.639 414.003 577.713 419.746Z" fill="#263238"/>
<path d="M742.845 553.046L748.041 522.012L712.382 348.257L715.608 316.281L700.591 331.299C687.36 334.674 674.554 339.54 662.42 345.802C662.42 345.802 653.626 373.524 651.343 381.575C649.059 389.626 640.665 412.209 638.124 437.504C637.007 448.694 637.614 459.988 639.923 470.993C643.777 489.608 649.03 522.012 645.347 548.078C636.782 570.747 624.734 605.178 614.313 640.551C596.327 701.848 583.736 871.292 583.736 871.292H853.076L742.845 553.046Z" fill="#E0E0E0"/>
<path d="M650.544 198.285C656.939 195.43 664.59 195.087 670.015 190.462C675.439 185.837 677.095 177.7 678.808 170.477C680.383 162.509 683.538 154.937 688.087 148.208C690.321 144.933 693.266 142.205 696.701 140.228C700.137 138.251 703.975 137.075 707.929 136.788C713.639 136.788 719.577 139.243 725.259 137.93C731.74 136.445 736.222 130.479 741.389 126.139C746.127 122.164 751.763 119.408 757.809 118.109C763.855 116.81 770.126 117.009 776.078 118.687C780.236 119.777 784.083 121.824 787.31 124.664C790.537 127.504 793.055 131.06 794.664 135.047C797.519 143.297 794.521 153.975 786.869 157.886L803.771 209.276C806.335 216.844 807.334 224.854 806.706 232.82C806.077 240.786 803.836 248.541 800.117 255.613C796.431 262.537 791.32 268.6 785.119 273.403C778.918 278.207 771.769 281.64 764.144 283.478C757.349 285.019 749.869 285.333 744.159 289.473C739.791 292.642 737.021 297.638 733.395 301.721C729.77 305.804 724.374 309.172 719.349 307.431C715.495 306.146 712.754 302.206 708.785 301.435C704.817 300.665 700.991 303.291 697.166 304.69C692.502 306.233 687.442 306.07 682.888 304.23C678.333 302.389 674.581 298.991 672.299 294.641C670.015 290.13 669.073 284.42 664.961 281.622C660.85 278.824 655.311 280.137 650.429 279.252C640.751 277.482 634.527 264.977 638.667 255.67C640.266 252.044 643.149 248.846 643.378 244.878C643.606 240.91 640.665 236.827 638.753 232.973C632.814 220.925 638.524 203.937 650.544 198.285Z" fill="#263238"/>
<path d="M700.106 245.163C698.755 243.212 696.953 241.616 694.853 240.51H695.281L694.082 240.138C693.365 239.814 692.586 239.646 691.798 239.646C691.011 239.646 690.232 239.814 689.514 240.138C686.863 240.79 684.558 242.422 683.062 244.706C681.836 246.776 681.175 249.13 681.145 251.535C681.115 253.94 681.717 256.311 682.891 258.41C683.809 260.222 685.234 261.727 686.994 262.741C688.753 263.755 690.77 264.234 692.798 264.12C694.655 263.75 696.386 262.907 697.821 261.671C699.257 260.436 700.349 258.85 700.991 257.068C701.809 255.158 702.155 253.08 702.001 251.008C701.847 248.936 701.197 246.931 700.106 245.163Z" fill="#455A64"/>
<path d="M783.986 326.102L801.601 194.43C802.657 188.149 806.54 179.584 800.602 178.014L741.047 152.319C721.49 147.123 704.474 170.62 700.106 191.204C695.253 214.044 690.199 242.194 690.256 259.724C690.256 295.154 717.065 303.719 717.065 303.719C717.065 303.719 716.18 312.513 714.438 325.132L703.189 370.812L783.986 326.102Z" fill="#AE7461"/>
<path d="M703.732 222.808C703.53 223.942 703.777 225.11 704.422 226.064C705.067 227.019 706.059 227.684 707.187 227.919C707.735 228.039 708.302 228.047 708.853 227.943C709.405 227.839 709.929 227.624 710.396 227.312C710.862 227 711.261 226.597 711.568 226.127C711.875 225.658 712.084 225.131 712.183 224.578C712.385 223.444 712.138 222.276 711.493 221.322C710.848 220.368 709.856 219.702 708.728 219.468C708.18 219.348 707.613 219.339 707.062 219.444C706.51 219.548 705.985 219.762 705.519 220.074C705.052 220.386 704.654 220.789 704.347 221.259C704.039 221.729 703.83 222.256 703.732 222.808Z" fill="#263238"/>
<path d="M703.704 206.649C704.132 207.305 707.758 205.307 712.269 206.021C716.78 206.734 719.863 209.618 720.434 209.104C721.005 208.59 720.434 207.762 719.035 206.42C717.293 204.692 715.04 203.571 712.611 203.223C710.218 202.862 707.771 203.293 705.645 204.45C704.104 205.421 703.475 206.392 703.704 206.649Z" fill="#263238"/>
<path d="M743.673 228.889C743.471 230.023 743.719 231.191 744.364 232.145C745.009 233.1 746 233.765 747.128 234C747.676 234.12 748.243 234.128 748.795 234.024C749.346 233.92 749.871 233.705 750.337 233.393C750.804 233.081 751.203 232.678 751.51 232.209C751.817 231.739 752.026 231.212 752.124 230.659C752.327 229.525 752.079 228.357 751.434 227.403C750.789 226.449 749.797 225.784 748.67 225.549C748.121 225.429 747.555 225.42 747.003 225.525C746.452 225.629 745.927 225.843 745.46 226.155C744.994 226.467 744.595 226.87 744.288 227.34C743.981 227.81 743.772 228.337 743.673 228.889Z" fill="#263238"/>
<path d="M748.641 214.444C749.098 215.1 752.695 213.102 757.206 213.816C761.717 214.529 764.8 217.413 765.4 216.928C765.999 216.442 765.4 215.557 764.001 214.244C762.248 212.51 759.988 211.379 757.549 211.018C755.155 210.657 752.709 211.088 750.582 212.245C749.069 213.159 748.413 214.158 748.641 214.444Z" fill="#263238"/>
<path d="M726.686 247.362C724.393 246.218 721.967 245.365 719.463 244.821C718.321 244.535 717.236 244.107 717.15 243.251C717.238 241.981 717.705 240.768 718.492 239.768L723.346 230.974C730.141 218.469 735.251 208.134 734.766 207.849C734.28 207.563 728.37 217.499 721.576 230.004L716.865 238.854C715.897 240.215 715.433 241.87 715.551 243.536C715.652 243.986 715.854 244.407 716.141 244.768C716.427 245.129 716.792 245.42 717.207 245.62C717.83 245.891 718.482 246.092 719.149 246.22C721.599 246.933 724.134 247.317 726.686 247.362Z" fill="#263238"/>
<path d="M717.065 303.719C732.12 306.104 747.543 304.03 761.432 297.752C761.432 297.752 748.613 322.419 715.752 314.14L717.065 303.719Z" fill="#6F4439"/>
<path d="M734.023 253.985C735.235 254.189 736.377 254.692 737.344 255.45C738.311 256.208 739.074 257.196 739.562 258.324C740.054 259.607 740.194 260.998 739.968 262.353C739.743 263.709 739.159 264.979 738.277 266.033C737.301 267.088 736.021 267.814 734.615 268.111C733.208 268.408 731.745 268.26 730.426 267.689C730.031 267.527 729.65 267.336 729.284 267.118C722.831 263.292 726.6 252.643 733.937 253.956L734.023 253.985Z" fill="#6F4439"/>
<path d="M739.705 252.729C738.963 252.557 738.163 257.754 733.367 260.78C728.57 263.806 723.346 262.436 723.203 263.178C723.06 263.92 724.231 264.349 726.458 264.748C729.423 265.272 732.477 264.671 735.023 263.064C737.49 261.502 739.275 259.064 740.019 256.24C740.419 254.128 740.048 252.757 739.705 252.729Z" fill="#263238"/>
<path d="M750.611 198.084C750.868 199.454 755.522 199.54 760.804 200.939C766.085 202.338 770.225 204.622 771.11 203.566C771.51 203.052 770.939 201.738 769.369 200.197C767.298 198.283 764.788 196.91 762.06 196.2C759.353 195.433 756.497 195.355 753.752 195.971C751.639 196.485 750.497 197.37 750.611 198.084Z" fill="#263238"/>
<path d="M708.1 187.864C708.757 189.063 712.069 188.435 715.866 188.948C719.663 189.462 722.775 190.747 723.689 189.719C724.117 189.234 723.689 188.063 722.518 186.864C720.857 185.29 718.736 184.29 716.465 184.009C714.208 183.731 711.921 184.17 709.928 185.266C708.443 186.236 707.815 187.293 708.1 187.864Z" fill="#263238"/>
<path d="M849.908 261.579C848.085 259.455 846.811 256.916 846.196 254.185C846.4 251.475 847.148 248.834 848.395 246.419C849.522 242.846 849.389 238.993 848.017 235.506C846.645 232.02 844.118 229.109 840.857 227.262C837.089 225.378 832.093 224.636 830.551 220.61C829.009 216.585 832.064 212.559 834.005 208.762C835.589 205.596 836.488 202.132 836.646 198.595C836.803 195.059 836.215 191.529 834.919 188.234C834.626 186.785 834.244 185.355 833.777 183.952C832.043 178.609 828.877 173.843 824.624 170.173C820.37 166.504 815.192 164.071 809.652 163.139C809.565 159.683 808.613 156.304 806.884 153.311C805.155 150.317 802.704 147.805 799.754 146.002C796.805 144.199 793.45 143.164 789.998 142.991C786.545 142.817 783.104 143.512 779.989 145.01C775.135 140.214 769.397 136.645 762.859 137.13C757.92 137.473 753.38 140.214 748.584 140.87C741.932 141.784 735.365 138.872 728.599 138.786C724.505 138.793 720.473 139.791 716.848 141.695C713.224 143.599 710.115 146.353 707.786 149.721C704.132 155.002 702.076 161.94 696.823 165.395C694.23 166.726 691.571 167.927 688.858 168.992C684.123 171.676 680.447 175.896 678.437 180.954C676.422 186.069 674.985 191.394 674.154 196.828C679.864 199.312 686.088 195.401 690.542 191.118C694.996 186.836 699.307 181.382 705.331 180.298C713.154 178.899 721.947 185.065 728.513 180.298C733.11 177.043 734.223 169.734 739.248 167.307C744.273 164.881 749.326 168.392 754.351 169.991C759.986 171.725 766.072 171.214 771.338 168.564C770.119 176.765 770.903 185.14 773.622 192.974C776.313 197.959 779.612 202.59 783.443 206.763C780.132 213.016 778.818 237.455 790.438 236.17C791.392 236.112 792.318 235.822 793.134 235.325C793.95 234.827 794.632 234.137 795.12 233.315L786.555 306.574C788.334 306.99 790.196 306.858 791.898 306.195C793.6 305.533 795.062 304.371 796.091 302.862C797.103 303.792 798.236 304.579 799.46 305.203C802.565 306.627 806.039 307.037 809.39 306.376C812.741 305.715 815.8 304.016 818.132 301.521C820.587 298.894 822.328 295.325 825.555 293.755C828.489 292.845 831.571 292.506 834.633 292.756C838.067 292.456 841.365 291.273 844.206 289.322C847.048 287.371 849.336 284.718 850.85 281.621C852.354 278.461 853.055 274.978 852.89 271.482C852.726 267.986 851.702 264.584 849.908 261.579Z" fill="#263238"/>
<path d="M791.323 238.939C792.58 231.516 801.516 231.002 807.254 235.484C810.395 237.94 812.507 242.394 811.223 250.245C807.825 271.229 788.383 263.578 788.383 262.949C788.383 262.321 789.839 247.59 791.323 238.939Z" fill="#AE7461"/>
<path d="M795.891 256.041C795.891 256.041 796.176 256.355 796.747 256.726C797.126 256.976 797.551 257.148 797.997 257.232C798.443 257.315 798.902 257.308 799.345 257.211C801.601 256.754 803.97 253.528 804.684 249.76C805.011 247.971 804.963 246.133 804.541 244.364C804.46 243.689 804.221 243.043 803.844 242.478C803.467 241.913 802.963 241.444 802.371 241.109C801.976 240.933 801.53 240.905 801.116 241.031C800.702 241.157 800.347 241.428 800.116 241.794C799.773 242.337 799.831 242.765 799.716 242.794C799.602 242.822 799.345 242.365 799.716 241.509C799.923 241.017 800.284 240.606 800.744 240.338C801.044 240.165 801.376 240.055 801.72 240.015C802.063 239.976 802.412 240.008 802.743 240.11C803.556 240.432 804.272 240.959 804.823 241.639C805.373 242.319 805.738 243.13 805.883 243.993C806.456 245.959 806.554 248.033 806.169 250.045C805.341 254.242 802.628 257.868 799.574 258.239C799.006 258.322 798.427 258.266 797.885 258.077C797.343 257.888 796.855 257.572 796.462 257.154C795.891 256.555 795.891 256.041 795.891 256.041Z" fill="#6F4439"/>
<path d="M785.414 264.463C786.732 262.192 788.882 260.523 791.409 259.809C793.025 259.295 794.761 259.295 796.377 259.809L797.148 260.152C799.26 261.238 801.074 262.826 802.429 264.777C803.539 266.559 804.2 268.584 804.354 270.678C804.508 272.771 804.151 274.871 803.314 276.797C802.676 278.579 801.589 280.166 800.159 281.406C798.729 282.647 797.004 283.497 795.149 283.877C793.123 283.984 791.109 283.501 789.351 282.488C787.593 281.474 786.166 279.974 785.242 278.167C784.063 276.07 783.457 273.698 783.487 271.292C783.517 268.886 784.182 266.53 785.414 264.463Z" fill="#455A64"/>
<path d="M658.48 566.378L663.762 545.508C661.617 521.58 660.721 497.555 661.079 473.534C662.62 420.773 680.178 390.025 682.719 384.743C684.147 381.746 713.553 330.27 713.553 330.27C713.553 330.27 712.354 344.203 736.393 342.861C769.996 340.976 783.957 322.533 783.957 322.533L836.004 340.605C836.004 340.605 835.576 416.006 835.319 438.332C835.176 450.294 833.349 503.996 833.349 503.996L835.975 546.821C836.489 548.763 823.499 600.609 820.987 602.437C818.474 604.264 776.534 608.775 775.821 610.459C775.107 612.144 693.939 635.069 694.168 633.756C694.396 632.443 662.563 583.708 662.563 583.708L658.48 566.378Z" fill="#087F63"/>
<path d="M833.405 586.963C844.022 612.944 851.684 640.037 856.245 667.731C875.688 799.546 883.51 934.159 889.363 982.351C896.386 1040.05 905.865 1135.44 911.289 1200.5L838.43 1214.46C838.43 1214.46 787.754 971.502 771.851 913.917C755.35 854.219 730.797 749.64 730.797 749.64L705.93 1205.58L634.384 1206.44C634.384 1206.44 616.825 1047.7 617.254 975.185C617.682 902.668 610.059 746.785 612.743 709.328C615.427 671.871 658.908 564.723 658.908 564.723C658.908 564.723 680.378 585.336 725.515 583.937C761.459 582.823 826.639 571.632 826.639 571.632L833.405 586.963Z" fill="#263238"/>
<path d="M717.493 597.954C717.302 599.584 717.226 601.225 717.265 602.865C717.265 606.034 717.265 610.63 717.265 616.312C717.265 627.732 717.836 643.291 718.806 660.564C719.777 677.837 721.062 693.454 722.204 704.731C722.775 710.441 723.289 714.952 723.688 718.092C723.804 719.731 724.072 721.356 724.488 722.946C724.545 721.307 724.488 719.666 724.316 718.035C724.059 714.58 723.717 710.07 723.317 704.645C722.461 693.225 721.347 677.751 720.462 660.478C719.577 643.206 718.892 627.589 718.464 616.283C718.264 610.83 718.092 606.319 717.978 602.865C717.965 601.217 717.803 599.573 717.493 597.954Z" fill="#455A64"/>
<path d="M739.22 599.696C739.22 599.696 739.22 598.925 738.192 598.325C736.774 597.607 735.164 597.357 733.595 597.612C732.495 597.699 731.421 597.989 730.426 598.468C729.824 598.793 729.294 599.236 728.867 599.771C728.44 600.305 728.126 600.921 727.943 601.58C727.54 603.033 727.565 604.571 728.016 606.009C728.467 607.448 729.324 608.725 730.483 609.688C731.609 610.688 732.994 611.35 734.479 611.597C735.964 611.845 737.488 611.668 738.877 611.087C740.157 610.533 741.178 609.512 741.732 608.232C742.166 607.203 742.38 606.094 742.36 604.978C742.385 603.375 741.839 601.816 740.818 600.581C740.048 599.753 739.391 599.61 739.362 599.696C739.334 599.781 739.791 600.124 740.333 600.952C741.051 602.165 741.371 603.573 741.247 604.978C741.247 605.96 740.982 606.924 740.479 607.769C739.977 608.613 739.256 609.306 738.392 609.774C737.253 610.191 736.023 610.292 734.831 610.066C733.64 609.84 732.532 609.295 731.625 608.489C730.699 607.71 730.006 606.689 729.623 605.54C729.24 604.392 729.182 603.159 729.456 601.98C729.704 601.001 730.317 600.153 731.169 599.61C732.019 599.171 732.935 598.872 733.881 598.725C735.246 598.36 736.684 598.36 738.049 598.725C738.791 599.21 739.105 599.753 739.22 599.696Z" fill="#455A64"/>
<path d="M687.401 703.075C689.484 705.213 691.727 707.189 694.111 708.985C698.336 712.554 704.075 717.55 710.184 723.26C716.294 728.97 721.604 734.509 725.401 738.506C727.345 740.771 729.444 742.898 731.682 744.872C730.133 742.308 728.305 739.924 726.229 737.763C721.531 732.289 716.547 727.066 711.298 722.118C706.043 717.154 700.535 712.466 694.796 708.071C692.514 706.15 690.036 704.475 687.401 703.075Z" fill="#455A64"/>
<path d="M638.866 1164.81L640.579 1228.36C640.579 1228.36 576.542 1251.46 575.742 1263.22L699.078 1264.34L700.477 1165.18L638.866 1164.81Z" fill="#263238"/>
<path d="M699.022 1264.34L698.822 1254.43L580.625 1257.11C580.625 1257.11 575.115 1259.46 575.715 1263.31L699.022 1264.34Z" fill="#455A64"/>
<path d="M638.524 1227.74C638.524 1228.34 641.55 1228.62 644.52 1230.59C647.489 1232.56 649.002 1235.1 649.573 1234.87C650.144 1234.65 649.259 1231.13 645.633 1228.82C642.007 1226.51 638.41 1227.17 638.524 1227.74Z" fill="white"/>
<path d="M625.562 1232.96C625.42 1233.53 628.018 1234.59 630.016 1237.16C632.015 1239.73 632.614 1242.41 633.214 1242.41C633.813 1242.41 634.241 1238.99 631.643 1235.84C629.045 1232.7 625.562 1232.39 625.562 1232.96Z" fill="white"/>
<path d="M618.054 1248.38C618.596 1248.52 619.481 1245.52 618.054 1242.21C616.626 1238.9 613.714 1237.56 613.457 1238.04C613.2 1238.53 614.942 1240.33 616.141 1243.07C617.34 1245.81 617.454 1248.32 618.054 1248.38Z" fill="white"/>
<path d="M639.751 1213.21C640.008 1213.75 642.777 1212.95 646.175 1213.21C649.572 1213.46 652.227 1214.58 652.541 1214.06C652.856 1213.55 650.315 1211.38 646.318 1211.21C642.321 1211.04 639.466 1212.72 639.751 1213.21Z" fill="white"/>
<path d="M841.856 1160.96L851.734 1223.77C851.734 1223.77 791.208 1254.92 791.779 1266.59L914.259 1251.83L902.839 1153.34L841.856 1160.96Z" fill="#263238"/>
<path d="M914.374 1251.92L912.832 1242.01L795.891 1259.88C795.891 1259.88 790.724 1262.91 791.809 1266.68L914.374 1251.92Z" fill="#455A64"/>
<path d="M849.679 1223.4C849.679 1223.97 852.791 1223.88 855.96 1225.45C859.129 1227.02 861.013 1229.36 861.527 1229.05C862.041 1228.74 860.728 1225.4 856.874 1223.57C853.019 1221.74 849.479 1222.86 849.679 1223.4Z" fill="white"/>
<path d="M837.46 1230.25C837.46 1230.85 840.115 1231.53 842.456 1233.82C844.797 1236.1 845.682 1238.73 846.282 1238.61C846.881 1238.5 846.853 1235.1 843.883 1232.3C840.914 1229.51 837.403 1229.68 837.46 1230.25Z" fill="white"/>
<path d="M832.035 1246.49C832.577 1246.49 833.063 1243.47 831.121 1240.38C829.18 1237.3 826.239 1236.33 826.039 1236.84C825.84 1237.36 827.81 1238.93 829.351 1241.5C830.893 1244.07 831.435 1246.52 832.035 1246.49Z" fill="white"/>
<path d="M848.994 1208.75C849.337 1209.27 851.849 1208.12 855.389 1207.95C858.929 1207.78 861.556 1208.52 861.784 1207.95C862.013 1207.38 859.244 1205.58 855.247 1205.84C851.25 1206.1 848.652 1208.38 848.994 1208.75Z" fill="white"/>
<path d="M896.472 871.463L883.339 726.943C880.199 701.762 876.401 670.843 870.006 646.29C863.411 620.909 844.682 579.94 844.682 579.94L837.631 536.515L856.131 422.059L835.318 338.893L798.746 326.73L785.813 312.284C785.813 312.284 764.543 343.689 759.718 362.389C751.153 395.964 748.755 449.98 748.641 496.574L748.041 496.831L748.726 518.243C749.155 557.357 750.868 586.963 750.868 586.963L760.632 892.847L896.472 871.463Z" fill="#E0E0E0"/>
<path d="M762.716 489.608C762.829 488.967 762.886 488.317 762.888 487.666C762.888 486.21 763.059 484.355 763.173 481.957C763.43 477.103 763.83 470.051 764.629 461.401C765.429 452.75 766.599 442.472 768.426 431.109C769.426 425.399 770.311 419.489 771.881 413.437C773.451 407.384 775.05 401.103 776.677 394.679C778.476 387.656 780.218 380.833 781.873 374.266L782.502 371.811L782.816 370.583V370.298C782.845 370.128 782.845 369.954 782.816 369.784C782.769 369.567 782.659 369.369 782.502 369.213L781.902 368.785C780.5 367.882 779.051 367.053 777.562 366.301C774.73 364.744 771.733 363.509 768.626 362.618L768.369 364.017L770.425 364.388C771.128 364.43 771.834 364.43 772.538 364.388C773.879 364.388 775.164 364.388 776.449 364.388L783.929 364.531H784.471V364.017C786.726 354.567 789.92 345.366 794.007 336.552C795.406 333.497 796.548 331.07 797.405 329.214C797.86 328.373 798.242 327.495 798.547 326.588C797.983 327.363 797.487 328.184 797.062 329.043C796.148 330.671 794.892 333.097 793.35 336.238C788.972 345.002 785.573 354.222 783.215 363.731L783.872 363.217L776.363 362.989C775.079 362.989 773.737 362.989 772.395 362.989C771.759 363.047 771.118 363.047 770.482 362.989L768.512 362.646L768.255 364.045C771.231 364.946 774.102 366.162 776.82 367.671C778.263 368.392 779.664 369.192 781.017 370.069L781.417 370.383L781.759 370.041C781.759 370.041 781.759 370.041 781.188 370.041V370.326L780.874 371.554L780.246 374.009C778.562 380.604 776.82 387.456 774.993 394.508C773.356 400.96 771.767 407.232 770.225 413.323C768.655 419.404 767.798 425.399 766.828 431.081C765.086 442.501 763.973 452.836 763.373 461.515C762.773 470.194 762.488 477.246 762.402 482.128C762.402 484.555 762.402 486.467 762.402 487.838C762.439 488.438 762.544 489.032 762.716 489.608Z" fill="#263238"/>
<path d="M793.036 639.609C793.123 639.858 793.181 640.117 793.207 640.379C793.207 640.979 793.407 641.721 793.521 642.578C793.835 644.633 794.206 647.431 794.72 650.943C795.691 658.252 797.09 668.558 798.803 681.263C799.231 684.461 799.659 687.801 800.116 691.255C800.479 694.863 801.255 698.417 802.429 701.848C805.03 709.405 810.047 715.896 816.704 720.319C820.387 722.689 824.539 724.234 828.876 724.85C833.212 725.466 837.63 725.138 841.828 723.888C846.268 722.565 850.368 720.296 853.847 717.236C857.414 714.019 860.323 710.141 862.412 705.816C865.319 699.824 866.674 693.197 866.352 686.545C865.838 680.064 864.896 673.554 864.239 667.331C862.783 654.826 861.384 643.092 860.185 632.328L860.985 632.957L811.85 637.867L797.975 639.152L794.292 639.494C793.845 639.526 793.397 639.526 792.95 639.494C793.333 639.391 793.725 639.324 794.121 639.295L797.661 638.809L811.336 637.153L860.813 631.443H861.527V632.129C862.812 642.892 864.239 654.626 865.752 667.102C866.438 673.383 867.38 679.721 867.922 686.43C868.256 693.329 866.852 700.201 863.84 706.415C861.666 710.929 858.63 714.973 854.904 718.321C851.229 721.535 846.906 723.92 842.227 725.316C837.807 726.619 833.156 726.946 828.596 726.276C824.037 725.605 819.677 723.953 815.819 721.433C808.857 716.827 803.624 710.038 800.944 702.133C799.773 698.596 799.006 694.937 798.66 691.227C798.222 687.687 797.823 684.289 797.461 681.035C796.005 668.244 794.806 657.824 793.978 650.429C793.607 646.975 793.293 644.234 793.093 642.207C793.015 641.343 792.996 640.475 793.036 639.609Z" fill="#263238"/>
<path d="M653.941 380.519C653.574 381.886 653.077 383.215 652.456 384.487C651.371 386.971 649.972 390.654 648.345 395.222C646.717 399.79 645.09 405.328 643.548 411.524C640.282 425.037 638.709 438.905 638.866 452.807C638.91 458.483 639.243 464.152 639.865 469.794C640.379 474.619 640.95 478.502 641.407 481.214C641.711 482.586 641.902 483.98 641.978 485.382C641.456 484.065 641.073 482.697 640.836 481.3C639.963 477.531 639.286 473.719 638.809 469.88C638.05 464.199 637.612 458.48 637.496 452.75C637.371 445.742 637.695 438.733 638.467 431.766C639.311 424.814 640.579 417.921 642.264 411.124C643.677 405.578 645.402 400.116 647.431 394.765C648.77 391.158 650.295 387.622 651.999 384.173C652.542 382.902 653.192 381.68 653.941 380.519Z" fill="#263238"/>
<path d="M474.904 307.202C466.339 304.719 444.299 283.649 444.299 283.649L434.306 270.373L416.577 260.523C413.494 258.411 410.296 254.528 413.065 250.674C407.355 247.076 410.353 239.996 410.353 239.996L419.518 243.764C416.149 242.271 413.06 240.214 410.382 237.683C409.427 236.422 408.829 234.927 408.648 233.356C408.467 231.784 408.711 230.193 409.354 228.747L417.633 231.774C414.839 230.857 412.442 229.014 410.838 226.549C410.373 226.013 410.022 225.387 409.808 224.71C409.594 224.033 409.52 223.32 409.593 222.613C409.665 221.907 409.881 221.223 410.228 220.604C410.575 219.984 411.045 219.442 411.609 219.012C411.609 219.012 425.884 224.722 431.594 226.549C432.365 227.12 461.6 238.283 463.142 239.939L490.407 269.088L513.247 299.408L481.842 323.704L474.904 307.202Z" fill="#455A64"/>
<path d="M441.872 247.932C443.616 247.065 445.239 245.97 446.697 244.678L447.325 244.221L446.583 243.821C441.537 241.046 436.354 238.53 431.051 236.284C425.199 233.743 419.803 231.716 415.806 230.574C413.706 229.709 411.496 229.142 409.239 228.89C411.204 230.045 413.28 231.001 415.435 231.745C419.289 233.286 424.599 235.456 430.423 237.969C436.733 240.824 442.357 243.279 446.126 244.992V244.135C444.552 245.215 443.123 246.491 441.872 247.932Z" fill="#263238"/>
<path d="M429.682 247.932C426.815 245.907 423.657 244.329 420.317 243.25C417.176 241.678 413.818 240.581 410.354 239.995C413.223 242.023 416.379 243.611 419.718 244.706C422.851 246.293 426.213 247.381 429.682 247.932Z" fill="#263238"/>
<path d="M312.285 1268.96C330.212 1268.96 344.746 1254.43 344.746 1236.5C344.746 1218.57 330.212 1204.04 312.285 1204.04C294.357 1204.04 279.823 1218.57 279.823 1236.5C279.823 1254.43 294.357 1268.96 312.285 1268.96Z" fill="#263238"/>
<path d="M610.002 1268.96C627.93 1268.96 642.463 1254.43 642.463 1236.5C642.463 1218.57 627.93 1204.04 610.002 1204.04C592.074 1204.04 577.541 1218.57 577.541 1236.5C577.541 1254.43 592.074 1268.96 610.002 1268.96Z" fill="#263238"/>
<path d="M185.351 1268.96C203.279 1268.96 217.812 1254.43 217.812 1236.5C217.812 1218.57 203.279 1204.04 185.351 1204.04C167.423 1204.04 152.89 1218.57 152.89 1236.5C152.89 1254.43 167.423 1268.96 185.351 1268.96Z" fill="#263238"/>
<path d="M166.223 439.788V1204.04H618.139V631.015L166.223 439.788Z" fill="#E0E0E0"/>
<g opacity="0.3">
<path d="M166.223 439.788V1204.04H618.139V631.015L166.223 439.788Z" fill="black"/>
</g>
<path d="M166.223 439.788L297.724 632.043H618.139L474.219 439.788H166.223Z" fill="#E0E0E0"/>
<path d="M225.121 474.39L270.801 537.428C273.634 541.342 277.355 544.529 281.657 546.727C285.96 548.926 290.722 550.073 295.554 550.076H512.162C513.628 550.085 515.066 549.684 516.316 548.918C517.565 548.152 518.575 547.052 519.232 545.742C519.888 544.432 520.165 542.964 520.031 541.505C519.896 540.046 519.356 538.653 518.472 537.485L468.481 470.707C465.64 466.906 461.952 463.82 457.709 461.694C453.467 459.568 448.787 458.46 444.042 458.459H233.287C231.435 458.456 229.618 458.965 228.037 459.929C226.456 460.894 225.172 462.277 224.327 463.925C223.482 465.573 223.109 467.422 223.25 469.269C223.39 471.116 224.038 472.888 225.121 474.39Z" fill="#455A64"/>
<path d="M488.694 511.904C488.46 512.14 488.202 512.351 487.923 512.533C487.073 513.096 486.087 513.421 485.068 513.475C481.23 513.296 477.592 511.71 474.847 509.021C472.883 507.18 470.685 505.606 468.309 504.339C466.983 503.623 465.527 503.176 464.027 503.025C463.248 502.928 462.456 503 461.707 503.236C460.958 503.473 460.269 503.868 459.687 504.396C458.484 505.639 457.67 507.207 457.346 508.907C456.962 510.833 456.267 512.684 455.291 514.388C454.681 515.311 453.818 516.036 452.804 516.477C451.79 516.918 450.671 517.055 449.581 516.872C447.431 516.386 445.456 515.319 443.871 513.789C442.209 512.222 440.733 510.469 439.474 508.564C438.156 506.718 436.557 505.09 434.735 503.739C433.871 503.025 432.824 502.569 431.713 502.423C430.602 502.276 429.473 502.446 428.454 502.911C427.447 503.525 426.592 504.356 425.949 505.345C425.307 506.333 424.894 507.453 424.742 508.621C424.171 511.048 423.943 513.646 423.486 516.301C423.297 519.188 421.997 521.889 419.86 523.838C418.609 524.756 417.065 525.182 415.521 525.037C414 524.86 412.558 524.267 411.352 523.324C409.081 521.474 407.149 519.242 405.642 516.729L395.678 502.055C393.994 499.542 392.281 497.001 390.539 494.46C388.881 491.853 387.069 489.346 385.115 486.952C383.203 484.529 380.761 482.575 377.977 481.242C376.596 480.671 375.098 480.438 373.609 480.562C372.119 480.686 370.68 481.164 369.412 481.956C366.834 483.726 364.908 486.293 363.931 489.264C362.883 492.307 362.541 495.549 362.932 498.743C363.503 505.281 365.787 511.648 365.615 518.385C365.659 521.894 364.339 525.282 361.932 527.835C360.683 528.977 359.212 529.85 357.611 530.4C356.01 530.95 354.313 531.166 352.625 531.033C349.358 530.866 346.204 529.788 343.518 527.921C340.997 526.008 338.873 523.623 337.265 520.898C334.452 515.642 332.084 510.161 330.185 504.51C328.379 499.276 325.228 494.609 321.049 490.977C319.043 489.44 316.671 488.455 314.166 488.12C311.662 487.784 309.113 488.11 306.774 489.065C305.671 489.542 304.678 490.238 303.853 491.112C303.028 491.986 302.39 493.018 301.978 494.146C301.243 496.382 301.057 498.762 301.435 501.084C302.035 505.709 303.89 510.049 304.147 514.56C304.398 516.732 304.021 518.93 303.059 520.894C302.098 522.857 300.593 524.504 298.723 525.637C297.796 526.08 296.781 526.311 295.754 526.311C294.726 526.311 293.712 526.08 292.785 525.637C291.109 524.792 289.667 523.546 288.588 522.011C286.446 519.156 285.047 516.301 283.192 513.989C281.489 511.924 279.453 510.158 277.168 508.764C273.978 506.82 270.382 505.638 266.661 505.309C264.12 505.081 262.75 505.309 262.75 505.309C264.05 505.081 265.373 505.014 266.69 505.11C270.486 505.34 274.174 506.465 277.453 508.393C279.84 509.772 281.966 511.56 283.734 513.675C285.704 515.987 287.132 518.928 289.244 521.64C290.269 523.037 291.609 524.172 293.156 524.952C293.959 525.331 294.837 525.527 295.725 525.527C296.614 525.527 297.491 525.331 298.295 524.952C299.995 523.906 301.353 522.388 302.205 520.584C303.057 518.779 303.365 516.765 303.091 514.788C302.863 510.506 300.978 506.223 300.236 501.398C299.821 498.897 300.007 496.333 300.778 493.918C301.239 492.665 301.943 491.516 302.85 490.536C303.756 489.556 304.847 488.765 306.06 488.208C308.622 487.114 311.428 486.72 314.192 487.066C316.956 487.413 319.578 488.486 321.791 490.178C326.18 493.937 329.49 498.794 331.384 504.253C333.292 509.818 335.64 515.221 338.407 520.412C339.929 522.958 341.925 525.187 344.289 526.979C346.741 528.701 349.632 529.691 352.625 529.834C354.114 529.949 355.611 529.755 357.021 529.264C358.431 528.772 359.724 527.994 360.819 526.979C362.892 524.705 364.007 521.718 363.931 518.642C364.131 512.304 361.875 505.966 361.247 499.2C360.68 495.804 361.048 492.317 362.31 489.114C363.572 485.91 365.682 483.11 368.413 481.014C369.89 480.098 371.564 479.545 373.296 479.401C375.028 479.257 376.769 479.526 378.377 480.186C381.378 481.557 384.01 483.622 386.057 486.21C388.059 488.633 389.909 491.179 391.596 493.832L396.735 501.455L406.642 516.187C408.073 518.562 409.898 520.676 412.038 522.439C412.972 523.282 414.16 523.792 415.414 523.89C416.669 523.988 417.921 523.669 418.975 522.982C420.843 521.23 421.967 518.829 422.116 516.273C422.601 513.703 422.829 511.077 423.429 508.507C423.622 507.168 424.118 505.89 424.88 504.772C425.642 503.653 426.65 502.724 427.826 502.055C429.026 501.502 430.356 501.295 431.667 501.457C432.978 501.618 434.218 502.141 435.249 502.968C437.166 504.417 438.851 506.15 440.245 508.107C441.436 509.963 442.845 511.669 444.442 513.189C445.924 514.599 447.758 515.585 449.752 516.044C450.664 516.198 451.602 516.085 452.452 515.721C453.302 515.356 454.03 514.755 454.548 513.989C456.604 510.934 456.204 506.509 459.145 503.911C459.821 503.325 460.613 502.888 461.468 502.627C462.324 502.366 463.225 502.288 464.113 502.397C465.701 502.586 467.241 503.07 468.652 503.825C471.051 505.161 473.268 506.802 475.247 508.707C477.871 511.377 481.366 513.019 485.097 513.332C486.41 513.218 487.66 512.722 488.694 511.904Z" fill="white"/>
<path d="M511.534 576.656C520.869 584.393 523.125 597.069 516.616 604.921C510.106 612.772 497.202 612.886 487.894 605.149C478.587 597.412 476.275 584.736 482.812 576.856C489.35 568.976 502.198 568.919 511.534 576.656Z" fill="#087F63"/>
<path d="M346.201 606.062C346.685 606.636 346.995 607.337 347.094 608.081C347.194 608.825 347.078 609.582 346.762 610.263C346.445 610.944 345.941 611.52 345.308 611.924C344.675 612.328 343.94 612.542 343.189 612.542C342.438 612.542 341.703 612.328 341.07 611.924C340.437 611.52 339.933 610.944 339.616 610.263C339.3 609.582 339.184 608.825 339.284 608.081C339.383 607.337 339.693 606.636 340.177 606.062C340.979 605.269 342.061 604.824 343.189 604.824C344.317 604.824 345.399 605.269 346.201 606.062Z" fill="#FAFAFA"/>
<path d="M372.096 606.062C372.602 606.343 373.04 606.732 373.379 607.201C373.717 607.67 373.948 608.208 374.056 608.777C374.163 609.346 374.143 609.931 373.999 610.491C373.854 611.052 373.588 611.573 373.219 612.019C372.85 612.465 372.387 612.824 371.864 613.07C371.34 613.317 370.769 613.445 370.19 613.446C369.612 613.447 369.04 613.321 368.516 613.076C367.992 612.831 367.528 612.473 367.157 612.029C366.651 611.748 366.214 611.359 365.875 610.89C365.536 610.421 365.305 609.883 365.198 609.314C365.091 608.745 365.11 608.16 365.255 607.6C365.4 607.039 365.666 606.518 366.035 606.072C366.404 605.626 366.866 605.267 367.39 605.021C367.913 604.774 368.485 604.646 369.063 604.645C369.642 604.644 370.214 604.77 370.738 605.015C371.262 605.26 371.726 605.617 372.096 606.062Z" fill="#FAFAFA"/>
<path d="M398.019 606.063C398.503 606.637 398.813 607.337 398.913 608.081C399.012 608.825 398.897 609.582 398.58 610.263C398.264 610.944 397.759 611.52 397.126 611.924C396.493 612.328 395.758 612.542 395.007 612.542C394.257 612.542 393.521 612.328 392.888 611.924C392.255 611.52 391.751 610.944 391.435 610.263C391.118 609.582 391.003 608.825 391.102 608.081C391.201 607.337 391.511 606.637 391.995 606.063C392.801 605.276 393.882 604.836 395.007 604.836C396.133 604.836 397.214 605.276 398.019 606.063Z" fill="#FAFAFA"/>
<path d="M423.914 606.063C424.398 606.637 424.708 607.337 424.807 608.081C424.906 608.825 424.791 609.582 424.475 610.263C424.158 610.944 423.654 611.52 423.021 611.924C422.388 612.328 421.653 612.542 420.902 612.542C420.151 612.542 419.416 612.328 418.783 611.924C418.15 611.52 417.646 610.944 417.329 610.263C417.013 609.582 416.897 608.825 416.997 608.081C417.096 607.337 417.406 606.637 417.89 606.063C418.695 605.276 419.776 604.836 420.902 604.836C422.027 604.836 423.108 605.276 423.914 606.063Z" fill="#FAFAFA"/>
<path d="M333.383 587.105C333.871 587.678 334.186 588.378 334.288 589.124C334.391 589.869 334.278 590.629 333.963 591.312C333.647 591.996 333.143 592.574 332.509 592.98C331.875 593.386 331.138 593.601 330.385 593.601C329.633 593.601 328.896 593.386 328.262 592.98C327.628 592.574 327.123 591.996 326.808 591.312C326.492 590.629 326.379 589.869 326.482 589.124C326.585 588.378 326.899 587.678 327.387 587.105C328.184 586.313 329.262 585.869 330.385 585.869C331.508 585.869 332.586 586.313 333.383 587.105Z" fill="#087F63"/>
<path d="M359.077 587.106C359.561 587.68 359.871 588.38 359.97 589.124C360.069 589.868 359.954 590.625 359.638 591.306C359.321 591.987 358.817 592.563 358.184 592.967C357.551 593.371 356.816 593.585 356.065 593.585C355.314 593.585 354.579 593.371 353.946 592.967C353.313 592.563 352.809 591.987 352.492 591.306C352.176 590.625 352.06 589.868 352.16 589.124C352.259 588.38 352.569 587.68 353.053 587.106C353.858 586.319 354.939 585.879 356.065 585.879C357.191 585.879 358.272 586.319 359.077 587.106Z" fill="#087F63"/>
<path d="M385.057 587.106C385.541 587.68 385.851 588.38 385.951 589.124C386.05 589.868 385.935 590.625 385.618 591.306C385.302 591.987 384.797 592.563 384.164 592.967C383.531 593.371 382.796 593.585 382.045 593.585C381.295 593.585 380.559 593.371 379.926 592.967C379.293 592.563 378.789 591.987 378.473 591.306C378.156 590.625 378.041 589.868 378.14 589.124C378.239 588.38 378.549 587.68 379.033 587.106C379.839 586.319 380.92 585.879 382.045 585.879C383.171 585.879 384.252 586.319 385.057 587.106Z" fill="#087F63"/>
<path d="M410.953 587.105C411.437 587.679 411.747 588.38 411.846 589.124C411.945 589.868 411.83 590.625 411.514 591.306C411.197 591.987 410.693 592.563 410.06 592.967C409.427 593.371 408.692 593.585 407.941 593.585C407.19 593.585 406.455 593.371 405.822 592.967C405.189 592.563 404.685 591.987 404.368 591.306C404.052 590.625 403.936 589.868 404.036 589.124C404.135 588.38 404.445 587.679 404.929 587.105C405.731 586.312 406.813 585.867 407.941 585.867C409.069 585.867 410.151 586.312 410.953 587.105Z" fill="#087F63"/>
<path d="M320.335 568.206C320.823 568.778 321.138 569.479 321.24 570.225C321.343 570.97 321.23 571.73 320.915 572.413C320.599 573.096 320.095 573.675 319.461 574.081C318.827 574.487 318.09 574.702 317.337 574.702C316.585 574.702 315.848 574.487 315.214 574.081C314.58 573.675 314.075 573.096 313.76 572.413C313.445 571.73 313.332 570.97 313.434 570.225C313.537 569.479 313.851 568.778 314.34 568.206C315.14 567.421 316.216 566.981 317.337 566.981C318.458 566.981 319.535 567.421 320.335 568.206Z" fill="#455A64"/>
<path d="M346.259 568.205C346.743 568.779 347.052 569.479 347.152 570.224C347.251 570.968 347.136 571.725 346.819 572.406C346.503 573.086 345.998 573.663 345.365 574.066C344.732 574.47 343.997 574.685 343.247 574.685C342.496 574.685 341.761 574.47 341.128 574.066C340.495 573.663 339.99 573.086 339.674 572.406C339.357 571.725 339.242 570.968 339.341 570.224C339.441 569.479 339.751 568.779 340.235 568.205C341.036 567.412 342.119 566.967 343.247 566.967C344.374 566.967 345.457 567.412 346.259 568.205Z" fill="#455A64"/>
<path d="M372.153 568.205C372.637 568.779 372.947 569.479 373.046 570.224C373.146 570.968 373.03 571.725 372.714 572.406C372.397 573.086 371.893 573.663 371.26 574.066C370.627 574.47 369.892 574.685 369.141 574.685C368.39 574.685 367.655 574.47 367.022 574.066C366.389 573.663 365.885 573.086 365.568 572.406C365.252 571.725 365.136 570.968 365.236 570.224C365.335 569.479 365.645 568.779 366.129 568.205C366.931 567.412 368.013 566.967 369.141 566.967C370.269 566.967 371.351 567.412 372.153 568.205Z" fill="#455A64"/>
<path d="M398.048 568.205C398.546 568.492 398.974 568.884 399.305 569.354C399.635 569.824 399.858 570.36 399.959 570.925C400.06 571.491 400.037 572.071 399.89 572.627C399.743 573.182 399.476 573.698 399.109 574.14C398.741 574.581 398.282 574.937 397.762 575.182C397.243 575.427 396.676 575.555 396.102 575.559C395.528 575.562 394.96 575.439 394.438 575.2C393.916 574.96 393.452 574.609 393.08 574.172C392.583 573.885 392.154 573.493 391.824 573.023C391.493 572.553 391.27 572.017 391.169 571.452C391.068 570.886 391.092 570.306 391.239 569.75C391.385 569.195 391.652 568.679 392.019 568.237C392.387 567.796 392.846 567.44 393.366 567.195C393.885 566.95 394.452 566.822 395.026 566.818C395.6 566.815 396.168 566.938 396.69 567.177C397.212 567.417 397.676 567.768 398.048 568.205Z" fill="#455A64"/>
<path d="M298.837 1206.1C298.437 1206.1 298.095 1077.62 298.095 919.084C298.095 760.546 298.437 632.043 298.837 632.043C299.237 632.043 299.579 760.518 299.579 919.084C299.579 1077.65 299.123 1206.1 298.837 1206.1Z" fill="#263238"/>
<path d="M577.713 1154.51C577.713 1154.51 577.713 1153.74 577.713 1152.25C577.713 1150.77 577.713 1148.57 577.713 1145.68C577.713 1139.97 577.713 1131.41 577.713 1120.27C577.713 1098.12 577.713 1065.83 577.513 1025.12C577.513 943.808 577.313 829.009 577.17 694.91L577.884 695.595H344.945L345.688 694.853C345.688 872.062 345.545 1033.68 345.488 1154.51L344.945 1153.96L515.131 1154.25L561.582 1154.39H573.716H577.913H573.83H561.811L515.446 1154.53L344.945 1154.85H344.374V1154.51C344.374 1033.74 344.374 872.119 344.203 694.853V694.11H578.598V694.853C578.598 829.037 578.341 944.093 578.255 1025.55C578.255 1066.17 578.255 1098.41 578.084 1120.53C578.084 1131.55 578.084 1140.03 578.084 1145.8C578.084 1148.65 578.084 1150.79 578.084 1152.28C578.084 1153.76 577.713 1154.51 577.713 1154.51Z" fill="#263238"/>
<path d="M323.133 360.305H291.928V445.84H323.133V360.305Z" fill="#E0E0E0"/>
<path d="M444.299 110.379H163.111C154.297 110.379 147.151 117.524 147.151 126.338V353.424C147.151 362.238 154.297 369.384 163.111 369.384H444.299C453.113 369.384 460.258 362.238 460.258 353.424V126.338C460.258 117.524 453.113 110.379 444.299 110.379Z" fill="#E0E0E0"/>
<path d="M438.474 132.42H169.163V345.145H438.474V132.42Z" fill="#263238"/>
<path d="M198.084 226.806H178.271V231.317H198.084V226.806Z" fill="white"/>
<path d="M386.914 148.321H363.731V151.49H386.914V148.321Z" fill="white"/>
<path d="M428.54 148.321H392.881V151.49H428.54V148.321Z" fill="white"/>
<path d="M428.511 169.021H423.914V172.19H428.511V169.021Z" fill="#455A64"/>
<path d="M428.511 184.123H423.914V187.292H428.511V184.123Z" fill="#455A64"/>
<path d="M428.511 199.227H423.914V202.396H428.511V199.227Z" fill="#455A64"/>
<path d="M428.511 214.357H423.914V217.526H428.511V214.357Z" fill="#455A64"/>
<path d="M428.511 229.461H423.914V232.63H428.511V229.461Z" fill="#455A64"/>
<path d="M428.511 244.563H423.914V247.733H428.511V244.563Z" fill="#455A64"/>
<path d="M428.511 259.666H423.914V262.835H428.511V259.666Z" fill="#455A64"/>
<path d="M428.511 274.798H423.914V277.967H428.511V274.798Z" fill="#455A64"/>
<path d="M428.511 289.9H423.914V293.069H428.511V289.9Z" fill="#455A64"/>
<path d="M428.511 305.004H423.914V308.173H428.511V305.004Z" fill="#455A64"/>
<path d="M428.511 320.106H423.914V323.275H428.511V320.106Z" fill="#455A64"/>
<path d="M428.539 330.499H410.467V333.668H428.539V330.499Z" fill="white"/>
<path d="M220.496 330.499H180.84V333.668H220.496V330.499Z" fill="#455A64"/>
<path d="M428.51 157.515H347.686V160.684H428.51V157.515Z" fill="white"/>
<path d="M198.084 235.685H178.271V240.195H198.084V235.685Z" fill="white"/>
<path d="M198.084 244.563H178.271V249.074H198.084V244.563Z" fill="#455A64"/>
<path d="M198.084 253.442H178.271V257.953H198.084V253.442Z" fill="#455A64"/>
<path d="M204.365 280.222L247.19 175.473C265.949 183.515 286.119 187.747 306.528 187.923C326.937 188.1 347.177 184.217 366.072 176.5L410.81 281.364C410.81 281.364 363.959 316.481 307.088 315.995C250.216 315.51 204.365 280.222 204.365 280.222Z" fill="#455A64"/>
<g opacity="0.3">
<path d="M349.199 252.044C348.393 245.929 345.628 240.24 341.319 235.827C331.155 224.607 320.135 218.098 297.095 222.923C289.758 225.6 282.981 229.618 277.11 234.771C271.241 239.949 267.104 246.806 265.262 254.413C264.378 258.208 264.307 262.146 265.055 265.97C265.803 269.794 267.353 273.415 269.602 276.597C271.918 279.723 275.033 282.168 278.62 283.675C282.206 285.182 286.133 285.695 289.987 285.161C293.83 284.51 297.357 282.626 300.036 279.793C302.714 276.96 304.398 273.333 304.832 269.459C305.061 265.662 304.005 261.437 306.231 258.325C309.4 259.552 307.83 265.805 311.113 266.604C311.626 266.744 312.164 266.77 312.688 266.68C313.212 266.591 313.71 266.388 314.147 266.087C314.585 265.785 314.952 265.391 315.221 264.933C315.491 264.475 315.658 263.964 315.71 263.435C315.938 261.151 315.367 257.068 317.366 255.926C318.422 255.535 319.585 255.542 320.636 255.946C321.688 256.351 322.555 257.126 323.076 258.125C324.275 260.009 324.732 262.322 325.931 264.263C327.644 266.803 330.265 268.589 333.256 269.253C336.247 269.917 339.378 269.408 342.004 267.832C344.53 266.107 346.536 263.724 347.804 260.941C349.072 258.158 349.555 255.081 349.199 252.044Z" fill="black"/>
</g>
<g opacity="0.1">
<path d="M198.084 160.713H178.271V213.502H198.084V160.713Z" fill="white"/>
</g>
<path d="M389.54 370.411C389.54 370.811 344.917 371.154 289.901 371.154C234.885 371.154 190.233 370.811 190.233 370.411C190.233 370.012 234.857 369.669 289.901 369.669C344.945 369.669 389.54 370.012 389.54 370.411Z" fill="#263238"/>
<path d="M453.292 440.358C453.292 440.758 394.679 441.101 322.391 441.101C250.102 441.101 191.461 440.758 191.461 440.358C191.461 439.959 250.074 439.616 322.391 439.616C394.708 439.616 453.292 439.93 453.292 440.358Z" fill="#263238"/>
<path d="M479.815 264.349L463.456 252.643L434.563 250.959C434.563 250.959 435.534 259.21 442.557 261.722C449.581 264.235 460.059 267.604 460.059 267.604C460.059 267.604 458.688 292.642 474.648 294.355L484.554 283.477L479.815 264.349Z" fill="#455A64"/>
<path d="M474.648 294.354C472.183 292.738 469.819 290.974 467.567 289.072C465.105 286.799 463.158 284.025 461.857 280.936C460.275 276.979 459.782 272.671 460.43 268.459V267.803L459.83 267.603L448.41 263.92C446.357 263.347 444.352 262.611 442.415 261.722C440.483 260.838 438.804 259.483 437.533 257.782C436.212 255.908 435.669 253.595 436.02 251.329L435.192 251.958L463.314 252.643H462.942L476.047 261.95L479.673 264.462C480.081 264.782 480.521 265.06 480.986 265.29C479.639 263.816 478.126 262.503 476.475 261.379C473.62 259.009 469.109 255.669 463.713 251.586H463.542H463.342L435.249 250.559H434.564L434.421 251.215C434.192 252.558 434.23 253.933 434.534 255.26C434.838 256.588 435.401 257.843 436.191 258.952C439.046 263.092 443.985 264.662 447.925 265.69L459.345 269.259L458.86 268.431C458.192 272.913 458.795 277.493 460.601 281.649C462.004 284.842 464.089 287.687 466.711 289.986L468.281 291.299L469.766 292.27C470.536 292.824 471.359 293.302 472.221 293.698C472.989 294.046 473.809 294.268 474.648 294.354Z" fill="#263238"/>
<path d="M659.194 663.59L653.484 662.591C653.969 659.936 654.94 655.939 656.339 650.429C663.187 624.759 667.961 598.58 670.614 572.145C671.499 561.981 672.099 552.845 672.698 542.225C673.639 532.386 671.757 522.483 667.274 513.675C665.124 509.486 661.985 505.885 658.13 503.184C654.274 500.483 649.818 498.762 645.147 498.172C641.849 497.911 638.532 498.363 635.424 499.497C632.315 500.631 629.487 502.42 627.13 504.744C624.774 507.067 622.946 509.871 621.769 512.963C620.592 516.056 620.094 519.366 620.309 522.668L614.599 523.068C614.324 518.945 614.94 514.812 616.404 510.949C617.869 507.086 620.148 503.583 623.087 500.68C626.026 497.776 629.556 495.539 633.436 494.121C637.317 492.703 641.457 492.137 645.576 492.462C651.183 493.144 656.54 495.179 661.185 498.392C665.831 501.605 669.625 505.899 672.241 510.905C677.217 520.582 679.336 531.474 678.351 542.31C677.751 552.959 677.18 562.295 676.267 572.373C673.651 599.114 668.877 625.6 661.992 651.571C660.65 657.024 659.622 661.135 659.194 663.59Z" fill="#455A64"/>
<path d="M707.13 566.235L647.032 580.853L645.205 614.827L719.121 615.313L707.13 566.235Z" fill="#AE7461"/>
<path d="M628.303 525.809L605.663 607.49L605.434 641.778L601.923 653.427L552.503 638.124L556.9 626.447L578.74 598.839L603.065 518.157L628.303 525.809Z" fill="#E0E0E0"/>
<path d="M556.899 626.447L605.434 641.778L605.491 634.098L561.41 620.766L556.899 626.447Z" fill="#087F63"/>
<path d="M628.303 525.809H627.818L626.533 525.438L621.566 524.039L602.951 518.643L603.436 518.358C597.898 537.029 589.447 565.379 579.426 599.125L557.642 626.762V626.562C556.272 630.245 554.787 634.242 553.274 638.239L552.789 637.297L564.552 640.922L602.209 652.571L601.295 653.056L604.807 641.436V641.636C604.807 629.474 605.007 617.997 605.092 607.376L621.737 548.364C623.793 541.312 625.391 535.687 626.533 531.776L627.818 527.351C628.123 526.342 628.294 525.828 628.332 525.809C628.254 526.302 628.14 526.789 627.989 527.265C627.732 528.322 627.361 529.778 626.876 531.605C625.82 535.516 624.335 541.112 622.451 548.164L606.32 607.662V607.49C606.32 618.14 606.32 629.617 606.177 641.75V641.95C605.035 645.757 603.865 649.64 602.666 653.599L602.466 654.284L601.781 654.084L564.095 642.436L552.361 638.81L551.59 638.581L551.875 637.839C553.389 633.813 554.873 629.845 556.272 626.162L578.141 598.583V598.811C588.419 565.122 597.07 536.829 602.751 518.215V517.844H603.122L621.823 523.754L626.648 525.295L628.303 525.809Z" fill="#263238"/>
<path d="M605.491 606.777C600.858 606.182 596.302 605.09 591.902 603.522C587.366 602.417 582.955 600.848 578.74 598.84C583.374 599.435 587.93 600.526 592.33 602.095C596.871 603.184 601.283 604.754 605.491 606.777Z" fill="#263238"/>
<path d="M605.435 641.779C597.036 639.906 588.753 637.551 580.625 634.727C572.347 632.319 564.208 629.46 556.243 626.162C564.653 628.029 572.946 630.383 581.082 633.214C589.359 635.594 597.49 638.454 605.435 641.779Z" fill="#263238"/>
<path d="M577.713 554.587C577.713 554.587 596.299 538.313 598.526 538.427L623.193 539.741L650.03 580.538L645.205 614.798C645.205 614.798 629.56 613 623.593 598.525C617.626 584.05 614.885 578.797 614.885 578.797C613.959 582.65 612.509 586.358 610.574 589.817C608.119 593.215 604.179 589.132 604.179 589.132L604.321 580.567C604.321 580.567 602.894 583.051 598.868 580.281C594.843 577.512 600.867 561.096 600.867 561.096L603.351 556.728L595.214 564.322C595.214 564.322 596.042 578.825 586.992 580.281L586.221 564.179L594.243 552.759C594.243 552.759 581.282 559.897 577.713 554.587Z" fill="#AE7461"/>
<path d="M804.17 351.254C816.276 336.123 833.348 332.668 846.624 346.772C859.573 360.701 868.072 378.176 871.034 396.963C878.543 444.355 876.031 549.962 860.242 571.574C844.454 593.186 690.97 619.652 690.97 619.652L676.238 566.378L787.84 522.525L788.182 402.615C788.182 402.615 789.353 369.754 804.17 351.254Z" fill="#E0E0E0"/>
<path d="M857.53 576.627C857.53 576.627 857.302 576.627 856.76 576.97L854.447 577.883L845.425 581.338L830.979 586.791C825.269 588.875 818.902 591.473 811.508 593.672C781.959 602.379 739.905 612.457 691.37 623.792L690.685 623.963L690.514 623.278C685.774 605.406 680.721 586.163 675.496 566.549L675.354 565.921L675.953 565.693H676.239L787.583 522.04L787.184 522.611C788.468 488.95 789.525 460.914 790.295 441.244C790.695 431.479 791.038 423.8 791.266 418.404C791.266 415.834 791.495 413.836 791.552 412.408C791.609 410.981 791.723 410.353 791.723 410.353C791.723 410.353 791.723 411.066 791.723 412.408C791.723 413.75 791.723 415.834 791.723 418.404C791.723 423.742 791.38 431.422 791.123 441.244C790.495 460.943 789.61 488.95 788.525 522.639V523.039L788.126 523.21L676.781 567.034H676.495L676.952 566.149L691.884 622.878L691.056 622.364C739.591 611.116 781.673 601.209 811.223 592.758C818.617 590.645 825.041 588.104 830.751 586.077L845.254 580.853L854.361 577.626L856.731 576.827L857.53 576.627Z" fill="#263238"/>
<path d="M207.449 579.026C205.826 574.143 202.845 569.823 198.856 566.572C194.867 563.321 190.034 561.273 184.924 560.669C183.758 560.702 182.618 560.328 181.697 559.612C181.072 558.79 180.723 557.79 180.698 556.757C180.248 554.079 179.256 551.52 177.783 549.237C176.311 546.955 174.388 544.996 172.133 543.482C169.848 541.999 167.215 541.141 164.496 540.99C161.776 540.84 159.065 541.404 156.631 542.625C156.374 534.488 147.38 528.008 139.244 529.264C135.131 530.082 131.358 532.117 128.416 535.106C125.473 538.094 123.497 541.897 122.742 546.023C121.013 544.133 118.721 542.852 116.206 542.368C113.691 541.885 111.087 542.225 108.781 543.339C104.213 545.685 100.542 549.467 98.3317 554.102C95.0484 560.126 93.2783 568.035 97.4752 573.488C93.364 572.517 89.367 575.629 87.1401 579.198C84.2616 584.068 83.2929 589.833 84.4216 595.376C85.5504 600.919 88.6962 605.847 93.2498 609.204C89.5718 611.512 86.6994 614.903 85.0274 618.911C84.2668 620.926 84.1901 623.136 84.8092 625.2C85.4283 627.264 86.7088 629.066 88.4534 630.33C84.228 630.873 81.2588 634.784 79.5744 638.667C78.2187 641.437 77.7216 644.549 78.1469 647.603C78.3999 649.124 79.113 650.53 80.1902 651.633C81.2673 652.736 82.6567 653.481 84.1709 653.77C82.3755 656.139 81.4915 659.074 81.6802 662.041C81.8689 665.007 83.1176 667.807 85.1987 669.929C87.415 671.92 90.2692 673.054 93.2474 673.127C96.2256 673.201 99.1321 672.208 101.444 670.329C101.949 672.888 103.1 675.276 104.788 677.266C106.476 679.255 108.644 680.78 111.087 681.695C113.53 682.61 116.167 682.886 118.746 682.496C121.326 682.105 123.762 681.062 125.825 679.465C125.226 681.977 128.109 684.29 130.679 683.919C131.95 683.627 133.132 683.033 134.126 682.188C135.119 681.344 135.896 680.273 136.389 679.065L160.713 690.285C165.823 692.97 171.325 694.83 177.015 695.795C179.861 696.264 182.777 696.059 185.529 695.196C188.28 694.333 190.792 692.837 192.86 690.828" fill="#263238"/>
<path d="M183.981 568.406C163.996 560.383 134.476 572.089 127.338 592.416L109.58 660.936L120.172 665.704L268.632 721.462L330.928 674.183L270.573 646.547C270.573 646.547 278.224 619.767 248.133 599.24C233.201 589.019 206.307 577.285 183.981 568.406Z" fill="#FFBF9D"/>
<path d="M208.534 586.992C209.621 587.496 210.468 588.405 210.895 589.525C211.322 590.645 211.294 591.887 210.818 592.987C210.613 593.531 210.301 594.028 209.902 594.449C209.502 594.871 209.022 595.209 208.49 595.443C207.959 595.677 207.386 595.802 206.805 595.812C206.224 595.822 205.647 595.716 205.108 595.5C204.016 595 203.162 594.094 202.73 592.973C202.298 591.853 202.321 590.608 202.795 589.504C203.004 588.96 203.318 588.462 203.72 588.04C204.123 587.618 204.605 587.281 205.139 587.047C205.673 586.813 206.248 586.688 206.831 586.678C207.414 586.669 207.993 586.775 208.534 586.992Z" fill="#263238"/>
<path d="M195.058 580.654C195.372 581.425 191.518 583.509 189.348 587.934C187.178 592.359 187.921 596.728 187.15 596.956C186.379 597.184 186.065 596.099 185.694 594.101C185.259 591.528 185.638 588.883 186.779 586.535C187.866 584.199 189.678 582.277 191.946 581.054C193.745 580.283 194.944 580.283 195.058 580.654Z" fill="#263238"/>
<path d="M190.633 627.447C191.726 627.946 192.579 628.853 193.011 629.973C193.444 631.094 193.42 632.339 192.946 633.442C192.738 633.983 192.424 634.478 192.024 634.897C191.624 635.317 191.144 635.653 190.614 635.887C190.083 636.12 189.511 636.246 188.932 636.258C188.352 636.27 187.776 636.167 187.236 635.955C186.149 635.45 185.3 634.543 184.868 633.424C184.437 632.306 184.457 631.063 184.923 629.959C185.357 628.876 186.197 628.006 187.265 627.536C188.333 627.067 189.542 627.034 190.633 627.447Z" fill="#263238"/>
<path d="M176.102 625.277C176.387 626.076 172.562 628.132 170.392 632.586C168.222 637.04 168.964 641.379 168.193 641.608C167.851 641.608 167.109 640.751 166.737 638.753C166.305 636.189 166.684 633.553 167.822 631.215C168.926 628.891 170.734 626.973 172.99 625.734C174.76 624.934 175.959 624.934 176.102 625.277Z" fill="#263238"/>
<path d="M216.043 624.478C216.431 621.773 217.15 619.127 218.184 616.598C218.613 615.428 218.898 614.229 218.184 613.743C217.055 613.083 215.747 612.793 214.444 612.915L204.109 612.059C189.463 610.86 177.615 609.432 177.672 608.833C177.729 608.233 189.634 608.833 204.309 609.946L214.616 610.86C216.338 610.788 218.029 611.335 219.384 612.401C219.709 612.754 219.951 613.177 220.089 613.637C220.228 614.097 220.26 614.582 220.183 615.056C220.054 615.776 219.833 616.477 219.526 617.141C218.692 619.729 217.521 622.196 216.043 624.478Z" fill="#263238"/>
<path d="M270.573 646.547C263.577 661.905 252.434 675.006 238.397 684.375C238.397 684.375 268.061 684.861 280.394 651.029L270.573 646.547Z" fill="#FF9A6C"/>
<path d="M225.978 631.501C224.512 631.831 223.153 632.528 222.029 633.527C220.906 634.526 220.054 635.793 219.555 637.211C219.174 638.238 219.006 639.332 219.06 640.426C219.114 641.521 219.389 642.593 219.869 643.578C220.347 644.521 221.098 645.299 222.025 645.808C222.952 646.318 224.012 646.535 225.065 646.433C226.203 646.094 227.215 645.424 227.972 644.509C228.73 643.595 229.198 642.475 229.319 641.294C229.565 638.825 229.323 636.331 228.605 633.956C228.506 633.275 228.263 632.623 227.891 632.043C227.716 631.764 227.464 631.543 227.164 631.406C226.865 631.269 226.532 631.222 226.207 631.273" fill="#FF9A6C"/>
<path d="M212.93 639.096C213.216 638.353 218.098 640.666 223.523 638.153C228.947 635.641 230.86 630.217 231.574 630.502C232.287 630.788 231.973 632.101 231.003 634.299C229.689 637.163 227.403 639.469 224.55 640.809C221.815 642.106 218.683 642.29 215.814 641.322C213.673 640.609 212.731 639.438 212.93 639.096Z" fill="#263238"/>
<path d="M160.685 616.369C161.712 617.369 159 621.565 157.144 627.104C155.289 632.643 154.718 637.553 153.29 637.725C152.634 637.725 151.834 636.526 151.463 634.242C151.063 631.28 151.376 628.265 152.377 625.448C153.335 622.619 154.95 620.055 157.087 617.968C158.772 616.398 160.199 615.884 160.685 616.369Z" fill="#263238"/>
<path d="M181.297 576.143C181.926 577.399 179.413 579.997 177.615 583.651C175.816 587.306 175.045 590.817 173.646 591.046C172.989 591.046 172.19 590.132 171.876 588.191C171.566 585.804 172.005 583.38 173.132 581.253C174.196 579.093 175.914 577.325 178.043 576.2C179.699 575.486 180.955 575.572 181.297 576.143Z" fill="#263238"/>
<path d="M140.157 564.009C143.618 564.415 146.885 565.823 149.558 568.059C152.231 570.296 154.192 573.264 155.203 576.599C156.108 579.949 156.01 583.492 154.918 586.786C153.827 590.081 151.791 592.982 149.064 595.128C150.662 594.703 152.361 594.878 153.839 595.619C155.317 596.361 156.473 597.618 157.087 599.154C158.199 602.29 158.025 605.739 156.602 608.747C155.293 611.963 153.304 614.859 150.771 617.234C148.238 619.609 145.221 621.408 141.927 622.508C144.289 624 146.262 626.033 147.683 628.439C149.104 630.845 149.933 633.554 150.1 636.344C150.267 639.133 149.769 641.922 148.646 644.48C147.522 647.039 145.806 649.293 143.64 651.058C146.797 649.913 150.225 649.745 153.478 650.575C156.732 651.404 159.661 653.194 161.883 655.711C164.062 658.279 165.382 661.464 165.658 664.82C165.935 668.176 165.154 671.535 163.426 674.425C161.698 677.315 159.108 679.592 156.021 680.936C152.933 682.28 149.502 682.624 146.209 681.92C144.122 683.767 141.638 685.109 138.949 685.842C136.26 686.575 133.439 686.679 130.703 686.147C127.968 685.614 125.391 684.458 123.174 682.77C120.956 681.082 119.158 678.905 117.916 676.41C116.545 677.725 114.856 678.661 113.014 679.126C111.172 679.592 109.241 679.571 107.41 679.065C103.758 678.018 100.436 676.052 97.7602 673.355C94.3139 670.25 91.527 666.484 89.5651 662.281C87.6033 658.078 86.5066 653.523 86.3402 648.888C86.2621 644.248 87.5818 639.692 90.1276 635.812C92.6735 631.932 96.3277 628.908 100.615 627.133C101.646 626.922 102.585 626.392 103.299 625.62C103.59 624.966 103.723 624.254 103.688 623.54C103.653 622.826 103.452 622.13 103.099 621.508C100.786 615.598 98.2455 609.346 99.3304 603.122C100.055 599.324 102.044 595.883 104.973 593.359C107.901 590.835 111.598 589.375 115.461 589.218C112.982 585.754 111.688 581.582 111.77 577.323C111.852 573.064 113.307 568.945 115.918 565.579C121.628 559.184 133.048 558.699 138.301 565.408" fill="#263238"/>
<path d="M160.085 668.787C166.549 672.239 172.482 676.604 177.701 681.749C179.928 683.919 182.155 686.774 181.498 689.771C181.054 691.118 180.191 692.287 179.035 693.109C177.88 693.931 176.492 694.362 175.074 694.339C172.24 694.227 169.476 693.424 167.023 691.998C158.116 687.377 149.532 682.16 141.328 676.381" fill="#263238"/>
<path d="M161.883 678.294C161.512 678.608 148.408 691.941 164.738 700.049C181.069 708.157 185.951 690.056 185.494 689.771C185.037 689.485 161.883 678.294 161.883 678.294Z" fill="#FFBF9D"/>
<path d="M176.93 691.713C176.93 691.713 176.93 692.113 176.93 692.684C176.892 693.51 176.534 694.288 175.93 694.854C174.716 695.558 173.337 695.929 171.934 695.929C170.53 695.929 169.151 695.558 167.937 694.854C166.499 694.196 165.23 693.22 164.225 691.999C163.788 691.593 163.455 691.088 163.257 690.526C163.058 689.964 162.998 689.362 163.083 688.772C163.157 688.4 163.362 688.066 163.66 687.831C163.958 687.595 164.331 687.474 164.71 687.488C165.281 687.488 165.567 687.745 165.624 687.688C165.681 687.63 165.624 687.202 164.767 687.002C164.335 686.838 163.858 686.838 163.426 687.002C162.867 687.291 162.438 687.781 162.227 688.373C162.025 689.115 162.018 689.897 162.208 690.643C162.399 691.388 162.779 692.072 163.311 692.627C164.396 694.019 165.795 695.134 167.394 695.881C168.823 696.681 170.455 697.044 172.089 696.928C173.722 696.811 175.286 696.219 176.587 695.225C176.934 694.843 177.191 694.388 177.339 693.894C177.487 693.4 177.523 692.879 177.444 692.37C177.301 691.999 176.987 691.685 176.93 691.713Z" fill="#FF9A6C"/>
<path d="M138.245 621.766C138.389 621.632 138.514 621.478 138.616 621.309C138.965 620.861 139.289 620.394 139.586 619.91C140.785 618.079 141.744 616.103 142.441 614.029C142.923 612.55 143.211 611.014 143.298 609.461C143.416 607.607 143.144 605.75 142.499 604.008C141.75 602.004 140.513 600.218 138.901 598.812C137.102 597.207 134.774 596.323 132.363 596.328L132.592 597.07C137.128 594.506 140.721 590.553 142.841 585.793C144.012 583.189 144.699 580.393 144.868 577.542C144.957 576.057 144.832 574.567 144.497 573.117C144.076 571.624 143.245 570.279 142.099 569.234C140.782 567.999 139.2 567.081 137.474 566.55C135.84 566.021 134.171 565.61 132.478 565.323C130.826 564.981 129.131 564.894 127.453 565.066C126.601 565.118 125.771 565.36 125.025 565.775C124.279 566.19 123.635 566.767 123.142 567.464L123.827 568.006C125.978 565.641 127.283 562.629 127.538 559.441C127.802 556.488 127.228 553.519 125.882 550.877C124.673 548.56 122.806 546.653 120.515 545.395C118.164 544.116 115.518 543.476 112.843 543.542C110.167 543.607 107.555 544.374 105.269 545.766C104.31 546.334 103.451 547.057 102.729 547.907C102.729 547.907 103.585 547.108 105.412 546.023C108.068 544.526 111.111 543.86 114.148 544.11C116.276 544.285 118.341 544.919 120.201 545.966C122.348 547.187 124.086 549.014 125.197 551.219C126.431 553.713 126.954 556.498 126.71 559.27C126.471 562.296 125.236 565.157 123.199 567.407L123.884 567.949C124.311 567.364 124.863 566.881 125.5 566.535C126.137 566.189 126.843 565.99 127.567 565.951C129.161 565.792 130.771 565.888 132.335 566.236C135.66 566.55 138.823 567.819 141.442 569.891C142.376 570.932 143.073 572.162 143.487 573.497C143.901 574.832 144.021 576.241 143.84 577.628C143.669 580.358 143.012 583.037 141.899 585.536C139.887 590.15 136.444 593.994 132.078 596.499L130.65 597.299H132.278C134.505 597.272 136.663 598.076 138.33 599.554C139.854 600.865 141.031 602.533 141.756 604.408C142.407 606.059 142.699 607.83 142.613 609.604C142.57 611.113 142.33 612.61 141.899 614.057C141.237 616.057 140.346 617.973 139.244 619.767C138.644 621.081 138.216 621.737 138.245 621.766Z" fill="white"/>
<path d="M155.174 567.292C155.174 567.292 155.631 567.064 156.231 566.436C157.071 565.51 157.729 564.435 158.172 563.267C158.868 561.505 159.007 559.572 158.572 557.728C158.309 556.55 157.591 555.523 156.573 554.873C156.009 554.518 155.356 554.33 154.689 554.33C154.022 554.33 153.369 554.518 152.805 554.873L153.404 555.558L153.633 555.33C155.018 553.728 156.035 551.842 156.612 549.805C157.189 547.768 157.313 545.629 156.973 543.539C156.787 542.286 156.402 541.072 155.831 539.941C155.431 539.142 155.117 538.771 155.06 538.799C155.635 540.363 156.056 541.979 156.316 543.624C156.556 545.599 156.379 547.602 155.799 549.505C155.219 551.407 154.248 553.168 152.947 554.673L152.748 554.902L149.893 558.328L153.461 555.473C153.887 555.197 154.382 555.051 154.889 555.051C155.395 555.051 155.891 555.197 156.316 555.473C157.133 555.988 157.725 556.794 157.972 557.728C158.388 559.407 158.319 561.169 157.772 562.81C157.141 564.428 156.265 565.94 155.174 567.292Z" fill="white"/>
<path d="M498.315 797.633L603.522 659.337L652.913 666.617L620.88 809.053C620.88 809.053 563.095 826.554 541.683 816.904C520.27 807.254 498.315 797.633 498.315 797.633Z" fill="#263238"/>
<path d="M604.036 660.594C604.036 660.594 872.976 666.304 886.081 670.329C915.601 679.265 1147.06 729.114 1147.06 729.114C1147.06 729.114 1141.12 787.327 1139.06 800.488C1138.83 801.973 914.002 797.034 882.283 782.445C882.283 782.445 742.16 795.949 723.746 801.773C705.331 807.597 621.423 832.065 592.074 825.184C562.724 818.303 505.938 796.206 505.938 796.206L604.036 660.594Z" fill="#263238"/>
<path d="M1101.38 737.278L1161.02 751.382C1161.02 751.382 1195.28 695.538 1206.7 697.137L1183.48 813.735L1089.67 795.577L1101.38 737.278Z" fill="#263238"/>
<path d="M1148.68 786.441C1148.79 787.633 1149.34 788.741 1150.22 789.549C1151.1 790.358 1152.25 790.807 1153.45 790.809C1154.64 790.736 1155.76 790.21 1156.57 789.339C1157.38 788.468 1157.83 787.318 1157.82 786.127C1157.69 784.865 1157.1 783.694 1156.16 782.84C1155.23 781.986 1154.01 781.51 1152.74 781.502C1151.5 781.706 1150.39 782.383 1149.65 783.391C1148.9 784.398 1148.57 785.655 1148.74 786.898" fill="#E0E0E0"/>
<g opacity="0.6">
<path d="M1183.34 813.649L1173.95 811.451L1199.64 700.477C1199.64 700.477 1202.96 695.738 1206.5 697.051L1183.34 813.649Z" fill="white"/>
</g>
<path d="M1160.67 749.384C1161.24 749.384 1160.93 752.41 1162.22 755.579C1163.5 758.748 1165.58 760.718 1165.24 761.289C1164.9 761.86 1161.82 760.261 1160.33 756.407C1158.85 752.553 1160.19 749.098 1160.67 749.384Z" fill="white"/>
<path d="M1168.18 738.164C1168.75 738.164 1169.24 740.79 1171.27 743.217C1173.29 745.644 1175.72 746.7 1175.58 747.243C1175.43 747.785 1172.15 747.528 1169.7 744.388C1167.24 741.247 1167.64 738.078 1168.18 738.164Z" fill="white"/>
<path d="M1184.17 734.138C1184.17 734.681 1181.17 734.909 1178.46 732.825C1175.75 730.741 1174.92 727.829 1175.46 727.686C1176.01 727.543 1177.32 729.513 1179.66 731.198C1182 732.882 1184.17 733.567 1184.17 734.138Z" fill="white"/>
<path d="M1146.74 747.67C1147.2 748.013 1145.91 750.525 1145.49 753.723C1145.06 756.92 1145.49 759.718 1145.03 759.918C1144.57 760.118 1142.92 757.292 1143.49 753.466C1144.06 749.64 1146.34 747.299 1146.74 747.67Z" fill="white"/>
<path d="M871.32 678.666H870.607L868.58 678.437C866.809 678.266 864.211 677.866 860.843 677.609C854.105 676.953 844.312 676.153 832.293 675.268C808.111 673.498 774.707 671.329 737.792 669.016L643.235 663.163L614.685 661.307L606.891 660.736L604.607 660.594H603.922H606.777L614.571 660.879L643.121 662.278C667.331 663.506 700.792 665.39 737.707 667.674C774.622 669.958 808.054 672.328 832.207 674.383C844.284 675.411 854.048 676.353 860.757 677.238C864.126 677.581 866.724 678.066 868.494 678.352L870.492 678.694L871.32 678.666Z" fill="#455A64"/>
<path d="M466.397 649.173C466.397 649.173 530.949 619.653 604.037 660.593L570.747 795.634L496.289 798.917L466.397 649.173Z" fill="#FFBF9D"/>
<path d="M249.304 716.209C258.113 707.32 265.465 697.098 271.087 685.917C276.643 674.794 280.869 663.055 283.678 650.944L284.905 649.373L320.764 636.926C341.035 631.587 369.584 623.107 387.028 623.107C411.61 623.107 455.32 642.721 455.32 642.721L467.739 645.119C467.739 645.119 482.3 619.853 479.159 658.224C476.304 693.426 496.66 775.279 496.66 775.279C496.66 775.279 517.302 816.019 499.972 812.622C485.04 809.767 443.957 790.41 443.957 790.41C435.015 789.165 426.165 787.334 417.463 784.928C378.406 775.136 280.994 757.663 249.304 716.209Z" fill="#087F63"/>
<path d="M338.379 680.008L473.792 735.28L637.525 761.232L646.633 803.515C646.633 803.515 491.778 806.912 475.562 805.656C459.345 804.4 323.505 745.701 323.505 745.701L338.379 680.008Z" fill="#FFBF9D"/>
<path d="M407.156 700.564L373.81 780.503C373.81 780.503 319.565 759.805 295.983 745.216C274.998 732.226 272.743 714.781 285.077 695.539C297.41 676.296 331.87 677.552 346.659 680.122C363.76 683.091 407.156 700.564 407.156 700.564Z" fill="#087F63"/>
<path d="M620.139 769.911L630.474 762.83C633.1 762.145 702.22 747.128 702.22 747.128L733.625 760.147C733.625 760.147 734.167 764.315 728.685 766.57C724.996 767.829 720.963 767.604 717.437 765.942L702.791 761.317L684.29 764.172L707.444 767.513L731.341 777.933C731.779 779.057 731.894 780.282 731.672 781.468C731.45 782.654 730.9 783.754 730.084 784.643C727.229 787.098 721.776 784.643 721.776 784.643C721.776 784.643 723.718 790.352 720.463 792.437C717.208 794.521 695.225 793.95 695.225 793.95C695.225 793.95 678.552 790.866 679.351 791.352C680.151 791.837 693.883 796.177 693.883 796.177C693.883 796.177 711.927 797.005 712.669 799.917C712.948 800.816 713.026 801.765 712.898 802.697C712.77 803.63 712.438 804.523 711.927 805.313C711.441 806.112 689.429 805.941 685.689 806.198C681.949 806.455 646.519 803.6 646.519 803.6L628.247 797.89L620.139 769.911Z" fill="#FFBF9D"/>
<path d="M680.722 779.418C682.732 780 684.828 780.232 686.917 780.103C691.851 780.146 696.778 780.461 701.677 781.045C707.387 782.016 712.412 783.643 716.181 784.357C718.198 784.952 720.307 785.174 722.405 785.014C720.479 784.249 718.492 783.648 716.466 783.215C711.698 781.675 706.846 780.407 701.934 779.418C696.945 778.785 691.908 778.623 686.888 778.933C684.822 778.906 682.758 779.069 680.722 779.418Z" fill="#FF9A6C"/>
<path d="M468.824 729.599C468.434 728.589 468.175 727.534 468.053 726.458C467.682 724.431 467.197 721.491 466.768 717.893C465.855 710.556 465.084 700.392 464.798 689.144C464.513 677.895 464.798 667.674 465.427 660.308C465.683 656.625 465.998 653.656 466.283 651.743C466.33 650.666 466.522 649.6 466.854 648.574C466.965 649.647 466.965 650.728 466.854 651.8C466.854 654.17 466.626 657.054 466.483 660.365C466.197 667.731 466.055 677.895 466.312 689.087C466.569 700.278 467.168 710.442 467.825 717.779C468.11 721.434 468.424 724.403 468.624 726.344C468.815 727.418 468.882 728.51 468.824 729.599Z" fill="#263238"/>
<path d="M406.328 702.619C405.682 702.524 405.049 702.351 404.444 702.105L399.105 700.392L379.577 693.797L350.742 683.862C345.004 682.164 339.143 680.914 333.212 680.122C326.881 679.19 320.466 678.96 314.084 679.436C307.739 680.073 301.615 682.111 296.154 685.403C291.091 688.479 287.033 692.963 284.477 698.308C282.234 703.18 281.149 708.506 281.308 713.868C281.45 718.558 282.416 723.188 284.163 727.543C286.748 733.862 290.518 739.628 295.269 744.53C296.925 746.3 298.324 747.585 299.238 748.47C299.752 748.875 300.221 749.335 300.637 749.841C300.078 749.498 299.544 749.116 299.038 748.698C298.067 747.871 296.582 746.671 294.841 744.958C289.848 740.088 285.886 734.262 283.193 727.829C281.357 723.362 280.323 718.607 280.138 713.782C279.916 708.222 281.001 702.687 283.307 697.623C285.934 692.011 290.154 687.295 295.44 684.062C301.075 680.635 307.407 678.517 313.969 677.866C320.475 677.353 327.018 677.592 333.469 678.58C339.465 679.379 345.385 680.668 351.17 682.434C362.162 686.231 371.783 689.743 380.005 692.684L399.362 699.735L404.587 701.734C405.2 701.96 405.784 702.257 406.328 702.619Z" fill="#263238"/>
<g opacity="0.3">
<path d="M466.397 653.398V652.057C459.631 671.87 453.978 692.712 454.977 713.61C454.892 717.53 455.796 721.408 457.604 724.887C458.23 725.813 459.143 726.508 460.201 726.866C461.26 727.223 462.407 727.224 463.466 726.868C464.526 726.511 465.439 725.818 466.066 724.893C466.693 723.968 467 722.863 466.94 721.747C465.826 700.049 465.341 674.126 466.397 653.398Z" fill="black"/>
</g>
<path d="M637.526 761.232C636.702 761.228 635.881 761.151 635.07 761.004L628.133 760.033L602.638 756.236L518.587 743.131L473.678 735.965L423.887 715.324L409.612 709.328L405.872 707.672C405.42 707.503 404.989 707.283 404.587 707.016C405.056 707.114 405.515 707.257 405.957 707.444L409.783 708.9L424.058 714.61L474.049 734.738H473.906L518.958 741.675L602.952 755.208L628.361 759.462L635.27 760.718C636.034 760.829 636.789 761.001 637.526 761.232Z" fill="#FF9A6C"/>
<path d="M569.006 1020.32C568.463 1020.69 653.827 1189.97 653.827 1189.97L765.8 1118.45L684.547 940.868L569.006 1020.32Z" fill="#E0E0E0"/>
<path d="M479.587 875.403L478.674 973.015C478.678 983.536 481.572 993.853 487.042 1002.84C492.511 1011.83 500.345 1019.14 509.687 1023.98C519.03 1028.82 529.522 1030.99 540.019 1030.27C550.515 1029.55 560.611 1025.96 569.206 1019.89L808.054 876.716L771.482 834.205L479.587 875.403Z" fill="#E0E0E0"/>
<path d="M479.587 875.403L480.958 875.147L485.069 874.518L501.143 872.177L561.611 863.441L771.396 833.492H771.767L772.024 833.806L808.597 876.288L809.167 876.945L808.425 877.402L743.76 916.116L569.605 1020.44C566.167 1022.81 562.516 1024.85 558.699 1026.55C554.936 1028.13 551.025 1029.34 547.022 1030.14C543.095 1030.86 539.108 1031.19 535.117 1031.14C531.218 1031.02 527.338 1030.54 523.526 1029.72C510.015 1026.72 498.023 1018.99 489.722 1007.92C481.421 996.847 477.36 983.169 478.274 969.361C478.274 957.57 478.531 946.693 478.645 936.9C478.931 917.343 479.131 901.983 479.302 891.42C479.302 886.224 479.445 882.227 479.473 879.486C479.473 878.173 479.473 877.174 479.473 876.431C479.473 875.689 479.473 875.432 479.473 875.432C479.473 875.432 479.473 875.803 479.473 876.517V879.6C479.473 882.455 479.473 886.424 479.473 891.648C479.473 902.212 479.473 917.572 479.245 937.1C479.245 946.864 479.245 957.656 479.045 969.39C478.232 982.942 482.274 996.34 490.447 1007.18C498.62 1018.02 510.388 1025.6 523.64 1028.55C527.398 1029.34 531.22 1029.8 535.06 1029.92C542.995 1030.08 550.872 1028.53 558.157 1025.38C561.882 1023.71 565.447 1021.7 568.806 1019.38L742.96 914.888L807.626 876.146L807.454 877.231L770.939 834.748L771.596 834.977L562.154 864.212L501.485 872.577L485.24 874.775L481.043 875.318L479.587 875.403Z" fill="#263238"/>
<path d="M536.459 1213.72L771.339 1042.93C776.815 1038.93 783.518 1036.95 790.292 1037.36C797.066 1037.76 803.488 1040.51 808.454 1045.13L992.715 1215.92C997.011 1219.91 1000.01 1225.1 1001.31 1230.81C1002.61 1236.53 1002.17 1242.5 1000.02 1247.96C997.883 1253.42 994.147 1258.1 989.304 1261.41C984.461 1264.71 978.735 1266.48 972.872 1266.48H553.617C547.461 1266.47 541.464 1264.52 536.484 1260.9C531.504 1257.28 527.797 1252.18 525.893 1246.33C523.989 1240.47 523.986 1234.16 525.884 1228.31C527.781 1222.45 531.483 1217.34 536.459 1213.72Z" fill="#E0E0E0"/>
<path d="M536.459 1213.72C536.459 1213.72 535.745 1214.4 534.26 1215.69C533.316 1216.44 532.463 1217.31 531.72 1218.26C530.629 1219.5 529.672 1220.85 528.865 1222.28L527.38 1224.88C527.009 1225.88 526.609 1226.91 526.209 1228.02C525.784 1229.17 525.487 1230.35 525.324 1231.56C525.182 1232.19 525.039 1232.82 524.953 1233.48C524.868 1234.13 524.953 1234.82 524.953 1235.5C524.675 1241.9 526.424 1248.23 529.949 1253.58C532.183 1256.86 535.079 1259.65 538.452 1261.75C541.825 1263.86 545.599 1265.23 549.535 1265.79C553.846 1266.28 558.499 1266.05 563.267 1266.11H578.142H648.003L829.838 1265.94H972.587C973.758 1265.94 974.9 1265.94 976.07 1265.71L977.812 1265.57L979.496 1265.17C981.775 1264.66 983.987 1263.89 986.091 1262.88L988.946 1261.06C989.955 1260.41 990.909 1259.68 991.801 1258.89C995.338 1255.73 998.044 1251.76 999.682 1247.31C1001.32 1242.87 1001.84 1238.08 1001.19 1233.39C1000.51 1228.66 998.634 1224.18 995.741 1220.37C992.476 1216.75 988.996 1213.33 985.321 1210.12L821.587 1058.47L812.222 1049.9C809.341 1046.92 806.133 1044.28 802.658 1042.02C799.179 1039.99 795.307 1038.72 791.3 1038.3C787.293 1037.88 783.242 1038.32 779.419 1039.59C775.678 1040.88 772.19 1042.82 769.112 1045.3C765.886 1047.64 762.688 1049.99 759.491 1052.27L740.819 1066L672.299 1115.71L573.003 1187.63L545.937 1207.12L538.943 1212.04C537.372 1213.18 536.516 1213.72 536.516 1213.72C536.516 1213.72 537.287 1213.09 538.857 1211.92L545.823 1206.75L572.717 1187.05L671.728 1114.77L740.248 1064.89L759.005 1051.21L768.627 1044.22C771.79 1041.62 775.385 1039.6 779.247 1038.25C783.25 1036.91 787.492 1036.44 791.691 1036.87C795.891 1037.3 799.95 1038.62 803.6 1040.74C807.171 1043.05 810.466 1045.76 813.422 1048.82L822.786 1057.38L986.149 1208.7C989.889 1211.96 993.426 1215.45 996.741 1219.14C999.788 1223.16 1001.75 1227.89 1002.45 1232.88C1003.13 1237.81 1002.59 1242.84 1000.87 1247.51C999.155 1252.19 996.314 1256.37 992.601 1259.69C991.699 1260.51 990.745 1261.27 989.746 1261.97L986.605 1263.88C984.399 1264.96 982.069 1265.77 979.668 1266.28L977.898 1266.71L976.07 1266.85C974.871 1266.85 973.644 1267.08 972.445 1267.11H936.986H829.609L647.775 1266.94H577.913H563.039C558.429 1267.05 553.816 1266.92 549.221 1266.54C545.192 1265.96 541.329 1264.54 537.886 1262.37C534.442 1260.2 531.495 1257.33 529.236 1253.95C525.687 1248.48 523.958 1242.04 524.297 1235.53C524.297 1234.85 524.297 1234.16 524.297 1233.48C524.297 1232.79 524.554 1232.16 524.696 1231.53C524.881 1230.31 525.197 1229.1 525.638 1227.94L526.837 1224.8L528.379 1222.17C529.257 1220.73 530.28 1219.38 531.434 1218.15C532.204 1217.2 533.086 1216.36 534.061 1215.63C535.659 1214.46 536.459 1213.72 536.459 1213.72Z" fill="#263238"/>
<g opacity="0.3">
<path d="M569.205 1019.89L579.112 1041.05L696.966 968.133L688.03 948.662L569.205 1019.89Z" fill="black"/>
</g>
<g opacity="0.3">
<path d="M479.787 876.717L479.416 891.82L786.499 890.906L808.054 876.717H479.787Z" fill="black"/>
</g>
<path d="M79.717 664.562C77.8261 663.937 75.8298 663.694 73.8443 663.848C71.8587 664.001 69.9235 664.548 68.1514 665.457C66.3793 666.366 64.8056 667.618 63.5219 669.14C62.2382 670.663 61.2702 672.426 60.6742 674.326L48.1693 714.039C46.9849 717.829 47.3467 721.933 49.1757 725.457C51.0047 728.982 54.1526 731.64 57.9334 732.853L480.472 876.716L501.199 803.628L79.717 664.562Z" fill="#455A64"/>
<path d="M1150.34 807.283L495.09 803.343C489.123 803.343 482.985 812.165 482.985 818.132L479.787 876.773H1150.34C1153.2 876.766 1155.94 875.626 1157.96 873.604C1159.98 871.582 1161.12 868.841 1161.13 865.981V818.075C1161.13 815.212 1159.99 812.467 1157.97 810.443C1155.95 808.42 1153.2 807.283 1150.34 807.283Z" fill="#455A64"/>
</svg>
